Hack-Bold.ufo
<glyph name="numbersign" format="1">
  <advance width="1233"/>
  <unicode hex="0023"/>
  <note>
	numbersign
  </note>
  <outline>
    <contour>
      <point x="209" y="373" type="line"/>
      <point x="2" y="373" type="line"/>
      <point x="2" y="588" type="line"/>
      <point x="262" y="588" type="line"/>
      <point x="336" y="881" type="line"/>
      <point x="117" y="881" type="line"/>
      <point x="117" y="1096" type="line"/>
      <point x="391" y="1096" type="line"/>
      <point x="485" y="1470" type="line"/>
      <point x="707" y="1470" type="line"/>
      <point x="612" y="1096" type="line"/>
      <point x="815" y="1096" type="line"/>
      <point x="909" y="1470" type="line"/>
      <point x="1133" y="1470" type="line"/>
      <point x="1036" y="1096" type="line"/>
      <point x="1229" y="1096" type="line"/>
      <point x="1229" y="881" type="line"/>
      <point x="983" y="881" type="line"/>
      <point x="909" y="588" type="line"/>
      <point x="1114" y="588" type="line"/>
      <point x="1114" y="373" type="line"/>
      <point x="856" y="373" type="line"/>
      <point x="762" y="0" type="line"/>
      <point x="541" y="0" type="line"/>
      <point x="635" y="373" type="line"/>
      <point x="430" y="373" type="line"/>
      <point x="336" y="0" type="line"/>
      <point x="115" y="0" type="line"/>
    </contour>
    <contour>
      <point x="688" y="588" type="line"/>
      <point x="762" y="881" type="line"/>
      <point x="557" y="881" type="line"/>
      <point x="483" y="588" type="line"/>
    </contour>
  </outline>
</glyph>
<glyph name="percent" format="1">
  <advance width="1233"/>
  <unicode hex="0025"/>
  <note>
	percent
  </note>
  <outline>
    <contour>
      <point x="263" y="793"/>
      <point x="188" y="824"/>
      <point x="126" y="886" type="curve" smooth="yes"/>
      <point x="66" y="946"/>
      <point x="33" y="1019"/>
      <point x="33" y="1112" type="curve" smooth="yes"/>
      <point x="33" y="1291"/>
      <point x="175" y="1432"/>
      <point x="352" y="1432" type="curve" smooth="yes"/>
      <point x="444" y="1432"/>
      <point x="519" y="1399"/>
      <point x="579" y="1339" type="curve" smooth="yes"/>
      <point x="639" y="1279"/>
      <point x="672" y="1204"/>
      <point x="672" y="1112" type="curve" smooth="yes"/>
      <point x="672" y="1023"/>
      <point x="641" y="948"/>
      <point x="579" y="886" type="curve" smooth="yes"/>
      <point x="519" y="826"/>
      <point x="444" y="793"/>
      <point x="352" y="793" type="curve" smooth="yes"/>
    </contour>
    <contour>
      <point x="429" y="975"/>
      <point x="489" y="1035"/>
      <point x="489" y="1112" type="curve" smooth="yes"/>
      <point x="489" y="1188"/>
      <point x="428" y="1249"/>
      <point x="352" y="1249" type="curve" smooth="yes"/>
      <point x="276" y="1249"/>
      <point x="215" y="1189"/>
      <point x="215" y="1112" type="curve" smooth="yes"/>
      <point x="215" y="1068"/>
      <point x="231" y="1039"/>
      <point x="255" y="1015" type="curve" smooth="yes"/>
      <point x="282" y="988"/>
      <point x="314" y="975"/>
      <point x="352" y="975" type="curve" smooth="yes"/>
    </contour>
    <contour>
      <point x="48" y="561" type="line"/>
      <point x="1191" y="997" type="line"/>
      <point x="1191" y="883" type="line"/>
      <point x="52" y="451" type="line"/>
    </contour>
    <contour>
      <point x="803" y="0"/>
      <point x="724" y="40"/>
      <point x="672" y="92" type="curve" smooth="yes"/>
      <point x="608" y="156"/>
      <point x="580" y="238"/>
      <point x="580" y="321" type="curve" smooth="yes"/>
      <point x="580" y="405"/>
      <point x="611" y="483"/>
      <point x="672" y="546" type="curve" smooth="yes"/>
      <point x="729" y="605"/>
      <point x="807" y="639"/>
      <point x="898" y="639" type="curve" smooth="yes"/>
      <point x="989" y="639"/>
      <point x="1065" y="606"/>
      <point x="1125" y="547" type="curve" smooth="yes"/>
      <point x="1182" y="491"/>
      <point x="1219" y="412"/>
      <point x="1219" y="320" type="curve" smooth="yes"/>
      <point x="1219" y="233"/>
      <point x="1186" y="153"/>
      <point x="1126" y="93" type="curve" smooth="yes"/>
      <point x="1070" y="37"/>
      <point x="989" y="0"/>
      <point x="898" y="0" type="curve" smooth="yes"/>
    </contour>
    <contour>
      <point x="975" y="182"/>
      <point x="1036" y="243"/>
      <point x="1036" y="319" type="curve" smooth="yes"/>
      <point x="1036" y="357"/>
      <point x="1022" y="390"/>
      <point x="995" y="417" type="curve" smooth="yes"/>
      <point x="968" y="444"/>
      <point x="934" y="457"/>
      <point x="898" y="457" type="curve" smooth="yes"/>
      <point x="860" y="457"/>
      <point x="828" y="444"/>
      <point x="801" y="417" type="curve" smooth="yes"/>
      <point x="774" y="390"/>
      <point x="762" y="355"/>
      <point x="762" y="319" type="curve" smooth="yes"/>
      <point x="762" y="279"/>
      <point x="778" y="244"/>
      <point x="801" y="221" type="curve" smooth="yes"/>
      <point x="827" y="195"/>
      <point x="859" y="182"/>
      <point x="898" y="182" type="curve" smooth="yes"/>
    </contour>
  </outline>
</glyph>
<glyph name="zero" format="1">
  <advance width="1233"/>
  <unicode hex="0030"/>
  <note>
	zero
  </note>
  <outline>
    <contour>
      <point x="286" y="-29"/>
      <point x="123" y="229"/>
      <point x="123" y="745" type="curve" smooth="yes"/>
      <point x="123" y="1262"/>
      <point x="287" y="1520"/>
      <point x="616" y="1520" type="curve" smooth="yes"/>
      <point x="947" y="1520"/>
      <point x="1110" y="1262"/>
      <point x="1110" y="745" type="curve" smooth="yes"/>
      <point x="1110" y="228"/>
      <point x="946" y="-29"/>
      <point x="617" y="-29" type="curve" smooth="yes"/>
    </contour>
    <contour>
      <point x="685" y="221"/>
      <point x="735" y="263"/>
      <point x="766" y="346" type="curve" smooth="yes"/>
      <point x="797" y="430"/>
      <point x="813" y="563"/>
      <point x="813" y="745" type="curve" smooth="yes"/>
      <point x="813" y="928"/>
      <point x="797" y="1061"/>
      <point x="766" y="1145" type="curve" smooth="yes"/>
      <point x="735" y="1228"/>
      <point x="685" y="1270"/>
      <point x="616" y="1270" type="curve" smooth="yes"/>
      <point x="548" y="1270"/>
      <point x="498" y="1228"/>
      <point x="467" y="1145" type="curve" smooth="yes"/>
      <point x="436" y="1061"/>
      <point x="420" y="928"/>
      <point x="420" y="745" type="curve" smooth="yes"/>
      <point x="420" y="563"/>
      <point x="436" y="430"/>
      <point x="467" y="346" type="curve" smooth="yes"/>
      <point x="498" y="263"/>
      <point x="548" y="221"/>
      <point x="616" y="221" type="curve" smooth="yes"/>
    </contour>
    <contour>
      <point x="606" y="460"/>
      <point x="598" y="475"/>
      <point x="591" y="497" type="curve" smooth="yes"/>
      <point x="584" y="519"/>
      <point x="580" y="547"/>
      <point x="576" y="578" type="curve" smooth="yes"/>
      <point x="573" y="603"/>
      <point x="570" y="637"/>
      <point x="568" y="669" type="curve" smooth="yes"/>
      <point x="566" y="701"/>
      <point x="564" y="730"/>
      <point x="564" y="749" type="curve" smooth="yes"/>
      <point x="564" y="762"/>
      <point x="565" y="788"/>
      <point x="567" y="819" type="curve" smooth="yes"/>
      <point x="568" y="834"/>
      <point x="569" y="850"/>
      <point x="570" y="867" type="curve" smooth="yes"/>
      <point x="571" y="884"/>
      <point x="572" y="900"/>
      <point x="574" y="915" type="curve" smooth="yes"/>
      <point x="583" y="993"/>
      <point x="596" y="1032"/>
      <point x="615" y="1032" type="curve" smooth="yes"/>
      <point x="625" y="1032"/>
      <point x="634" y="1021"/>
      <point x="641" y="999" type="curve" smooth="yes"/>
      <point x="648" y="976"/>
      <point x="654" y="948"/>
      <point x="658" y="913" type="curve" smooth="yes"/>
      <point x="661" y="885"/>
      <point x="664" y="852"/>
      <point x="666" y="821" type="curve" smooth="yes"/>
      <point x="668" y="790"/>
      <point x="669" y="760"/>
      <point x="669" y="743" type="curve" smooth="yes"/>
      <point x="669" y="731"/>
      <point x="668" y="708"/>
      <point x="667" y="678" type="curve" smooth="yes"/>
      <point x="666" y="648"/>
      <point x="664" y="612"/>
      <point x="660" y="579" type="curve" smooth="yes"/>
      <point x="655" y="539"/>
      <point x="649" y="509"/>
      <point x="642" y="490" type="curve" smooth="yes"/>
      <point x="635" y="470"/>
      <point x="626" y="460"/>
      <point x="617" y="460" type="curve" smooth="yes"/>
    </contour>
  </outline>
</glyph>
<glyph name="two" format="1">
  <advance width="1233"/>
  <unicode hex="0032"/>
  <note>
	two
  </note>
  <outline>
    <contour>
      <point x="115" y="216" type="line" smooth="yes"/>
      <point x="115" y="241"/>
      <point x="123" y="259"/>
      <point x="140" y="278" type="curve" smooth="yes"/>
      <point x="275" y="422" type="line" smooth="yes"/>
      <point x="331" y="482"/>
      <point x="378" y="532"/>
      <point x="415" y="572" type="curve" smooth="yes"/>
      <point x="490" y="651"/>
      <point x="540" y="705"/>
      <point x="573" y="742" type="curve" smooth="yes"/>
      <point x="606" y="779"/>
      <point x="649" y="827"/>
      <point x="685" y="875" type="curve" smooth="yes"/>
      <point x="721" y="922"/>
      <point x="762" y="991"/>
      <point x="762" y="1082" type="curve" smooth="yes"/>
      <point x="762" y="1142"/>
      <point x="743" y="1197"/>
      <point x="702" y="1234" type="curve" smooth="yes"/>
      <point x="661" y="1271"/>
      <point x="601" y="1288"/>
      <point x="530" y="1288" type="curve" smooth="yes"/>
      <point x="422" y="1288"/>
      <point x="291" y="1246"/>
      <point x="147" y="1165" type="curve"/>
      <point x="147" y="1440" type="line"/>
      <point x="227" y="1469"/>
      <point x="301" y="1489"/>
      <point x="357" y="1500" type="curve" smooth="yes"/>
      <point x="424" y="1513"/>
      <point x="490" y="1520"/>
      <point x="557" y="1520" type="curve" smooth="yes"/>
      <point x="702" y="1520"/>
      <point x="831" y="1486"/>
      <point x="926" y="1410" type="curve" smooth="yes"/>
      <point x="1011" y="1341"/>
      <point x="1061" y="1243"/>
      <point x="1061" y="1104" type="curve" smooth="yes"/>
      <point x="1061" y="1045"/>
      <point x="1052" y="998"/>
      <point x="1031" y="943" type="curve" smooth="yes"/>
      <point x="1008" y="887"/>
      <point x="974" y="828"/>
      <point x="930" y="772" type="curve" smooth="yes"/>
      <point x="906" y="743"/>
      <point x="875" y="707"/>
      <point x="828" y="659" type="curve" smooth="yes"/>
      <point x="781" y="610"/>
      <point x="720" y="547"/>
      <point x="639" y="466" type="curve" smooth="yes"/>
      <point x="566" y="391"/>
      <point x="520" y="354"/>
      <point x="486" y="328" type="curve" smooth="yes"/>
      <point x="469" y="315"/>
      <point x="454" y="303"/>
      <point x="442" y="294" type="curve"/>
      <point x="429" y="285"/>
      <point x="417" y="273"/>
      <point x="404" y="260" type="curve"/>
      <point x="1063" y="260" type="line"/>
      <point x="1063" y="0" type="line"/>
      <point x="115" y="0" type="line"/>
    </contour>
  </outline>
</glyph>
<glyph name="three" format="1">
  <advance width="1233"/>
  <unicode hex="0033"/>
  <note>
	three
  </note>
  <outline>
    <contour>
      <point x="484" y="-29"/>
      <point x="408" y="-23"/>
      <point x="335" y="-10" type="curve" smooth="yes"/>
      <point x="267" y="2"/>
      <point x="196" y="20"/>
      <point x="125" y="45" type="curve"/>
      <point x="125" y="319" type="line"/>
      <point x="186" y="288"/>
      <point x="253" y="264"/>
      <point x="328" y="248" type="curve" smooth="yes"/>
      <point x="404" y="231"/>
      <point x="480" y="223"/>
      <point x="541" y="223" type="curve" smooth="yes"/>
      <point x="629" y="223"/>
      <point x="699" y="239"/>
      <point x="748" y="278" type="curve" smooth="yes"/>
      <point x="796" y="317"/>
      <point x="817" y="371"/>
      <point x="817" y="435" type="curve" smooth="yes"/>
      <point x="817" y="503"/>
      <point x="794" y="563"/>
      <point x="747" y="606" type="curve" smooth="yes"/>
      <point x="703" y="645"/>
      <point x="637" y="668"/>
      <point x="549" y="668" type="curve" smooth="yes"/>
      <point x="391" y="668" type="line"/>
      <point x="391" y="928" type="line"/>
      <point x="549" y="928" type="line" smooth="yes"/>
      <point x="622" y="928"/>
      <point x="679" y="943"/>
      <point x="720" y="972" type="curve" smooth="yes"/>
      <point x="763" y="1003"/>
      <point x="780" y="1044"/>
      <point x="780" y="1095" type="curve" smooth="yes"/>
      <point x="780" y="1150"/>
      <point x="760" y="1193"/>
      <point x="720" y="1224" type="curve" smooth="yes"/>
      <point x="681" y="1255"/>
      <point x="626" y="1270"/>
      <point x="547" y="1270" type="curve" smooth="yes"/>
      <point x="495" y="1270"/>
      <point x="433" y="1264"/>
      <point x="369" y="1249" type="curve" smooth="yes"/>
      <point x="309" y="1236"/>
      <point x="239" y="1215"/>
      <point x="170" y="1188" type="curve"/>
      <point x="170" y="1456" type="line"/>
      <point x="240" y="1477"/>
      <point x="308" y="1493"/>
      <point x="373" y="1504" type="curve" smooth="yes"/>
      <point x="441" y="1515"/>
      <point x="504" y="1520"/>
      <point x="564" y="1520" type="curve" smooth="yes"/>
      <point x="881" y="1520"/>
      <point x="1065" y="1373"/>
      <point x="1065" y="1133" type="curve" smooth="yes"/>
      <point x="1065" y="1048"/>
      <point x="1044" y="976"/>
      <point x="989" y="916" type="curve" smooth="yes"/>
      <point x="938" y="859"/>
      <point x="865" y="822"/>
      <point x="772" y="805" type="curve"/>
      <point x="879" y="786"/>
      <point x="960" y="744"/>
      <point x="1016" y="678" type="curve" smooth="yes"/>
      <point x="1072" y="613"/>
      <point x="1100" y="527"/>
      <point x="1100" y="414" type="curve" smooth="yes"/>
      <point x="1100" y="273"/>
      <point x="1054" y="161"/>
      <point x="962" y="85" type="curve" smooth="yes"/>
      <point x="870" y="9"/>
      <point x="734" y="-29"/>
      <point x="555" y="-29" type="curve" smooth="yes"/>
    </contour>
  </outline>
</glyph>
<glyph name="seven" format="1">
  <advance width="1233"/>
  <unicode hex="0037"/>
  <note>
	seven
  </note>
  <outline>
    <contour>
      <point x="758" y="1233" type="line"/>
      <point x="135" y="1233" type="line"/>
      <point x="135" y="1493" type="line"/>
      <point x="1079" y="1493" type="line"/>
      <point x="1079" y="1284" type="line"/>
      <point x="573" y="0" type="line"/>
      <point x="272" y="0" type="line"/>
    </contour>
  </outline>
</glyph>
<glyph name="question" format="1">
  <advance width="1233"/>
  <unicode hex="003F"/>
  <note>
	question
  </note>
  <outline>
    <contour>
      <point x="479" y="583" type="line" smooth="yes"/>
      <point x="479" y="638"/>
      <point x="489" y="689"/>
      <point x="510" y="735" type="curve" smooth="yes"/>
      <point x="533" y="784"/>
      <point x="568" y="832"/>
      <point x="628" y="891" type="curve" smooth="yes"/>
      <point x="718" y="980" type="line" smooth="yes"/>
      <point x="733" y="995"/>
      <point x="754" y="1016"/>
      <point x="769" y="1035" type="curve" smooth="yes"/>
      <point x="784" y="1053"/>
      <point x="795" y="1068"/>
      <point x="801" y="1079" type="curve"/>
      <point x="808" y="1090"/>
      <point x="814" y="1106"/>
      <point x="818" y="1121" type="curve"/>
      <point x="821" y="1129"/>
      <point x="823" y="1148"/>
      <point x="823" y="1165" type="curve" smooth="yes"/>
      <point x="823" y="1176"/>
      <point x="823" y="1194"/>
      <point x="820" y="1205" type="curve"/>
      <point x="819" y="1210"/>
      <point x="814" y="1229"/>
      <point x="809" y="1240" type="curve" smooth="yes"/>
      <point x="804" y="1252"/>
      <point x="798" y="1259"/>
      <point x="790" y="1270" type="curve" smooth="yes"/>
      <point x="782" y="1281"/>
      <point x="775" y="1287"/>
      <point x="763" y="1298" type="curve"/>
      <point x="744" y="1313"/>
      <point x="730" y="1321"/>
      <point x="718" y="1326" type="curve" smooth="yes"/>
      <point x="711" y="1329"/>
      <point x="686" y="1339"/>
      <point x="663" y="1343" type="curve" smooth="yes"/>
      <point x="643" y="1347"/>
      <point x="622" y="1349"/>
      <point x="599" y="1349" type="curve" smooth="yes"/>
      <point x="584" y="1349"/>
      <point x="562" y="1349"/>
      <point x="547" y="1346" type="curve"/>
      <point x="540" y="1345"/>
      <point x="531" y="1343"/>
      <point x="522" y="1342" type="curve"/>
      <point x="503" y="1338"/>
      <point x="485" y="1333"/>
      <point x="463" y="1326" type="curve"/>
      <point x="452" y="1322"/>
      <point x="443" y="1319"/>
      <point x="436" y="1316" type="curve"/>
      <point x="384" y="1296"/>
      <point x="317" y="1260"/>
      <point x="253" y="1215" type="curve" smooth="yes"/>
      <point x="229" y="1198" type="line"/>
      <point x="229" y="1423" type="line"/>
      <point x="236" y="1428" type="line"/>
      <point x="364" y="1505"/>
      <point x="491" y="1543"/>
      <point x="632" y="1543" type="curve" smooth="yes"/>
      <point x="763" y="1543"/>
      <point x="861" y="1508"/>
      <point x="940" y="1443" type="curve" smooth="yes"/>
      <point x="976" y="1412"/>
      <point x="1006" y="1373"/>
      <point x="1026" y="1326" type="curve" smooth="yes"/>
      <point x="1045" y="1280"/>
      <point x="1055" y="1230"/>
      <point x="1055" y="1177" type="curve" smooth="yes"/>
      <point x="1055" y="1122"/>
      <point x="1043" y="1072"/>
      <point x="1019" y="1026" type="curve" smooth="yes"/>
      <point x="996" y="983"/>
      <point x="961" y="936"/>
      <point x="889" y="865" type="curve" smooth="yes"/>
      <point x="802" y="779" type="line" smooth="yes"/>
      <point x="773" y="751"/>
      <point x="763" y="740"/>
      <point x="747" y="721" type="curve" smooth="yes"/>
      <point x="740" y="713"/>
      <point x="735" y="705"/>
      <point x="730" y="697" type="curve" smooth="yes"/>
      <point x="720" y="680"/>
      <point x="711" y="667"/>
      <point x="704" y="638" type="curve"/>
      <point x="701" y="623"/>
      <point x="699" y="610"/>
      <point x="699" y="599" type="curve" smooth="yes"/>
      <point x="699" y="457" type="line"/>
      <point x="479" y="457" type="line"/>
    </contour>
    <contour>
      <point x="503" y="-50"/>
      <point x="431" y="20"/>
      <point x="431" y="117" type="curve" smooth="yes"/>
      <point x="431" y="166"/>
      <point x="447" y="208"/>
      <point x="478" y="239" type="curve" smooth="yes"/>
      <point x="510" y="270"/>
      <point x="552" y="284"/>
      <point x="592" y="284" type="curve" smooth="yes"/>
      <point x="603" y="284"/>
      <point x="614" y="283"/>
      <point x="625" y="281" type="curve"/>
      <point x="628" y="280"/>
      <point x="632" y="279"/>
      <point x="638" y="278" type="curve"/>
      <point x="649" y="275"/>
      <point x="658" y="271"/>
      <point x="669" y="265" type="curve"/>
      <point x="674" y="262"/>
      <point x="678" y="259"/>
      <point x="681" y="258" type="curve"/>
      <point x="686" y="255"/>
      <point x="695" y="248"/>
      <point x="706" y="237" type="curve" smooth="yes"/>
      <point x="719" y="224"/>
      <point x="732" y="207"/>
      <point x="741" y="184" type="curve" smooth="yes"/>
      <point x="749" y="164"/>
      <point x="753" y="142"/>
      <point x="753" y="118" type="curve" smooth="yes"/>
      <point x="753" y="19"/>
      <point x="681" y="-50"/>
      <point x="592" y="-50" type="curve" smooth="yes"/>
    </contour>
  </outline>
</glyph>
<glyph name="at" format="1">
  <advance width="1233"/>
  <unicode hex="0040"/>
  <note>
	at
  </note>
  <outline>
    <contour>
      <point x="539" y="-319"/>
      <point x="354" y="-242"/>
      <point x="214" y="-86" type="curve" smooth="yes"/>
      <point x="75" y="69"/>
      <point x="6" y="279"/>
      <point x="6" y="546" type="curve" smooth="yes"/>
      <point x="6" y="802"/>
      <point x="68" y="1007"/>
      <point x="193" y="1163" type="curve" smooth="yes"/>
      <point x="318" y="1319"/>
      <point x="484" y="1395"/>
      <point x="683" y="1395" type="curve" smooth="yes"/>
      <point x="840" y="1395"/>
      <point x="953" y="1348"/>
      <point x="1033" y="1264" type="curve" smooth="yes"/>
      <point x="1117" y="1176"/>
      <point x="1159" y="1056"/>
      <point x="1159" y="905" type="curve" smooth="yes"/>
      <point x="1159" y="135" type="line"/>
      <point x="963" y="135" type="line"/>
      <point x="963" y="217" type="line"/>
      <point x="934" y="177"/>
      <point x="905" y="155"/>
      <point x="874" y="140" type="curve" smooth="yes"/>
      <point x="840" y="123"/>
      <point x="798" y="115"/>
      <point x="749" y="115" type="curve" smooth="yes"/>
      <point x="532" y="115"/>
      <point x="385" y="287"/>
      <point x="385" y="546" type="curve" smooth="yes"/>
      <point x="385" y="678"/>
      <point x="420" y="780"/>
      <point x="485" y="856" type="curve" smooth="yes"/>
      <point x="552" y="934"/>
      <point x="639" y="973"/>
      <point x="748" y="973" type="curve" smooth="yes"/>
      <point x="793" y="973"/>
      <point x="838" y="966"/>
      <point x="875" y="949" type="curve" smooth="yes"/>
      <point x="910" y="933"/>
      <point x="942" y="906"/>
      <point x="963" y="877" type="curve"/>
      <point x="963" y="918" type="line" smooth="yes"/>
      <point x="963" y="1099"/>
      <point x="858" y="1202"/>
      <point x="679" y="1202" type="curve" smooth="yes"/>
      <point x="535" y="1202"/>
      <point x="419" y="1136"/>
      <point x="336" y="1020" type="curve" smooth="yes"/>
      <point x="255" y="907"/>
      <point x="205" y="743"/>
      <point x="205" y="544" type="curve" smooth="yes"/>
      <point x="205" y="329"/>
      <point x="264" y="165"/>
      <point x="356" y="54" type="curve" smooth="yes"/>
      <point x="460" y="-70"/>
      <point x="604" y="-127"/>
      <point x="757" y="-127" type="curve" smooth="yes"/>
      <point x="810" y="-127"/>
      <point x="866" y="-120"/>
      <point x="917" y="-104" type="curve" smooth="yes"/>
      <point x="965" y="-89"/>
      <point x="1014" y="-64"/>
      <point x="1061" y="-33" type="curve"/>
      <point x="1153" y="-209" type="line"/>
      <point x="1097" y="-248"/>
      <point x="1033" y="-276"/>
      <point x="977" y="-292" type="curve" smooth="yes"/>
      <point x="918" y="-309"/>
      <point x="848" y="-319"/>
      <point x="767" y="-319" type="curve" smooth="yes"/>
    </contour>
    <contour>
      <point x="901" y="303"/>
      <point x="973" y="393"/>
      <point x="973" y="545" type="curve" smooth="yes"/>
      <point x="973" y="694"/>
      <point x="901" y="786"/>
      <point x="782" y="786" type="curve" smooth="yes"/>
      <point x="715" y="786"/>
      <point x="674" y="761"/>
      <point x="643" y="722" type="curve" smooth="yes"/>
      <point x="609" y="679"/>
      <point x="592" y="620"/>
      <point x="592" y="545" type="curve" smooth="yes"/>
      <point x="592" y="469"/>
      <point x="609" y="410"/>
      <point x="643" y="367" type="curve" smooth="yes"/>
      <point x="674" y="328"/>
      <point x="715" y="303"/>
      <point x="782" y="303" type="curve" smooth="yes"/>
    </contour>
  </outline>
</glyph>
<glyph name="H" format="1">
  <advance width="1233"/>
  <unicode hex="0048"/>
  <note>
	H
  </note>
  <outline>
    <contour>
      <point x="137" y="1493" type="line"/>
      <point x="432" y="1493" type="line"/>
      <point x="432" y="924" type="line"/>
      <point x="801" y="924" type="line"/>
      <point x="801" y="1493" type="line"/>
      <point x="1096" y="1493" type="line"/>
      <point x="1096" y="0" type="line"/>
      <point x="801" y="0" type="line"/>
      <point x="801" y="664" type="line"/>
      <point x="432" y="664" type="line"/>
      <point x="432" y="0" type="line"/>
      <point x="137" y="0" type="line"/>
    </contour>
  </outline>
</glyph>
<glyph name="J" format="1">
  <advance width="1233"/>
  <unicode hex="004A"/>
  <note>
	J
  </note>
  <outline>
    <contour>
      <point x="447" y="-29"/>
      <point x="387" y="-20"/>
      <point x="318" y="-3" type="curve" smooth="yes"/>
      <point x="250" y="14"/>
      <point x="184" y="38"/>
      <point x="109" y="74" type="curve"/>
      <point x="109" y="416" type="line"/>
      <point x="166" y="356"/>
      <point x="228" y="313"/>
      <point x="293" y="282" type="curve" smooth="yes"/>
      <point x="357" y="251"/>
      <point x="423" y="236"/>
      <point x="490" y="236" type="curve" smooth="yes"/>
      <point x="643" y="236"/>
      <point x="713" y="310"/>
      <point x="713" y="479" type="curve" smooth="yes"/>
      <point x="713" y="1233" type="line"/>
      <point x="352" y="1233" type="line"/>
      <point x="352" y="1493" type="line"/>
      <point x="1008" y="1493" type="line"/>
      <point x="1008" y="479" type="line" smooth="yes"/>
      <point x="1008" y="297"/>
      <point x="970" y="167"/>
      <point x="894" y="89" type="curve" smooth="yes"/>
      <point x="817" y="9"/>
      <point x="685" y="-29"/>
      <point x="524" y="-29" type="curve" smooth="yes"/>
    </contour>
  </outline>
</glyph>
<glyph name="Z" format="1">
  <advance width="1233"/>
  <unicode hex="005A"/>
  <note>
	Z
  </note>
  <outline>
    <contour>
      <point x="94" y="244" type="line"/>
      <point x="765" y="1233" type="line"/>
      <point x="116" y="1233" type="line"/>
      <point x="116" y="1493" type="line"/>
      <point x="1126" y="1493" type="line"/>
      <point x="1126" y="1249" type="line"/>
      <point x="434" y="260" type="line"/>
      <point x="1140" y="260" type="line"/>
      <point x="1140" y="0" type="line"/>
      <point x="94" y="0" type="line"/>
    </contour>
  </outline>
</glyph>
<glyph name="backslash" format="1">
  <advance width="1233"/>
  <unicode hex="005C"/>
  <note>
	backslash
  </note>
  <outline>
    <contour>
      <point x="111" y="1493" type="line"/>
      <point x="334" y="1493" type="line"/>
      <point x="1120" y="-190" type="line"/>
      <point x="897" y="-190" type="line"/>
    </contour>
  </outline>
</glyph>
<glyph name="grave" format="1">
  <advance width="1233"/>
  <unicode hex="0060"/>
  <note>
	grave
  </note>
  <outline>
    <contour>
      <point x="199" y="1638" type="line"/>
      <point x="481" y="1638" type="line"/>
      <point x="764" y="1262" type="line"/>
      <point x="567" y="1262" type="line"/>
    </contour>
  </outline>
</glyph>
<glyph name="b" format="1">
  <advance width="1233"/>
  <unicode hex="0062"/>
  <note>
	b
  </note>
  <outline>
    <contour>
      <point x="603" y="-29"/>
      <point x="503" y="37"/>
      <point x="442" y="166" type="curve"/>
      <point x="413" y="0" type="line"/>
      <point x="150" y="0" type="line"/>
      <point x="150" y="1556" type="line"/>
      <point x="442" y="1556" type="line"/>
      <point x="442" y="961" type="line"/>
      <point x="478" y="1024"/>
      <point x="520" y="1070"/>
      <point x="568" y="1101" type="curve" smooth="yes"/>
      <point x="615" y="1132"/>
      <point x="667" y="1147"/>
      <point x="735" y="1147" type="curve" smooth="yes"/>
      <point x="863" y="1147"/>
      <point x="965" y="1095"/>
      <point x="1036" y="995" type="curve" smooth="yes"/>
      <point x="1104" y="899"/>
      <point x="1143" y="755"/>
      <point x="1143" y="560" type="curve" smooth="yes"/>
      <point x="1143" y="377"/>
      <point x="1109" y="228"/>
      <point x="1037" y="124" type="curve" smooth="yes"/>
      <point x="965" y="21"/>
      <point x="865" y="-29"/>
      <point x="740" y="-29" type="curve" smooth="yes"/>
    </contour>
    <contour>
      <point x="774" y="211"/>
      <point x="850" y="340"/>
      <point x="850" y="557" type="curve" smooth="yes"/>
      <point x="850" y="773"/>
      <point x="774" y="903"/>
      <point x="647" y="903" type="curve" smooth="yes"/>
      <point x="522" y="903"/>
      <point x="442" y="774"/>
      <point x="442" y="557" type="curve" smooth="yes"/>
      <point x="442" y="340"/>
      <point x="522" y="211"/>
      <point x="647" y="211" type="curve" smooth="yes"/>
    </contour>
  </outline>
</glyph>
<glyph name="f" format="1">
  <advance width="1233"/>
  <unicode hex="0066"/>
  <note>
	f
  </note>
  <outline>
    <contour>
      <point x="426" y="895" type="line"/>
      <point x="154" y="895" type="line"/>
      <point x="154" y="1120" type="line"/>
      <point x="426" y="1120" type="line"/>
      <point x="426" y="1198" type="line" smooth="yes"/>
      <point x="426" y="1467"/>
      <point x="518" y="1556"/>
      <point x="822" y="1556" type="curve" smooth="yes"/>
      <point x="1063" y="1556" type="line"/>
      <point x="1063" y="1331" type="line"/>
      <point x="834" y="1331" type="line" smooth="yes"/>
      <point x="789" y="1331"/>
      <point x="760" y="1323"/>
      <point x="745" y="1307" type="curve" smooth="yes"/>
      <point x="729" y="1291"/>
      <point x="719" y="1257"/>
      <point x="719" y="1218" type="curve" smooth="yes"/>
      <point x="719" y="1120" type="line"/>
      <point x="1063" y="1120" type="line"/>
      <point x="1063" y="895" type="line"/>
      <point x="719" y="895" type="line"/>
      <point x="719" y="0" type="line"/>
      <point x="426" y="0" type="line"/>
    </contour>
  </outline>
</glyph>
<glyph name="g" format="1">
  <advance width="1233"/>
  <unicode hex="0067"/>
  <note>
	g
  </note>
  <outline>
    <contour>
      <point x="519" y="-424"/>
      <point x="458" y="-420"/>
      <point x="398" y="-411" type="curve" smooth="yes"/>
      <point x="338" y="-402"/>
      <point x="277" y="-388"/>
      <point x="215" y="-369" type="curve"/>
      <point x="215" y="-100" type="line"/>
      <point x="271" y="-131"/>
      <point x="329" y="-153"/>
      <point x="384" y="-168" type="curve" smooth="yes"/>
      <point x="441" y="-183"/>
      <point x="501" y="-190"/>
      <point x="556" y="-190" type="curve" smooth="yes"/>
      <point x="647" y="-190"/>
      <point x="705" y="-171"/>
      <point x="744" y="-132" type="curve" smooth="yes"/>
      <point x="783" y="-93"/>
      <point x="803" y="-32"/>
      <point x="803" y="51" type="curve" smooth="yes"/>
      <point x="803" y="172" type="line"/>
      <point x="744" y="65"/>
      <point x="652" y="14"/>
      <point x="517" y="14" type="curve" smooth="yes"/>
      <point x="388" y="14"/>
      <point x="286" y="64"/>
      <point x="211" y="164" type="curve" smooth="yes"/>
      <point x="135" y="264"/>
      <point x="98" y="398"/>
      <point x="98" y="573" type="curve" smooth="yes"/>
      <point x="98" y="748"/>
      <point x="136" y="888"/>
      <point x="211" y="993" type="curve" smooth="yes"/>
      <point x="287" y="1097"/>
      <point x="387" y="1149"/>
      <point x="512" y="1149" type="curve" smooth="yes"/>
      <point x="643" y="1149"/>
      <point x="746" y="1086"/>
      <point x="803" y="977" type="curve"/>
      <point x="832" y="1120" type="line"/>
      <point x="1096" y="1120" type="line"/>
      <point x="1096" y="84" type="line" smooth="yes"/>
      <point x="1096" y="-275"/>
      <point x="945" y="-424"/>
      <point x="578" y="-424" type="curve" smooth="yes"/>
    </contour>
    <contour>
      <point x="720" y="246"/>
      <point x="769" y="363"/>
      <point x="789" y="441" type="curve" smooth="yes"/>
      <point x="798" y="480"/>
      <point x="803" y="525"/>
      <point x="803" y="577" type="curve" smooth="yes"/>
      <point x="803" y="676"/>
      <point x="785" y="756"/>
      <point x="746" y="819" type="curve" smooth="yes"/>
      <point x="708" y="879"/>
      <point x="658" y="909"/>
      <point x="596" y="909" type="curve" smooth="yes"/>
      <point x="473" y="909"/>
      <point x="391" y="779"/>
      <point x="391" y="578" type="curve" smooth="yes"/>
      <point x="391" y="375"/>
      <point x="473" y="246"/>
      <point x="596" y="246" type="curve" smooth="yes"/>
    </contour>
  </outline>
</glyph>
<glyph name="h" format="1">
  <advance width="1233"/>
  <unicode hex="0068"/>
  <note>
	h
  </note>
  <outline>
    <contour>
      <point x="172" y="1556" type="line"/>
      <point x="463" y="1556" type="line"/>
      <point x="463" y="952" type="line"/>
      <point x="506" y="1076"/>
      <point x="608" y="1147"/>
      <point x="751" y="1147" type="curve" smooth="yes"/>
      <point x="962" y="1147"/>
      <point x="1071" y="1004"/>
      <point x="1071" y="727" type="curve" smooth="yes"/>
      <point x="1071" y="0" type="line"/>
      <point x="780" y="0" type="line"/>
      <point x="780" y="682" type="line" smooth="yes"/>
      <point x="780" y="763"/>
      <point x="769" y="820"/>
      <point x="746" y="855" type="curve" smooth="yes"/>
      <point x="723" y="890"/>
      <point x="684" y="907"/>
      <point x="635" y="907" type="curve" smooth="yes"/>
      <point x="526" y="907"/>
      <point x="463" y="808"/>
      <point x="463" y="641" type="curve" smooth="yes"/>
      <point x="463" y="0" type="line"/>
      <point x="172" y="0" type="line"/>
    </contour>
  </outline>
</glyph>
<glyph name="l" format="1">
  <advance width="1233"/>
  <unicode hex="006C"/>
  <note>
	l
  </note>
  <outline>
    <contour>
      <point x="509" y="-8"/>
      <point x="397" y="123"/>
      <point x="397" y="459" type="curve" smooth="yes"/>
      <point x="397" y="1331" type="line"/>
      <point x="100" y="1331" type="line"/>
      <point x="100" y="1556" type="line"/>
      <point x="690" y="1556" type="line"/>
      <point x="690" y="459" type="line" smooth="yes"/>
      <point x="690" y="284"/>
      <point x="738" y="217"/>
      <point x="870" y="217" type="curve" smooth="yes"/>
      <point x="1104" y="217" type="line"/>
      <point x="1104" y="-8" type="line"/>
      <point x="788" y="-8" type="line" smooth="yes"/>
    </contour>
  </outline>
</glyph>
<glyph name="n" format="1">
  <advance width="1233"/>
  <unicode hex="006E"/>
  <note>
	n
  </note>
  <outline>
    <contour>
      <point x="172" y="1120" type="line"/>
      <point x="434" y="1120" type="line"/>
      <point x="463" y="952" type="line"/>
      <point x="506" y="1076"/>
      <point x="608" y="1147"/>
      <point x="751" y="1147" type="curve" smooth="yes"/>
      <point x="962" y="1147"/>
      <point x="1071" y="1004"/>
      <point x="1071" y="727" type="curve" smooth="yes"/>
      <point x="1071" y="0" type="line"/>
      <point x="780" y="0" type="line"/>
      <point x="780" y="682" type="line" smooth="yes"/>
      <point x="780" y="764"/>
      <point x="769" y="822"/>
      <point x="746" y="857" type="curve" smooth="yes"/>
      <point x="723" y="892"/>
      <point x="684" y="909"/>
      <point x="636" y="909" type="curve" smooth="yes"/>
      <point x="579" y="909"/>
      <point x="540" y="885"/>
      <point x="509" y="838" type="curve" smooth="yes"/>
      <point x="480" y="793"/>
      <point x="463" y="733"/>
      <point x="463" y="641" type="curve" smooth="yes"/>
      <point x="463" y="0" type="line"/>
      <point x="172" y="0" type="line"/>
    </contour>
  </outline>
</glyph>
<glyph name="q" format="1">
  <advance width="1233"/>
  <unicode hex="0071"/>
  <note>
	q
  </note>
  <outline>
    <contour>
      <point x="791" y="158" type="line"/>
      <point x="756" y="97"/>
      <point x="714" y="50"/>
      <point x="666" y="18" type="curve" smooth="yes"/>
      <point x="618" y="-14"/>
      <point x="567" y="-29"/>
      <point x="499" y="-29" type="curve" smooth="yes"/>
      <point x="375" y="-29"/>
      <point x="273" y="19"/>
      <point x="198" y="123" type="curve" smooth="yes"/>
      <point x="126" y="224"/>
      <point x="90" y="370"/>
      <point x="90" y="558" type="curve" smooth="yes"/>
      <point x="90" y="747"/>
      <point x="125" y="892"/>
      <point x="196" y="994" type="curve" smooth="yes"/>
      <point x="268" y="1097"/>
      <point x="368" y="1147"/>
      <point x="492" y="1147" type="curve" smooth="yes"/>
      <point x="561" y="1147"/>
      <point x="621" y="1131"/>
      <point x="670" y="1098" type="curve" smooth="yes"/>
      <point x="718" y="1066"/>
      <point x="760" y="1017"/>
      <point x="791" y="952" type="curve"/>
      <point x="820" y="1120" type="line"/>
      <point x="1083" y="1120" type="line"/>
      <point x="1083" y="-426" type="line"/>
      <point x="791" y="-426" type="line"/>
    </contour>
    <contour>
      <point x="711" y="215"/>
      <point x="791" y="344"/>
      <point x="791" y="561" type="curve" smooth="yes"/>
      <point x="791" y="778"/>
      <point x="711" y="907"/>
      <point x="586" y="907" type="curve" smooth="yes"/>
      <point x="459" y="907"/>
      <point x="383" y="777"/>
      <point x="383" y="561" type="curve" smooth="yes"/>
      <point x="383" y="344"/>
      <point x="459" y="215"/>
      <point x="586" y="215" type="curve" smooth="yes"/>
    </contour>
  </outline>
</glyph>
<glyph name="t" format="1">
  <advance width="1233"/>
  <unicode hex="0074"/>
  <note>
	t
  </note>
  <outline>
    <contour>
      <point x="490" y="-4"/>
      <point x="397" y="84"/>
      <point x="397" y="375" type="curve" smooth="yes"/>
      <point x="397" y="895" type="line"/>
      <point x="111" y="895" type="line"/>
      <point x="111" y="1120" type="line"/>
      <point x="397" y="1120" type="line"/>
      <point x="397" y="1426" type="line"/>
      <point x="690" y="1556" type="line"/>
      <point x="690" y="1120" type="line"/>
      <point x="1073" y="1120" type="line"/>
      <point x="1073" y="895" type="line"/>
      <point x="690" y="895" type="line"/>
      <point x="690" y="361" type="line" smooth="yes"/>
      <point x="690" y="312"/>
      <point x="702" y="276"/>
      <point x="727" y="254" type="curve" smooth="yes"/>
      <point x="754" y="230"/>
      <point x="795" y="221"/>
      <point x="848" y="221" type="curve" smooth="yes"/>
      <point x="1073" y="221" type="line"/>
      <point x="1073" y="-4" type="line"/>
      <point x="827" y="-4" type="line" smooth="yes"/>
    </contour>
  </outline>
</glyph>
<glyph name="braceleft" format="1">
  <advance width="1233"/>
  <unicode hex="007B"/>
  <note>
	braceleft
  </note>
  <outline>
    <contour>
      <point x="522" y="-334"/>
      <point x="435" y="-261"/>
      <point x="435" y="35" type="curve" smooth="yes"/>
      <point x="435" y="250" type="line" smooth="yes"/>
      <point x="435" y="343"/>
      <point x="419" y="419"/>
      <point x="382" y="459" type="curve" smooth="yes"/>
      <point x="346" y="498"/>
      <point x="277" y="516"/>
      <point x="188" y="516" type="curve" smooth="yes"/>
      <point x="96" y="516" type="line"/>
      <point x="96" y="707" type="line"/>
      <point x="188" y="707" type="line" smooth="yes"/>
      <point x="375" y="707"/>
      <point x="435" y="772"/>
      <point x="435" y="973" type="curve" smooth="yes"/>
      <point x="435" y="1188" type="line" smooth="yes"/>
      <point x="435" y="1484"/>
      <point x="520" y="1556"/>
      <point x="853" y="1556" type="curve" smooth="yes"/>
      <point x="1003" y="1556" type="line"/>
      <point x="1003" y="1366" type="line"/>
      <point x="880" y="1366" type="line" smooth="yes"/>
      <point x="740" y="1366"/>
      <point x="706" y="1328"/>
      <point x="706" y="1139" type="curve" smooth="yes"/>
      <point x="706" y="930" type="line" smooth="yes"/>
      <point x="706" y="710"/>
      <point x="650" y="639"/>
      <point x="482" y="612" type="curve"/>
      <point x="649" y="584"/>
      <point x="706" y="511"/>
      <point x="706" y="291" type="curve" smooth="yes"/>
      <point x="706" y="86" type="line" smooth="yes"/>
      <point x="706" y="-105"/>
      <point x="740" y="-143"/>
      <point x="880" y="-143" type="curve" smooth="yes"/>
      <point x="1003" y="-143" type="line"/>
      <point x="1003" y="-334" type="line"/>
      <point x="853" y="-334" type="line" smooth="yes"/>
    </contour>
  </outline>
</glyph>
<glyph name="asciitilde" format="1">
  <advance width="1233"/>
  <unicode hex="007E"/>
  <note>
	asciitilde
  </note>
  <outline>
    <contour>
      <point x="1165" y="873" type="line"/>
      <point x="1162" y="784"/>
      <point x="1157" y="709"/>
      <point x="1146" y="645" type="curve" smooth="yes"/>
      <point x="1135" y="581"/>
      <point x="1119" y="527"/>
      <point x="1094" y="483" type="curve"/>
      <point x="1095" y="486" type="line"/>
      <point x="1042" y="378"/>
      <point x="953" y="324"/>
      <point x="830" y="324" type="curve" smooth="yes"/>
      <point x="713" y="324"/>
      <point x="644" y="363"/>
      <point x="545" y="500" type="curve" smooth="yes"/>
      <point x="499" y="565"/>
      <point x="467" y="604"/>
      <point x="448" y="619" type="curve"/>
      <point x="431" y="630"/>
      <point x="417" y="637"/>
      <point x="404" y="637" type="curve" smooth="yes"/>
      <point x="375" y="637"/>
      <point x="356" y="624"/>
      <point x="345" y="597" type="curve"/>
      <point x="345" y="598" type="line"/>
      <point x="326" y="553"/>
      <point x="313" y="463"/>
      <point x="307" y="330" type="curve"/>
      <point x="68" y="330" type="line"/>
      <point x="72" y="499"/>
      <point x="96" y="628"/>
      <point x="139" y="717" type="curve"/>
      <point x="200" y="824"/>
      <point x="287" y="877"/>
      <point x="399" y="877" type="curve" smooth="yes"/>
      <point x="454" y="877"/>
      <point x="503" y="864"/>
      <point x="546" y="837" type="curve" smooth="yes"/>
      <point x="590" y="810"/>
      <point x="640" y="763"/>
      <point x="684" y="702" type="curve"/>
      <point x="683" y="703" type="line"/>
      <point x="717" y="657"/>
      <point x="748" y="620"/>
      <point x="777" y="591" type="curve" smooth="yes"/>
      <point x="795" y="573"/>
      <point x="812" y="564"/>
      <point x="827" y="564" type="curve" smooth="yes"/>
      <point x="861" y="564"/>
      <point x="885" y="589"/>
      <point x="900" y="640" type="curve" smooth="yes"/>
      <point x="915" y="690"/>
      <point x="923" y="768"/>
      <point x="924" y="873" type="curve"/>
    </contour>
  </outline>
</glyph>
<glyph name="cent" format="1">
  <advance width="1233"/>
  <unicode hex="00A2"/>
  <note>
	cent
  </note>
  <outline>
    <contour>
      <point x="655" y="-25" type="line"/>
      <point x="342" y="4"/>
      <point x="147" y="229"/>
      <point x="147" y="562" type="curve" smooth="yes"/>
      <point x="147" y="735"/>
      <point x="195" y="870"/>
      <point x="284" y="973" type="curve" smooth="yes"/>
      <point x="375" y="1077"/>
      <point x="498" y="1134"/>
      <point x="655" y="1145" type="curve"/>
      <point x="655" y="1432" type="line"/>
      <point x="797" y="1432" type="line"/>
      <point x="797" y="1145" type="line"/>
      <point x="838" y="1142"/>
      <point x="878" y="1135"/>
      <point x="917" y="1124" type="curve" smooth="yes"/>
      <point x="964" y="1111"/>
      <point x="997" y="1096"/>
      <point x="1036" y="1077" type="curve"/>
      <point x="1036" y="809" type="line"/>
      <point x="997" y="838"/>
      <point x="952" y="863"/>
      <point x="920" y="876" type="curve" smooth="yes"/>
      <point x="885" y="891"/>
      <point x="840" y="902"/>
      <point x="797" y="907" type="curve"/>
      <point x="797" y="215" type="line"/>
      <point x="841" y="218"/>
      <point x="884" y="229"/>
      <point x="921" y="244" type="curve" smooth="yes"/>
      <point x="960" y="260"/>
      <point x="999" y="282"/>
      <point x="1036" y="311" type="curve"/>
      <point x="1036" y="43" type="line"/>
      <point x="997" y="22"/>
      <point x="964" y="8"/>
      <point x="924" y="-3" type="curve" smooth="yes"/>
      <point x="882" y="-15"/>
      <point x="840" y="-22"/>
      <point x="797" y="-25" type="curve"/>
      <point x="797" y="-313" type="line"/>
      <point x="655" y="-313" type="line"/>
    </contour>
    <contour>
      <point x="655" y="907" type="line"/>
      <point x="580" y="898"/>
      <point x="521" y="864"/>
      <point x="480" y="804" type="curve" smooth="yes"/>
      <point x="440" y="745"/>
      <point x="418" y="665"/>
      <point x="418" y="560" type="curve" smooth="yes"/>
      <point x="418" y="460"/>
      <point x="438" y="378"/>
      <point x="481" y="314" type="curve" smooth="yes"/>
      <point x="523" y="252"/>
      <point x="581" y="219"/>
      <point x="655" y="215" type="curve"/>
    </contour>
  </outline>
</glyph>
<glyph name="yen" format="1">
  <advance width="1233"/>
  <unicode hex="00A5"/>
  <note>
	yen
  </note>
  <outline>
    <contour>
      <point x="469" y="438" type="line"/>
      <point x="57" y="438" type="line"/>
      <point x="57" y="627" type="line"/>
      <point x="465" y="627" type="line"/>
      <point x="379" y="778" type="line"/>
      <point x="57" y="778" type="line"/>
      <point x="57" y="965" type="line"/>
      <point x="281" y="965" type="line"/>
      <point x="8" y="1493" type="line"/>
      <point x="326" y="1493" type="line"/>
      <point x="616" y="893" type="line"/>
      <point x="907" y="1493" type="line"/>
      <point x="1225" y="1493" type="line"/>
      <point x="952" y="965" type="line"/>
      <point x="1176" y="965" type="line"/>
      <point x="1176" y="778" type="line"/>
      <point x="854" y="778" type="line"/>
      <point x="768" y="627" type="line"/>
      <point x="1176" y="627" type="line"/>
      <point x="1176" y="438" type="line"/>
      <point x="764" y="438" type="line"/>
      <point x="764" y="0" type="line"/>
      <point x="469" y="0" type="line"/>
    </contour>
  </outline>
</glyph>
<glyph name="dieresis" format="1">
  <advance width="1233"/>
  <unicode hex="00A8"/>
  <note>
	dieresis
  </note>
  <outline>
    <contour>
      <point x="331" y="1339" type="line" smooth="yes"/>
      <point x="311" y="1339"/>
      <point x="301" y="1349"/>
      <point x="301" y="1369" type="curve" smooth="yes"/>
      <point x="301" y="1555" type="line" smooth="yes"/>
      <point x="301" y="1575"/>
      <point x="311" y="1585"/>
      <point x="331" y="1585" type="curve" smooth="yes"/>
      <point x="507" y="1585" type="line" smooth="yes"/>
      <point x="527" y="1585"/>
      <point x="537" y="1575"/>
      <point x="537" y="1555" type="curve" smooth="yes"/>
      <point x="537" y="1369" type="line" smooth="yes"/>
      <point x="537" y="1349"/>
      <point x="527" y="1339"/>
      <point x="507" y="1339" type="curve" smooth="yes"/>
    </contour>
    <contour>
      <point x="726" y="1339" type="line" smooth="yes"/>
      <point x="706" y="1339"/>
      <point x="696" y="1349"/>
      <point x="696" y="1369" type="curve" smooth="yes"/>
      <point x="696" y="1555" type="line" smooth="yes"/>
      <point x="696" y="1575"/>
      <point x="706" y="1585"/>
      <point x="726" y="1585" type="curve" smooth="yes"/>
      <point x="902" y="1585" type="line" smooth="yes"/>
      <point x="922" y="1585"/>
      <point x="932" y="1575"/>
      <point x="932" y="1555" type="curve" smooth="yes"/>
      <point x="932" y="1369" type="line" smooth="yes"/>
      <point x="932" y="1349"/>
      <point x="922" y="1339"/>
      <point x="902" y="1339" type="curve" smooth="yes"/>
    </contour>
  </outline>
</glyph>
<glyph name="ordfeminine" format="1">
  <advance width="1233"/>
  <unicode hex="00AA"/>
  <note>
	ordfeminine
  </note>
  <outline>
    <contour>
      <point x="366" y="698"/>
      <point x="256" y="794"/>
      <point x="256" y="953" type="curve" smooth="yes"/>
      <point x="256" y="1042"/>
      <point x="289" y="1110"/>
      <point x="349" y="1153" type="curve" smooth="yes"/>
      <point x="410" y="1197"/>
      <point x="503" y="1219"/>
      <point x="629" y="1219" type="curve" smooth="yes"/>
      <point x="786" y="1219" type="line"/>
      <point x="786" y="1245" type="line" smooth="yes"/>
      <point x="786" y="1281"/>
      <point x="768" y="1304"/>
      <point x="741" y="1319" type="curve" smooth="yes"/>
      <point x="713" y="1334"/>
      <point x="669" y="1343"/>
      <point x="601" y="1343" type="curve" smooth="yes"/>
      <point x="550" y="1343"/>
      <point x="498" y="1338"/>
      <point x="451" y="1327" type="curve" smooth="yes"/>
      <point x="404" y="1316"/>
      <point x="358" y="1299"/>
      <point x="315" y="1276" type="curve"/>
      <point x="315" y="1464" type="line"/>
      <point x="351" y="1479"/>
      <point x="406" y="1495"/>
      <point x="462" y="1506" type="curve" smooth="yes"/>
      <point x="511" y="1515"/>
      <point x="561" y="1520"/>
      <point x="613" y="1520" type="curve" smooth="yes"/>
      <point x="864" y="1520"/>
      <point x="979" y="1409"/>
      <point x="979" y="1165" type="curve" smooth="yes"/>
      <point x="979" y="717" type="line"/>
      <point x="805" y="717" type="line"/>
      <point x="786" y="809" type="line"/>
      <point x="721" y="733"/>
      <point x="640" y="698"/>
      <point x="537" y="698" type="curve" smooth="yes"/>
    </contour>
    <contour>
      <point x="649" y="866"/>
      <point x="699" y="887"/>
      <point x="732" y="918" type="curve" smooth="yes"/>
      <point x="768" y="953"/>
      <point x="786" y="998"/>
      <point x="786" y="1049" type="curve" smooth="yes"/>
      <point x="786" y="1079" type="line"/>
      <point x="684" y="1079" type="line" smooth="yes"/>
      <point x="539" y="1079"/>
      <point x="475" y="1046"/>
      <point x="475" y="970" type="curve" smooth="yes"/>
      <point x="475" y="941"/>
      <point x="485" y="913"/>
      <point x="505" y="894" type="curve" smooth="yes"/>
      <point x="524" y="877"/>
      <point x="552" y="866"/>
      <point x="593" y="866" type="curve" smooth="yes"/>
    </contour>
    <contour>
      <point x="293" y="598" type="line"/>
      <point x="981" y="598" type="line"/>
      <point x="981" y="428" type="line"/>
      <point x="293" y="428" type="line"/>
    </contour>
  </outline>
</glyph>
<glyph name="macron" format="1">
  <advance width="1233"/>
  <unicode hex="00AF"/>
  <note>
	macron
  </note>
  <outline>
    <contour>
      <point x="301" y="1556" type="line"/>
      <point x="932" y="1556" type="line"/>
      <point x="932" y="1368" type="line"/>
      <point x="301" y="1368" type="line"/>
    </contour>
  </outline>
</glyph>
<glyph name="degree" format="1">
  <advance width="1233"/>
  <unicode hex="00B0"/>
  <note>
	degree
  </note>
  <outline>
    <contour>
      <point x="518" y="854"/>
      <point x="437" y="889"/>
      <point x="378" y="948" type="curve" smooth="yes"/>
      <point x="315" y="1011"/>
      <point x="283" y="1093"/>
      <point x="283" y="1185" type="curve" smooth="yes"/>
      <point x="283" y="1277"/>
      <point x="314" y="1360"/>
      <point x="378" y="1424" type="curve" smooth="yes"/>
      <point x="442" y="1488"/>
      <point x="524" y="1520"/>
      <point x="616" y="1520" type="curve" smooth="yes"/>
      <point x="661" y="1520"/>
      <point x="704" y="1512"/>
      <point x="744" y="1495" type="curve" smooth="yes"/>
      <point x="783" y="1479"/>
      <point x="821" y="1453"/>
      <point x="852" y="1422" type="curve" smooth="yes"/>
      <point x="883" y="1391"/>
      <point x="909" y="1350"/>
      <point x="924" y="1313" type="curve" smooth="yes"/>
      <point x="940" y="1274"/>
      <point x="948" y="1232"/>
      <point x="948" y="1188" type="curve" smooth="yes"/>
      <point x="948" y="1142"/>
      <point x="940" y="1099"/>
      <point x="923" y="1059" type="curve" smooth="yes"/>
      <point x="907" y="1020"/>
      <point x="884" y="984"/>
      <point x="852" y="952" type="curve" smooth="yes"/>
      <point x="821" y="921"/>
      <point x="782" y="896"/>
      <point x="743" y="880" type="curve" smooth="yes"/>
      <point x="702" y="863"/>
      <point x="660" y="854"/>
      <point x="613" y="854" type="curve" smooth="yes"/>
    </contour>
    <contour>
      <point x="710" y="1016"/>
      <point x="786" y="1092"/>
      <point x="786" y="1187" type="curve" smooth="yes"/>
      <point x="786" y="1283"/>
      <point x="711" y="1358"/>
      <point x="616" y="1358" type="curve" smooth="yes"/>
      <point x="520" y="1358"/>
      <point x="444" y="1282"/>
      <point x="444" y="1185" type="curve" smooth="yes"/>
      <point x="444" y="1090"/>
      <point x="518" y="1016"/>
      <point x="614" y="1016" type="curve" smooth="yes"/>
    </contour>
  </outline>
</glyph>
<glyph name="uni00B2" format="1">
  <advance width="1233"/>
  <unicode hex="00B2"/>
  <note>
	twosuperior
  </note>
  <outline>
    <contour>
      <point x="274" y="1261" type="line"/>
      <point x="291" y="1276"/>
      <point x="312" y="1293"/>
      <point x="335" y="1312" type="curve" smooth="yes"/>
      <point x="358" y="1331"/>
      <point x="385" y="1354"/>
      <point x="415" y="1379" type="curve" smooth="yes"/>
      <point x="521" y="1468"/>
      <point x="600" y="1540"/>
      <point x="652" y="1596" type="curve" smooth="yes"/>
      <point x="703" y="1652"/>
      <point x="729" y="1696"/>
      <point x="729" y="1727" type="curve" smooth="yes"/>
      <point x="729" y="1750"/>
      <point x="717" y="1781"/>
      <point x="686" y="1802" type="curve" smooth="yes"/>
      <point x="657" y="1822"/>
      <point x="618" y="1832"/>
      <point x="569" y="1832" type="curve" smooth="yes"/>
      <point x="529" y="1832"/>
      <point x="483" y="1826"/>
      <point x="444" y="1815" type="curve" smooth="yes"/>
      <point x="405" y="1804"/>
      <point x="347" y="1786"/>
      <point x="299" y="1763" type="curve"/>
      <point x="299" y="1927" type="line"/>
      <point x="342" y="1940"/>
      <point x="401" y="1954"/>
      <point x="445" y="1961" type="curve" smooth="yes"/>
      <point x="482" y="1968"/>
      <point x="535" y="1972"/>
      <point x="587" y="1972" type="curve" smooth="yes"/>
      <point x="695" y="1972"/>
      <point x="784" y="1952"/>
      <point x="845" y="1909" type="curve" smooth="yes"/>
      <point x="908" y="1866"/>
      <point x="938" y="1806"/>
      <point x="938" y="1753" type="curve" smooth="yes"/>
      <point x="938" y="1705"/>
      <point x="912" y="1648"/>
      <point x="856" y="1579" type="curve" smooth="yes"/>
      <point x="799" y="1510"/>
      <point x="710" y="1429"/>
      <point x="583" y="1330" type="curve" smooth="yes"/>
      <point x="564" y="1315"/>
      <point x="552" y="1306"/>
      <point x="547" y="1302" type="curve" smooth="yes"/>
      <point x="541" y="1297"/>
      <point x="537" y="1294"/>
      <point x="535" y="1293" type="curve" smooth="yes"/>
      <point x="533" y="1292"/>
      <point x="530" y="1290"/>
      <point x="527" y="1287" type="curve" smooth="yes"/>
      <point x="524" y="1284"/>
      <point x="515" y="1276"/>
      <point x="500" y="1265" type="curve"/>
      <point x="940" y="1265" type="line"/>
      <point x="940" y="1120" type="line"/>
      <point x="274" y="1120" type="line"/>
    </contour>
  </outline>
</glyph>
<glyph name="threesuperior" format="1">
  <advance width="1233"/>
  <unicode hex="00B3"/>
  <note>
	threesuperior
  </note>
  <outline>
    <contour>
      <point x="535" y="1113"/>
      <point x="487" y="1117"/>
      <point x="436" y="1124" type="curve" smooth="yes"/>
      <point x="385" y="1131"/>
      <point x="336" y="1141"/>
      <point x="287" y="1154" type="curve"/>
      <point x="287" y="1308" type="line"/>
      <point x="327" y="1292"/>
      <point x="374" y="1278"/>
      <point x="430" y="1267" type="curve" smooth="yes"/>
      <point x="481" y="1258"/>
      <point x="536" y="1253"/>
      <point x="580" y="1253" type="curve" smooth="yes"/>
      <point x="647" y="1253"/>
      <point x="687" y="1264"/>
      <point x="719" y="1285" type="curve" smooth="yes"/>
      <point x="750" y="1306"/>
      <point x="766" y="1336"/>
      <point x="766" y="1374" type="curve" smooth="yes"/>
      <point x="766" y="1454"/>
      <point x="697" y="1502"/>
      <point x="582" y="1502" type="curve" smooth="yes"/>
      <point x="471" y="1502" type="line"/>
      <point x="471" y="1648" type="line"/>
      <point x="582" y="1648" type="line" smooth="yes"/>
      <point x="681" y="1648"/>
      <point x="741" y="1683"/>
      <point x="741" y="1743" type="curve" smooth="yes"/>
      <point x="741" y="1768"/>
      <point x="731" y="1794"/>
      <point x="702" y="1813" type="curve" smooth="yes"/>
      <point x="675" y="1830"/>
      <point x="641" y="1838"/>
      <point x="586" y="1838" type="curve" smooth="yes"/>
      <point x="547" y="1838"/>
      <point x="501" y="1834"/>
      <point x="454" y="1827" type="curve" smooth="yes"/>
      <point x="407" y="1820"/>
      <point x="362" y="1808"/>
      <point x="317" y="1793" type="curve"/>
      <point x="317" y="1945" type="line"/>
      <point x="360" y="1956"/>
      <point x="407" y="1964"/>
      <point x="456" y="1971" type="curve" smooth="yes"/>
      <point x="503" y="1978"/>
      <point x="548" y="1980"/>
      <point x="591" y="1980" type="curve" smooth="yes"/>
      <point x="692" y="1980"/>
      <point x="783" y="1963"/>
      <point x="847" y="1922" type="curve" smooth="yes"/>
      <point x="907" y="1883"/>
      <point x="938" y="1830"/>
      <point x="938" y="1762" type="curve" smooth="yes"/>
      <point x="938" y="1665"/>
      <point x="867" y="1603"/>
      <point x="735" y="1580" type="curve"/>
      <point x="883" y="1560"/>
      <point x="963" y="1485"/>
      <point x="963" y="1360" type="curve" smooth="yes"/>
      <point x="963" y="1200"/>
      <point x="831" y="1113"/>
      <point x="588" y="1113" type="curve" smooth="yes"/>
    </contour>
  </outline>
</glyph>
<glyph name="mu" format="1">
  <advance width="1233"/>
  <unicode hex="00B5"/>
  <note>
	mu
  </note>
  <outline>
    <contour>
      <point x="154" y="1120" type="line"/>
      <point x="441" y="1120" type="line"/>
      <point x="441" y="440" type="line" smooth="yes"/>
      <point x="441" y="365"/>
      <point x="455" y="308"/>
      <point x="482" y="269" type="curve" smooth="yes"/>
      <point x="509" y="232"/>
      <point x="547" y="211"/>
      <point x="604" y="211" type="curve" smooth="yes"/>
      <point x="712" y="211"/>
      <point x="766" y="285"/>
      <point x="766" y="440" type="curve" smooth="yes"/>
      <point x="766" y="1120" type="line"/>
      <point x="1055" y="1120" type="line"/>
      <point x="1055" y="344" type="line" smooth="yes"/>
      <point x="1055" y="298"/>
      <point x="1060" y="264"/>
      <point x="1069" y="242" type="curve" smooth="yes"/>
      <point x="1078" y="221"/>
      <point x="1092" y="211"/>
      <point x="1113" y="211" type="curve" smooth="yes"/>
      <point x="1124" y="211"/>
      <point x="1129" y="213"/>
      <point x="1140" y="217" type="curve"/>
      <point x="1152" y="222"/>
      <point x="1155" y="224"/>
      <point x="1168" y="233" type="curve"/>
      <point x="1168" y="16" type="line"/>
      <point x="1135" y="-1"/>
      <point x="1115" y="-10"/>
      <point x="1088" y="-18" type="curve" smooth="yes"/>
      <point x="1063" y="-25"/>
      <point x="1041" y="-29"/>
      <point x="1014" y="-29" type="curve" smooth="yes"/>
      <point x="962" y="-29"/>
      <point x="927" y="-14"/>
      <point x="899" y="9" type="curve" smooth="yes"/>
      <point x="864" y="37"/>
      <point x="845" y="74"/>
      <point x="826" y="129" type="curve"/>
      <point x="775" y="25"/>
      <point x="703" y="-29"/>
      <point x="608" y="-29" type="curve" smooth="yes"/>
      <point x="531" y="-29"/>
      <point x="476" y="1"/>
      <point x="441" y="66" type="curve"/>
      <point x="443" y="-428" type="line"/>
      <point x="154" y="-428" type="line"/>
    </contour>
  </outline>
</glyph>
<glyph name="cedilla" format="1">
  <advance width="1233"/>
  <unicode hex="00B8"/>
  <note>
	cedilla
  </note>
  <outline>
    <contour>
      <point x="542" y="-401"/>
      <point x="502" y="-399"/>
      <point x="471" y="-395" type="curve" smooth="yes"/>
      <point x="447" y="-392"/>
      <point x="429" y="-389"/>
      <point x="414" y="-385" type="curve"/>
      <point x="398" y="-382"/>
      <point x="384" y="-379"/>
      <point x="367" y="-375" type="curve"/>
      <point x="367" y="-219" type="line"/>
      <point x="398" y="-230"/>
      <point x="426" y="-238"/>
      <point x="454" y="-245" type="curve" smooth="yes"/>
      <point x="482" y="-251"/>
      <point x="508" y="-254"/>
      <point x="532" y="-254" type="curve" smooth="yes"/>
      <point x="608" y="-254"/>
      <point x="655" y="-221"/>
      <point x="655" y="-170" type="curve" smooth="yes"/>
      <point x="655" y="-133"/>
      <point x="629" y="-89"/>
      <point x="607" y="-55" type="curve" smooth="yes"/>
      <point x="596" y="-38"/>
      <point x="582" y="-20"/>
      <point x="567" y="0" type="curve"/>
      <point x="707" y="0" type="line"/>
      <point x="747" y="-43"/>
      <point x="776" y="-84"/>
      <point x="792" y="-115" type="curve" smooth="yes"/>
      <point x="810" y="-149"/>
      <point x="819" y="-184"/>
      <point x="819" y="-221" type="curve" smooth="yes"/>
      <point x="819" y="-282"/>
      <point x="796" y="-327"/>
      <point x="757" y="-356" type="curve" smooth="yes"/>
      <point x="722" y="-383"/>
      <point x="668" y="-401"/>
      <point x="573" y="-401" type="curve" smooth="yes"/>
    </contour>
  </outline>
</glyph>
<glyph name="questiondown" format="1">
  <advance width="1233"/>
  <unicode hex="00BF"/>
  <note>
	questiondown
  </note>
  <outline>
    <contour>
      <point x="578" y="1222"/>
      <point x="506" y="1292"/>
      <point x="506" y="1389" type="curve" smooth="yes"/>
      <point x="506" y="1438"/>
      <point x="522" y="1480"/>
      <point x="553" y="1511" type="curve" smooth="yes"/>
      <point x="585" y="1542"/>
      <point x="627" y="1556"/>
      <point x="667" y="1556" type="curve" smooth="yes"/>
      <point x="678" y="1556"/>
      <point x="689" y="1555"/>
      <point x="700" y="1553" type="curve"/>
      <point x="703" y="1552"/>
      <point x="707" y="1551"/>
      <point x="713" y="1550" type="curve"/>
      <point x="724" y="1547"/>
      <point x="733" y="1543"/>
      <point x="744" y="1537" type="curve"/>
      <point x="749" y="1534"/>
      <point x="753" y="1531"/>
      <point x="756" y="1530" type="curve"/>
      <point x="761" y="1527"/>
      <point x="770" y="1520"/>
      <point x="781" y="1509" type="curve" smooth="yes"/>
      <point x="794" y="1496"/>
      <point x="807" y="1479"/>
      <point x="816" y="1456" type="curve" smooth="yes"/>
      <point x="824" y="1436"/>
      <point x="828" y="1414"/>
      <point x="828" y="1390" type="curve" smooth="yes"/>
      <point x="828" y="1291"/>
      <point x="756" y="1222"/>
      <point x="667" y="1222" type="curve" smooth="yes"/>
    </contour>
    <contour>
      <point x="474" y="-27"/>
      <point x="366" y="3"/>
      <point x="290" y="67" type="curve" smooth="yes"/>
      <point x="214" y="131"/>
      <point x="176" y="219"/>
      <point x="176" y="323" type="curve" smooth="yes"/>
      <point x="176" y="379"/>
      <point x="187" y="424"/>
      <point x="210" y="468" type="curve" smooth="yes"/>
      <point x="233" y="511"/>
      <point x="271" y="561"/>
      <point x="338" y="625" type="curve" smooth="yes"/>
      <point x="426" y="711" type="line" smooth="yes"/>
      <point x="514" y="796"/>
      <point x="530" y="837"/>
      <point x="530" y="922" type="curve" smooth="yes"/>
      <point x="530" y="924"/>
      <point x="530" y="926"/>
      <point x="531" y="928" type="curve"/>
      <point x="532" y="935"/>
      <point x="532" y="942"/>
      <point x="532" y="949" type="curve" smooth="yes"/>
      <point x="532" y="956"/>
      <point x="532" y="962"/>
      <point x="532" y="969" type="curve" smooth="yes"/>
      <point x="532" y="1092" type="line"/>
      <point x="799" y="1092" type="line"/>
      <point x="799" y="938" type="line" smooth="yes"/>
      <point x="799" y="871"/>
      <point x="789" y="815"/>
      <point x="768" y="769" type="curve" smooth="yes"/>
      <point x="745" y="718"/>
      <point x="709" y="672"/>
      <point x="657" y="621" type="curve" smooth="yes"/>
      <point x="567" y="532" type="line" smooth="yes"/>
      <point x="540" y="505"/>
      <point x="523" y="487"/>
      <point x="511" y="472" type="curve"/>
      <point x="498" y="457"/>
      <point x="491" y="446"/>
      <point x="484" y="434" type="curve"/>
      <point x="469" y="405"/>
      <point x="461" y="376"/>
      <point x="461" y="347" type="curve" smooth="yes"/>
      <point x="461" y="304"/>
      <point x="476" y="270"/>
      <point x="507" y="247" type="curve" smooth="yes"/>
      <point x="538" y="224"/>
      <point x="585" y="213"/>
      <point x="642" y="213" type="curve" smooth="yes"/>
      <point x="702" y="213"/>
      <point x="758" y="225"/>
      <point x="819" y="249" type="curve" smooth="yes"/>
      <point x="883" y="274"/>
      <point x="938" y="306"/>
      <point x="1006" y="354" type="curve"/>
      <point x="1006" y="86" type="line"/>
      <point x="941" y="49"/>
      <point x="879" y="22"/>
      <point x="808" y="2" type="curve" smooth="yes"/>
      <point x="741" y="-17"/>
      <point x="681" y="-27"/>
      <point x="606" y="-27" type="curve" smooth="yes"/>
    </contour>
  </outline>
</glyph>
<glyph name="Ccedilla" format="1">
  <advance width="1233"/>
  <unicode hex="00C7"/>
  <note>
	Ccedilla
  </note>
  <outline>
    <contour>
      <point x="561" y="1255"/>
      <point x="448" y="1081"/>
      <point x="448" y="745" type="curve" smooth="yes"/>
      <point x="448" y="409"/>
      <point x="559" y="236"/>
      <point x="774" y="236" type="curve" smooth="yes"/>
      <point x="825" y="236"/>
      <point x="875" y="247"/>
      <point x="923" y="269" type="curve" smooth="yes"/>
      <point x="970" y="290"/>
      <point x="1013" y="319"/>
      <point x="1070" y="371" type="curve"/>
      <point x="1070" y="43" type="line"/>
      <point x="1023" y="19"/>
      <point x="974" y="1"/>
      <point x="923" y="-11" type="curve" smooth="yes"/>
      <point x="895" y="-18"/>
      <point x="867" y="-22"/>
      <point x="836" y="-25" type="curve"/>
      <point x="864" y="-60"/>
      <point x="885" y="-91"/>
      <point x="898" y="-115" type="curve" smooth="yes"/>
      <point x="916" y="-149"/>
      <point x="925" y="-184"/>
      <point x="925" y="-221" type="curve" smooth="yes"/>
      <point x="925" y="-282"/>
      <point x="902" y="-327"/>
      <point x="863" y="-356" type="curve" smooth="yes"/>
      <point x="828" y="-383"/>
      <point x="774" y="-401"/>
      <point x="677" y="-401" type="curve" smooth="yes"/>
      <point x="645" y="-401"/>
      <point x="610" y="-399"/>
      <point x="577" y="-395" type="curve" smooth="yes"/>
      <point x="552" y="-392"/>
      <point x="532" y="-388"/>
      <point x="518" y="-385" type="curve" smooth="yes"/>
      <point x="503" y="-382"/>
      <point x="488" y="-378"/>
      <point x="473" y="-375" type="curve"/>
      <point x="473" y="-219" type="line"/>
      <point x="504" y="-230"/>
      <point x="532" y="-238"/>
      <point x="560" y="-245" type="curve" smooth="yes"/>
      <point x="588" y="-251"/>
      <point x="614" y="-254"/>
      <point x="638" y="-254" type="curve" smooth="yes"/>
      <point x="714" y="-254"/>
      <point x="761" y="-221"/>
      <point x="761" y="-170" type="curve" smooth="yes"/>
      <point x="761" y="-151"/>
      <point x="754" y="-128"/>
      <point x="740" y="-101" type="curve" smooth="yes"/>
      <point x="729" y="-80"/>
      <point x="714" y="-55"/>
      <point x="693" y="-26" type="curve"/>
      <point x="356" y="1"/>
      <point x="141" y="244"/>
      <point x="141" y="745" type="curve" smooth="yes"/>
      <point x="141" y="996"/>
      <point x="194" y="1188"/>
      <point x="300" y="1321" type="curve" smooth="yes"/>
      <point x="407" y="1454"/>
      <point x="560" y="1520"/>
      <point x="759" y="1520" type="curve" smooth="yes"/>
      <point x="819" y="1520"/>
      <point x="872" y="1514"/>
      <point x="924" y="1502" type="curve" smooth="yes"/>
      <point x="977" y="1490"/>
      <point x="1025" y="1472"/>
      <point x="1070" y="1448" type="curve"/>
      <point x="1070" y="1120" type="line"/>
      <point x="1010" y="1176"/>
      <point x="965" y="1204"/>
      <point x="922" y="1223" type="curve" smooth="yes"/>
      <point x="871" y="1246"/>
      <point x="823" y="1255"/>
      <point x="774" y="1255" type="curve" smooth="yes"/>
    </contour>
  </outline>
</glyph>
<glyph name="Eth" format="1">
  <advance width="1233"/>
  <unicode hex="00D0"/>
  <note>
	Eth
  </note>
  <outline>
    <contour>
      <point x="137" y="664" type="line"/>
      <point x="0" y="664" type="line"/>
      <point x="0" y="901" type="line"/>
      <point x="137" y="901" type="line"/>
      <point x="137" y="1493" type="line"/>
      <point x="453" y="1493" type="line" smooth="yes"/>
      <point x="697" y="1493"/>
      <point x="873" y="1435"/>
      <point x="980" y="1319" type="curve" smooth="yes"/>
      <point x="1085" y="1204"/>
      <point x="1141" y="1018"/>
      <point x="1141" y="747" type="curve" smooth="yes"/>
      <point x="1141" y="220"/>
      <point x="941" y="0"/>
      <point x="453" y="0" type="curve" smooth="yes"/>
      <point x="137" y="0" type="line"/>
    </contour>
    <contour>
      <point x="512" y="266" type="line" smooth="yes"/>
      <point x="744" y="266"/>
      <point x="834" y="399"/>
      <point x="834" y="748" type="curve" smooth="yes"/>
      <point x="834" y="1095"/>
      <point x="745" y="1227"/>
      <point x="512" y="1227" type="curve" smooth="yes"/>
      <point x="432" y="1227" type="line"/>
      <point x="432" y="901" type="line"/>
      <point x="643" y="901" type="line"/>
      <point x="643" y="664" type="line"/>
      <point x="432" y="664" type="line"/>
      <point x="432" y="266" type="line"/>
    </contour>
  </outline>
</glyph>
<glyph name="Ntilde" format="1">
  <advance width="1233"/>
  <unicode hex="00D1"/>
  <note>
	Ntilde
  </note>
  <outline>
    <contour>
      <point x="268" y="1618" type="line" smooth="yes"/>
      <point x="268" y="1691"/>
      <point x="289" y="1750"/>
      <point x="322" y="1789" type="curve" smooth="yes"/>
      <point x="359" y="1833"/>
      <point x="411" y="1854"/>
      <point x="466" y="1854" type="curve" smooth="yes"/>
      <point x="491" y="1854"/>
      <point x="515" y="1850"/>
      <point x="539" y="1842" type="curve" smooth="yes"/>
      <point x="562" y="1834"/>
      <point x="589" y="1821"/>
      <point x="614" y="1805" type="curve" smooth="yes"/>
      <point x="674" y="1766" type="line" smooth="yes"/>
      <point x="685" y="1759"/>
      <point x="700" y="1752"/>
      <point x="715" y="1745" type="curve"/>
      <point x="728" y="1740"/>
      <point x="738" y="1737"/>
      <point x="750" y="1737" type="curve" smooth="yes"/>
      <point x="798" y="1737"/>
      <point x="825" y="1777"/>
      <point x="825" y="1854" type="curve"/>
      <point x="965" y="1854" type="line"/>
      <point x="965" y="1853"/>
      <point x="965" y="1851"/>
      <point x="965" y="1848" type="curve" smooth="yes"/>
      <point x="965" y="1845"/>
      <point x="965" y="1842"/>
      <point x="964" y="1839" type="curve"/>
      <point x="964" y="1838"/>
      <point x="964" y="1837"/>
      <point x="964" y="1836" type="curve"/>
      <point x="963" y="1835"/>
      <point x="963" y="1830"/>
      <point x="963" y="1822" type="curve" smooth="yes"/>
      <point x="963" y="1755"/>
      <point x="945" y="1696"/>
      <point x="910" y="1653" type="curve" smooth="yes"/>
      <point x="871" y="1606"/>
      <point x="823" y="1588"/>
      <point x="768" y="1588" type="curve" smooth="yes"/>
      <point x="744" y="1588"/>
      <point x="720" y="1592"/>
      <point x="696" y="1599" type="curve" smooth="yes"/>
      <point x="669" y="1607"/>
      <point x="646" y="1618"/>
      <point x="618" y="1637" type="curve" smooth="yes"/>
      <point x="564" y="1671" type="line" smooth="yes"/>
      <point x="559" y="1674"/>
      <point x="556" y="1676"/>
      <point x="556" y="1676" type="curve" smooth="yes"/>
      <point x="556" y="1676"/>
      <point x="555" y="1677"/>
      <point x="552" y="1678" type="curve"/>
      <point x="523" y="1694"/>
      <point x="500" y="1704"/>
      <point x="479" y="1704" type="curve" smooth="yes"/>
      <point x="436" y="1704"/>
      <point x="408" y="1659"/>
      <point x="408" y="1594" type="curve" smooth="yes"/>
      <point x="408" y="1588" type="line"/>
      <point x="268" y="1588" type="line"/>
    </contour>
    <contour>
      <point x="119" y="1493" type="line"/>
      <point x="436" y="1493" type="line"/>
      <point x="852" y="408" type="line"/>
      <point x="852" y="1493" type="line"/>
      <point x="1112" y="1493" type="line"/>
      <point x="1112" y="0" type="line"/>
      <point x="797" y="0" type="line"/>
      <point x="379" y="1085" type="line"/>
      <point x="379" y="0" type="line"/>
      <point x="119" y="0" type="line"/>
    </contour>
  </outline>
</glyph>
<glyph name="Otilde" format="1">
  <advance width="1233"/>
  <unicode hex="00D5"/>
  <note>
	Otilde
  </note>
  <outline>
    <contour>
      <point x="268" y="1618" type="line" smooth="yes"/>
      <point x="268" y="1691"/>
      <point x="289" y="1750"/>
      <point x="322" y="1789" type="curve" smooth="yes"/>
      <point x="359" y="1833"/>
      <point x="411" y="1854"/>
      <point x="466" y="1854" type="curve" smooth="yes"/>
      <point x="491" y="1854"/>
      <point x="515" y="1850"/>
      <point x="539" y="1842" type="curve" smooth="yes"/>
      <point x="559" y="1835"/>
      <point x="586" y="1824"/>
      <point x="614" y="1805" type="curve" smooth="yes"/>
      <point x="674" y="1766" type="line" smooth="yes"/>
      <point x="685" y="1759"/>
      <point x="696" y="1753"/>
      <point x="715" y="1745" type="curve" smooth="yes"/>
      <point x="728" y="1740"/>
      <point x="738" y="1737"/>
      <point x="750" y="1737" type="curve" smooth="yes"/>
      <point x="798" y="1737"/>
      <point x="825" y="1777"/>
      <point x="825" y="1854" type="curve"/>
      <point x="965" y="1854" type="line"/>
      <point x="965" y="1853"/>
      <point x="965" y="1851"/>
      <point x="965" y="1848" type="curve" smooth="yes"/>
      <point x="965" y="1845"/>
      <point x="965" y="1842"/>
      <point x="964" y="1839" type="curve" smooth="yes"/>
      <point x="963" y="1836"/>
      <point x="963" y="1834"/>
      <point x="963" y="1832" type="curve" smooth="yes"/>
      <point x="963" y="1830"/>
      <point x="963" y="1828"/>
      <point x="963" y="1827" type="curve" smooth="yes"/>
      <point x="963" y="1754"/>
      <point x="945" y="1696"/>
      <point x="910" y="1653" type="curve" smooth="yes"/>
      <point x="871" y="1606"/>
      <point x="823" y="1588"/>
      <point x="768" y="1588" type="curve" smooth="yes"/>
      <point x="744" y="1588"/>
      <point x="720" y="1592"/>
      <point x="696" y="1599" type="curve" smooth="yes"/>
      <point x="669" y="1607"/>
      <point x="646" y="1618"/>
      <point x="618" y="1637" type="curve" smooth="yes"/>
      <point x="564" y="1671" type="line"/>
      <point x="552" y="1678" type="line"/>
      <point x="524" y="1693"/>
      <point x="502" y="1704"/>
      <point x="479" y="1704" type="curve" smooth="yes"/>
      <point x="436" y="1704"/>
      <point x="408" y="1659"/>
      <point x="408" y="1594" type="curve" smooth="yes"/>
      <point x="408" y="1588" type="line"/>
      <point x="268" y="1588" type="line"/>
    </contour>
    <contour>
      <point x="436" y="-29"/>
      <point x="309" y="41"/>
      <point x="225" y="166" type="curve" smooth="yes"/>
      <point x="136" y="297"/>
      <point x="92" y="490"/>
      <point x="92" y="745" type="curve" smooth="yes"/>
      <point x="92" y="1000"/>
      <point x="136" y="1192"/>
      <point x="225" y="1325" type="curve" smooth="yes"/>
      <point x="317" y="1461"/>
      <point x="453" y="1520"/>
      <point x="616" y="1520" type="curve" smooth="yes"/>
      <point x="791" y="1520"/>
      <point x="921" y="1453"/>
      <point x="1009" y="1324" type="curve" smooth="yes"/>
      <point x="1097" y="1193"/>
      <point x="1141" y="1000"/>
      <point x="1141" y="745" type="curve" smooth="yes"/>
      <point x="1141" y="490"/>
      <point x="1097" y="298"/>
      <point x="1009" y="167" type="curve" smooth="yes"/>
      <point x="924" y="40"/>
      <point x="795" y="-29"/>
      <point x="616" y="-29" type="curve" smooth="yes"/>
    </contour>
    <contour>
      <point x="692" y="236"/>
      <point x="747" y="276"/>
      <point x="782" y="357" type="curve" smooth="yes"/>
      <point x="817" y="436"/>
      <point x="834" y="566"/>
      <point x="834" y="746" type="curve" smooth="yes"/>
      <point x="834" y="925"/>
      <point x="817" y="1055"/>
      <point x="782" y="1134" type="curve" smooth="yes"/>
      <point x="747" y="1215"/>
      <point x="692" y="1255"/>
      <point x="616" y="1255" type="curve" smooth="yes"/>
      <point x="537" y="1255"/>
      <point x="486" y="1214"/>
      <point x="451" y="1134" type="curve" smooth="yes"/>
      <point x="416" y="1054"/>
      <point x="399" y="934"/>
      <point x="399" y="747" type="curve" smooth="yes"/>
      <point x="399" y="566"/>
      <point x="416" y="436"/>
      <point x="451" y="357" type="curve" smooth="yes"/>
      <point x="486" y="276"/>
      <point x="541" y="236"/>
      <point x="616" y="236" type="curve" smooth="yes"/>
    </contour>
  </outline>
</glyph>
<glyph name="Oslash" format="1">
  <advance width="1233"/>
  <unicode hex="00D8"/>
  <note>
	Oslash
  </note>
  <outline>
    <contour>
      <point x="-6" y="51" type="line"/>
      <point x="162" y="289" type="line"/>
      <point x="137" y="354"/>
      <point x="122" y="411"/>
      <point x="110" y="491" type="curve" smooth="yes"/>
      <point x="99" y="563"/>
      <point x="92" y="639"/>
      <point x="92" y="743" type="curve" smooth="yes"/>
      <point x="92" y="1000"/>
      <point x="136" y="1193"/>
      <point x="225" y="1324" type="curve" smooth="yes"/>
      <point x="313" y="1455"/>
      <point x="439" y="1520"/>
      <point x="616" y="1520" type="curve" smooth="yes"/>
      <point x="686" y="1520"/>
      <point x="748" y="1510"/>
      <point x="802" y="1489" type="curve" smooth="yes"/>
      <point x="861" y="1466"/>
      <point x="907" y="1436"/>
      <point x="946" y="1397" type="curve"/>
      <point x="1059" y="1559" type="line"/>
      <point x="1221" y="1444" type="line"/>
      <point x="1063" y="1221" type="line"/>
      <point x="1090" y="1156"/>
      <point x="1109" y="1085"/>
      <point x="1122" y="1008" type="curve" smooth="yes"/>
      <point x="1135" y="928"/>
      <point x="1141" y="841"/>
      <point x="1141" y="745" type="curve" smooth="yes"/>
      <point x="1141" y="490"/>
      <point x="1097" y="298"/>
      <point x="1009" y="167" type="curve" smooth="yes"/>
      <point x="917" y="31"/>
      <point x="784" y="-29"/>
      <point x="615" y="-29" type="curve" smooth="yes"/>
      <point x="539" y="-29"/>
      <point x="481" y="-18"/>
      <point x="425" y="5" type="curve" smooth="yes"/>
      <point x="369" y="28"/>
      <point x="323" y="57"/>
      <point x="276" y="104" type="curve"/>
      <point x="156" y="-63" type="line"/>
    </contour>
    <contour>
      <point x="772" y="1153" type="line"/>
      <point x="737" y="1221"/>
      <point x="686" y="1255"/>
      <point x="617" y="1255" type="curve" smooth="yes"/>
      <point x="538" y="1255"/>
      <point x="487" y="1214"/>
      <point x="452" y="1135" type="curve" smooth="yes"/>
      <point x="417" y="1054"/>
      <point x="399" y="928"/>
      <point x="399" y="756" type="curve" smooth="yes"/>
      <point x="399" y="629" type="line"/>
    </contour>
    <contour>
      <point x="698" y="236"/>
      <point x="748" y="280"/>
      <point x="781" y="357" type="curve" smooth="yes"/>
      <point x="798" y="397"/>
      <point x="811" y="447"/>
      <point x="820" y="516" type="curve" smooth="yes"/>
      <point x="829" y="584"/>
      <point x="834" y="670"/>
      <point x="834" y="781" type="curve"/>
      <point x="833" y="804" type="line"/>
      <point x="832" y="813"/>
      <point x="832" y="820"/>
      <point x="832" y="825" type="curve" smooth="yes"/>
      <point x="832" y="829"/>
      <point x="832" y="833"/>
      <point x="832" y="838" type="curve"/>
      <point x="831" y="843"/>
      <point x="831" y="849"/>
      <point x="831" y="856" type="curve"/>
      <point x="830" y="863"/>
      <point x="830" y="873"/>
      <point x="829" y="888" type="curve"/>
      <point x="451" y="354" type="line"/>
      <point x="466" y="317"/>
      <point x="490" y="286"/>
      <point x="517" y="267" type="curve" smooth="yes"/>
      <point x="546" y="246"/>
      <point x="579" y="236"/>
      <point x="618" y="236" type="curve" smooth="yes"/>
    </contour>
  </outline>
</glyph>
<glyph name="Uacute" format="1">
  <advance width="1233"/>
  <unicode hex="00DA"/>
  <note>
	Uacute
  </note>
  <outline>
    <contour>
      <point x="668" y="1852" type="line"/>
      <point x="952" y="1852" type="line"/>
      <point x="666" y="1588" type="line"/>
      <point x="469" y="1588" type="line"/>
    </contour>
    <contour>
      <point x="260" y="-29"/>
      <point x="106" y="147"/>
      <point x="106" y="551" type="curve" smooth="yes"/>
      <point x="106" y="1493" type="line"/>
      <point x="401" y="1493" type="line"/>
      <point x="401" y="477" type="line" smooth="yes"/>
      <point x="401" y="401"/>
      <point x="422" y="341"/>
      <point x="458" y="301" type="curve" smooth="yes"/>
      <point x="497" y="258"/>
      <point x="552" y="238"/>
      <point x="616" y="238" type="curve" smooth="yes"/>
      <point x="680" y="238"/>
      <point x="735" y="258"/>
      <point x="774" y="301" type="curve" smooth="yes"/>
      <point x="810" y="341"/>
      <point x="831" y="401"/>
      <point x="831" y="477" type="curve" smooth="yes"/>
      <point x="831" y="1493" type="line"/>
      <point x="1126" y="1493" type="line"/>
      <point x="1126" y="551" type="line" smooth="yes"/>
      <point x="1126" y="144"/>
      <point x="972" y="-29"/>
      <point x="616" y="-29" type="curve" smooth="yes"/>
    </contour>
  </outline>
</glyph>
<glyph name="Udieresis" format="1">
  <advance width="1233"/>
  <unicode hex="00DC"/>
  <note>
	Udieresis
  </note>
  <outline>
    <contour>
      <point x="331" y="1606" type="line" smooth="yes"/>
      <point x="311" y="1606"/>
      <point x="301" y="1616"/>
      <point x="301" y="1636" type="curve" smooth="yes"/>
      <point x="301" y="1822" type="line" smooth="yes"/>
      <point x="301" y="1842"/>
      <point x="311" y="1852"/>
      <point x="331" y="1852" type="curve" smooth="yes"/>
      <point x="507" y="1852" type="line" smooth="yes"/>
      <point x="527" y="1852"/>
      <point x="537" y="1842"/>
      <point x="537" y="1822" type="curve" smooth="yes"/>
      <point x="537" y="1636" type="line" smooth="yes"/>
      <point x="537" y="1616"/>
      <point x="527" y="1606"/>
      <point x="507" y="1606" type="curve" smooth="yes"/>
    </contour>
    <contour>
      <point x="726" y="1606" type="line" smooth="yes"/>
      <point x="706" y="1606"/>
      <point x="696" y="1616"/>
      <point x="696" y="1636" type="curve" smooth="yes"/>
      <point x="696" y="1822" type="line" smooth="yes"/>
      <point x="696" y="1842"/>
      <point x="706" y="1852"/>
      <point x="726" y="1852" type="curve" smooth="yes"/>
      <point x="902" y="1852" type="line" smooth="yes"/>
      <point x="922" y="1852"/>
      <point x="932" y="1842"/>
      <point x="932" y="1822" type="curve" smooth="yes"/>
      <point x="932" y="1636" type="line" smooth="yes"/>
      <point x="932" y="1616"/>
      <point x="922" y="1606"/>
      <point x="902" y="1606" type="curve" smooth="yes"/>
    </contour>
    <contour>
      <point x="260" y="-29"/>
      <point x="106" y="147"/>
      <point x="106" y="551" type="curve" smooth="yes"/>
      <point x="106" y="1493" type="line"/>
      <point x="401" y="1493" type="line"/>
      <point x="401" y="477" type="line" smooth="yes"/>
      <point x="401" y="401"/>
      <point x="422" y="341"/>
      <point x="458" y="301" type="curve" smooth="yes"/>
      <point x="497" y="258"/>
      <point x="552" y="238"/>
      <point x="616" y="238" type="curve" smooth="yes"/>
      <point x="680" y="238"/>
      <point x="735" y="258"/>
      <point x="774" y="301" type="curve" smooth="yes"/>
      <point x="810" y="341"/>
      <point x="831" y="401"/>
      <point x="831" y="477" type="curve" smooth="yes"/>
      <point x="831" y="1493" type="line"/>
      <point x="1126" y="1493" type="line"/>
      <point x="1126" y="551" type="line" smooth="yes"/>
      <point x="1126" y="144"/>
      <point x="972" y="-29"/>
      <point x="616" y="-29" type="curve" smooth="yes"/>
    </contour>
  </outline>
</glyph>
<glyph name="Thorn" format="1">
  <advance width="1233"/>
  <unicode hex="00DE"/>
  <note>
	Thorn
  </note>
  <outline>
    <contour>
      <point x="162" y="1493" type="line"/>
      <point x="457" y="1493" type="line"/>
      <point x="457" y="1255" type="line"/>
      <point x="567" y="1255" type="line" smooth="yes"/>
      <point x="773" y="1255"/>
      <point x="921" y="1219"/>
      <point x="1012" y="1146" type="curve" smooth="yes"/>
      <point x="1103" y="1073"/>
      <point x="1147" y="952"/>
      <point x="1147" y="791" type="curve" smooth="yes"/>
      <point x="1147" y="630"/>
      <point x="1101" y="513"/>
      <point x="1010" y="441" type="curve" smooth="yes"/>
      <point x="917" y="366"/>
      <point x="770" y="332"/>
      <point x="567" y="332" type="curve" smooth="yes"/>
      <point x="457" y="332" type="line"/>
      <point x="457" y="0" type="line"/>
      <point x="162" y="0" type="line"/>
    </contour>
    <contour>
      <point x="578" y="575" type="line" smooth="yes"/>
      <point x="773" y="575"/>
      <point x="840" y="633"/>
      <point x="840" y="793" type="curve" smooth="yes"/>
      <point x="840" y="956"/>
      <point x="771" y="1014"/>
      <point x="578" y="1014" type="curve" smooth="yes"/>
      <point x="457" y="1014" type="line"/>
      <point x="457" y="575" type="line"/>
    </contour>
  </outline>
</glyph>
<glyph name="germandbls" format="1">
  <advance width="1233"/>
  <unicode hex="00DF"/>
  <note>
	germandbls
  </note>
  <outline>
    <contour>
      <point x="716" y="-29"/>
      <point x="672" y="-25"/>
      <point x="633" y="-17" type="curve" smooth="yes"/>
      <point x="598" y="-10"/>
      <point x="549" y="4"/>
      <point x="504" y="20" type="curve"/>
      <point x="504" y="270" type="line"/>
      <point x="543" y="249"/>
      <point x="581" y="234"/>
      <point x="620" y="223" type="curve" smooth="yes"/>
      <point x="656" y="212"/>
      <point x="690" y="207"/>
      <point x="729" y="207" type="curve" smooth="yes"/>
      <point x="785" y="207"/>
      <point x="820" y="220"/>
      <point x="847" y="241" type="curve" smooth="yes"/>
      <point x="874" y="262"/>
      <point x="889" y="292"/>
      <point x="889" y="328" type="curve" smooth="yes"/>
      <point x="889" y="384"/>
      <point x="850" y="432"/>
      <point x="774" y="492" type="curve" smooth="yes"/>
      <point x="769" y="496"/>
      <point x="765" y="499"/>
      <point x="763" y="500" type="curve" smooth="yes"/>
      <point x="761" y="501"/>
      <point x="759" y="503"/>
      <point x="757" y="505" type="curve"/>
      <point x="755" y="506"/>
      <point x="752" y="508"/>
      <point x="749" y="511" type="curve"/>
      <point x="745" y="514"/>
      <point x="738" y="519"/>
      <point x="729" y="526" type="curve" smooth="yes"/>
      <point x="643" y="594" type="line" smooth="yes"/>
      <point x="604" y="625"/>
      <point x="574" y="663"/>
      <point x="554" y="706" type="curve" smooth="yes"/>
      <point x="534" y="748"/>
      <point x="524" y="795"/>
      <point x="524" y="847" type="curve" smooth="yes"/>
      <point x="524" y="930"/>
      <point x="549" y="1001"/>
      <point x="598" y="1058" type="curve" smooth="yes"/>
      <point x="650" y="1118"/>
      <point x="720" y="1153"/>
      <point x="809" y="1174" type="curve"/>
      <point x="802" y="1226"/>
      <point x="780" y="1264"/>
      <point x="751" y="1285" type="curve" smooth="yes"/>
      <point x="718" y="1309"/>
      <point x="670" y="1321"/>
      <point x="614" y="1321" type="curve" smooth="yes"/>
      <point x="553" y="1321"/>
      <point x="503" y="1307"/>
      <point x="468" y="1271" type="curve" smooth="yes"/>
      <point x="436" y="1237"/>
      <point x="420" y="1187"/>
      <point x="420" y="1122" type="curve" smooth="yes"/>
      <point x="420" y="0" type="line"/>
      <point x="127" y="0" type="line"/>
      <point x="127" y="1126" type="line" smooth="yes"/>
      <point x="127" y="1267"/>
      <point x="167" y="1374"/>
      <point x="248" y="1447" type="curve" smooth="yes"/>
      <point x="332" y="1523"/>
      <point x="449" y="1556"/>
      <point x="594" y="1556" type="curve" smooth="yes"/>
      <point x="750" y="1556"/>
      <point x="856" y="1518"/>
      <point x="928" y="1438" type="curve" smooth="yes"/>
      <point x="999" y="1359"/>
      <point x="1034" y="1238"/>
      <point x="1034" y="1073" type="curve" smooth="yes"/>
      <point x="1034" y="1059" type="line"/>
      <point x="938" y="1054"/>
      <point x="885" y="1035"/>
      <point x="846" y="1008" type="curve" smooth="yes"/>
      <point x="803" y="977"/>
      <point x="780" y="936"/>
      <point x="780" y="889" type="curve" smooth="yes"/>
      <point x="780" y="861"/>
      <point x="788" y="836"/>
      <point x="808" y="812" type="curve"/>
      <point x="827" y="787"/>
      <point x="856" y="760"/>
      <point x="896" y="728" type="curve" smooth="yes"/>
      <point x="905" y="721"/>
      <point x="910" y="717"/>
      <point x="912" y="716" type="curve"/>
      <point x="913" y="715"/>
      <point x="914" y="714"/>
      <point x="915" y="713" type="curve"/>
      <point x="1012" y="639" type="line" smooth="yes"/>
      <point x="1072" y="594"/>
      <point x="1107" y="552"/>
      <point x="1134" y="501" type="curve" smooth="yes"/>
      <point x="1159" y="453"/>
      <point x="1174" y="398"/>
      <point x="1174" y="330" type="curve" smooth="yes"/>
      <point x="1174" y="225"/>
      <point x="1139" y="132"/>
      <point x="1063" y="67" type="curve" smooth="yes"/>
      <point x="987" y="3"/>
      <point x="880" y="-29"/>
      <point x="759" y="-29" type="curve" smooth="yes"/>
    </contour>
  </outline>
</glyph>
<glyph name="atilde" format="1">
  <advance width="1233"/>
  <unicode hex="00E3"/>
  <note>
	atilde
  </note>
  <outline>
    <contour>
      <point x="720" y="1317"/>
      <point x="682" y="1330"/>
      <point x="618" y="1374" type="curve" smooth="yes"/>
      <point x="551" y="1419" type="line" smooth="yes"/>
      <point x="522" y="1438"/>
      <point x="500" y="1448"/>
      <point x="479" y="1448" type="curve" smooth="yes"/>
      <point x="454" y="1448"/>
      <point x="438" y="1436"/>
      <point x="427" y="1417" type="curve" smooth="yes"/>
      <point x="414" y="1396"/>
      <point x="408" y="1366"/>
      <point x="408" y="1327" type="curve" smooth="yes"/>
      <point x="408" y="1319" type="line"/>
      <point x="268" y="1319" type="line"/>
      <point x="268" y="1414"/>
      <point x="287" y="1483"/>
      <point x="320" y="1530" type="curve" smooth="yes"/>
      <point x="351" y="1574"/>
      <point x="398" y="1603"/>
      <point x="465" y="1603" type="curve" smooth="yes"/>
      <point x="514" y="1603"/>
      <point x="551" y="1586"/>
      <point x="575" y="1572" type="curve" smooth="yes"/>
      <point x="587" y="1565"/>
      <point x="600" y="1556"/>
      <point x="614" y="1546" type="curve" smooth="yes"/>
      <point x="676" y="1503" type="line" smooth="yes"/>
      <point x="693" y="1491"/>
      <point x="701" y="1487"/>
      <point x="716" y="1480" type="curve"/>
      <point x="729" y="1475"/>
      <point x="740" y="1472"/>
      <point x="751" y="1472" type="curve" smooth="yes"/>
      <point x="798" y="1472"/>
      <point x="825" y="1516"/>
      <point x="825" y="1593" type="curve" smooth="yes"/>
      <point x="825" y="1601" type="line"/>
      <point x="965" y="1601" type="line"/>
      <point x="965" y="1510"/>
      <point x="948" y="1440"/>
      <point x="914" y="1391" type="curve" smooth="yes"/>
      <point x="882" y="1344"/>
      <point x="833" y="1317"/>
      <point x="768" y="1317" type="curve" smooth="yes"/>
    </contour>
    <contour>
      <point x="373" y="-29"/>
      <point x="274" y="4"/>
      <point x="202" y="72" type="curve" smooth="yes"/>
      <point x="131" y="139"/>
      <point x="95" y="233"/>
      <point x="95" y="354" type="curve" smooth="yes"/>
      <point x="95" y="482"/>
      <point x="134" y="580"/>
      <point x="222" y="644" type="curve" smooth="yes"/>
      <point x="307" y="706"/>
      <point x="438" y="737"/>
      <point x="615" y="737" type="curve" smooth="yes"/>
      <point x="818" y="737" type="line"/>
      <point x="818" y="786" type="line" smooth="yes"/>
      <point x="818" y="835"/>
      <point x="799" y="871"/>
      <point x="767" y="894" type="curve" smooth="yes"/>
      <point x="732" y="919"/>
      <point x="679" y="930"/>
      <point x="610" y="930" type="curve" smooth="yes"/>
      <point x="546" y="930"/>
      <point x="477" y="921"/>
      <point x="412" y="904" type="curve" smooth="yes"/>
      <point x="348" y="887"/>
      <point x="278" y="858"/>
      <point x="206" y="819" type="curve"/>
      <point x="206" y="1069" type="line"/>
      <point x="262" y="1092"/>
      <point x="336" y="1116"/>
      <point x="403" y="1128" type="curve" smooth="yes"/>
      <point x="458" y="1139"/>
      <point x="540" y="1148"/>
      <point x="628" y="1148" type="curve" smooth="yes"/>
      <point x="721" y="1148"/>
      <point x="796" y="1137"/>
      <point x="857" y="1117" type="curve" smooth="yes"/>
      <point x="917" y="1097"/>
      <point x="962" y="1068"/>
      <point x="997" y="1035" type="curve" smooth="yes"/>
      <point x="1033" y="999"/>
      <point x="1061" y="954"/>
      <point x="1081" y="891" type="curve" smooth="yes"/>
      <point x="1100" y="827"/>
      <point x="1109" y="748"/>
      <point x="1109" y="644" type="curve" smooth="yes"/>
      <point x="1109" y="631"/>
      <point x="1109" y="615"/>
      <point x="1109" y="594" type="curve" smooth="yes"/>
      <point x="1108" y="553"/>
      <point x="1107" y="502"/>
      <point x="1107" y="450" type="curve" smooth="yes"/>
      <point x="1106" y="397"/>
      <point x="1105" y="349"/>
      <point x="1105" y="313" type="curve"/>
      <point x="1104" y="295"/>
      <point x="1104" y="282"/>
      <point x="1104" y="274" type="curve" smooth="yes"/>
      <point x="1104" y="246"/>
      <point x="1105" y="216"/>
      <point x="1106" y="197" type="curve" smooth="yes"/>
      <point x="1107" y="184"/>
      <point x="1109" y="171"/>
      <point x="1110" y="158" type="curve" smooth="yes"/>
      <point x="1112" y="132"/>
      <point x="1115" y="111"/>
      <point x="1120" y="87" type="curve" smooth="yes"/>
      <point x="1125" y="62"/>
      <point x="1130" y="48"/>
      <point x="1140" y="27" type="curve" smooth="yes"/>
      <point x="1145" y="16"/>
      <point x="1150" y="7"/>
      <point x="1155" y="0" type="curve"/>
      <point x="865" y="0" type="line"/>
      <point x="853" y="20"/>
      <point x="842" y="43"/>
      <point x="837" y="58" type="curve" smooth="yes"/>
      <point x="833" y="71"/>
      <point x="827" y="98"/>
      <point x="824" y="125" type="curve"/>
      <point x="787" y="76"/>
      <point x="740" y="38"/>
      <point x="682" y="11" type="curve" smooth="yes"/>
      <point x="626" y="-16"/>
      <point x="570" y="-29"/>
      <point x="494" y="-29" type="curve" smooth="yes"/>
    </contour>
    <contour>
      <point x="651" y="174"/>
      <point x="711" y="202"/>
      <point x="754" y="262" type="curve" smooth="yes"/>
      <point x="797" y="319"/>
      <point x="818" y="401"/>
      <point x="818" y="506" type="curve" smooth="yes"/>
      <point x="818" y="526" type="line"/>
      <point x="701" y="526" type="line" smooth="yes"/>
      <point x="481" y="526"/>
      <point x="407" y="475"/>
      <point x="407" y="342" type="curve" smooth="yes"/>
      <point x="407" y="287"/>
      <point x="421" y="250"/>
      <point x="452" y="219" type="curve" smooth="yes"/>
      <point x="482" y="189"/>
      <point x="523" y="174"/>
      <point x="576" y="174" type="curve" smooth="yes"/>
    </contour>
  </outline>
</glyph>
<glyph name="ae" format="1">
  <advance width="1233"/>
  <unicode hex="00E6"/>
  <note>
	ae
  </note>
  <outline>
    <contour>
      <point x="135" y="-29"/>
      <point x="14" y="99"/>
      <point x="14" y="326" type="curve" smooth="yes"/>
      <point x="14" y="573"/>
      <point x="147" y="694"/>
      <point x="420" y="694" type="curve" smooth="yes"/>
      <point x="496" y="694" type="line"/>
      <point x="496" y="745" type="line" smooth="yes"/>
      <point x="496" y="869"/>
      <point x="443" y="932"/>
      <point x="343" y="932" type="curve" smooth="yes"/>
      <point x="300" y="932"/>
      <point x="257" y="921"/>
      <point x="218" y="905" type="curve" smooth="yes"/>
      <point x="179" y="889"/>
      <point x="128" y="862"/>
      <point x="76" y="823" type="curve"/>
      <point x="76" y="1069" type="line"/>
      <point x="176" y="1122"/>
      <point x="266" y="1147"/>
      <point x="357" y="1147" type="curve" smooth="yes"/>
      <point x="418" y="1147"/>
      <point x="472" y="1137"/>
      <point x="515" y="1116" type="curve" smooth="yes"/>
      <point x="556" y="1095"/>
      <point x="589" y="1063"/>
      <point x="612" y="1020" type="curve"/>
      <point x="649" y="1101"/>
      <point x="742" y="1147"/>
      <point x="865" y="1147" type="curve" smooth="yes"/>
      <point x="986" y="1147"/>
      <point x="1065" y="1108"/>
      <point x="1114" y="1028" type="curve" smooth="yes"/>
      <point x="1138" y="989"/>
      <point x="1156" y="940"/>
      <point x="1169" y="872" type="curve" smooth="yes"/>
      <point x="1181" y="804"/>
      <point x="1188" y="717"/>
      <point x="1188" y="606" type="curve" smooth="yes"/>
      <point x="1188" y="479" type="line"/>
      <point x="737" y="479" type="line"/>
      <point x="737" y="384"/>
      <point x="754" y="311"/>
      <point x="787" y="260" type="curve" smooth="yes"/>
      <point x="818" y="213"/>
      <point x="863" y="184"/>
      <point x="932" y="184" type="curve" smooth="yes"/>
      <point x="977" y="184"/>
      <point x="1015" y="195"/>
      <point x="1052" y="214" type="curve" smooth="yes"/>
      <point x="1087" y="231"/>
      <point x="1126" y="256"/>
      <point x="1171" y="301" type="curve"/>
      <point x="1171" y="57" type="line"/>
      <point x="1138" y="28"/>
      <point x="1100" y="6"/>
      <point x="1059" y="-8" type="curve" smooth="yes"/>
      <point x="1016" y="-23"/>
      <point x="967" y="-29"/>
      <point x="916" y="-29" type="curve" smooth="yes"/>
      <point x="843" y="-29"/>
      <point x="786" y="-15"/>
      <point x="735" y="13" type="curve" smooth="yes"/>
      <point x="685" y="41"/>
      <point x="646" y="82"/>
      <point x="618" y="135" type="curve"/>
      <point x="591" y="79"/>
      <point x="555" y="38"/>
      <point x="512" y="11" type="curve" smooth="yes"/>
      <point x="469" y="-16"/>
      <point x="413" y="-29"/>
      <point x="346" y="-29" type="curve" smooth="yes"/>
    </contour>
    <contour>
      <point x="963" y="690" type="line"/>
      <point x="963" y="713" type="line" smooth="yes"/>
      <point x="963" y="797"/>
      <point x="955" y="854"/>
      <point x="938" y="885" type="curve" smooth="yes"/>
      <point x="921" y="916"/>
      <point x="891" y="932"/>
      <point x="850" y="932" type="curve" smooth="yes"/>
      <point x="809" y="932"/>
      <point x="779" y="916"/>
      <point x="762" y="885" type="curve" smooth="yes"/>
      <point x="745" y="854"/>
      <point x="737" y="797"/>
      <point x="737" y="713" type="curve" smooth="yes"/>
      <point x="737" y="690" type="line"/>
    </contour>
    <contour>
      <point x="449" y="184"/>
      <point x="489" y="241"/>
      <point x="489" y="358" type="curve" smooth="yes"/>
      <point x="489" y="483" type="line"/>
      <point x="416" y="483" type="line" smooth="yes"/>
      <point x="301" y="483"/>
      <point x="240" y="430"/>
      <point x="240" y="329" type="curve" smooth="yes"/>
      <point x="240" y="237"/>
      <point x="284" y="184"/>
      <point x="365" y="184" type="curve" smooth="yes"/>
    </contour>
  </outline>
</glyph>
<glyph name="igrave" format="1">
  <advance width="1233"/>
  <unicode hex="00EC"/>
  <note>
	igrave
  </note>
  <outline>
    <contour>
      <point x="159" y="1683" type="line"/>
      <point x="441" y="1683" type="line"/>
      <point x="724" y="1307" type="line"/>
      <point x="527" y="1307" type="line"/>
    </contour>
    <contour>
      <point x="822" y="-12" type="line" smooth="yes"/>
      <point x="543" y="-12"/>
      <point x="431" y="119"/>
      <point x="431" y="455" type="curve" smooth="yes"/>
      <point x="431" y="895" type="line"/>
      <point x="184" y="895" type="line"/>
      <point x="184" y="1120" type="line"/>
      <point x="724" y="1120" type="line"/>
      <point x="724" y="455" type="line" smooth="yes"/>
      <point x="724" y="280"/>
      <point x="772" y="213"/>
      <point x="904" y="213" type="curve" smooth="yes"/>
      <point x="1138" y="213" type="line"/>
      <point x="1138" y="-12" type="line"/>
    </contour>
  </outline>
</glyph>
<glyph name="iacute" format="1">
  <advance width="1233"/>
  <unicode hex="00ED"/>
  <note>
	iacute
  </note>
  <outline>
    <contour>
      <point x="694" y="1673" type="line"/>
      <point x="976" y="1673" type="line"/>
      <point x="608" y="1297" type="line"/>
      <point x="411" y="1297" type="line"/>
    </contour>
    <contour>
      <point x="802" y="-12" type="line" smooth="yes"/>
      <point x="523" y="-12"/>
      <point x="411" y="119"/>
      <point x="411" y="455" type="curve" smooth="yes"/>
      <point x="411" y="895" type="line"/>
      <point x="184" y="895" type="line"/>
      <point x="184" y="1120" type="line"/>
      <point x="704" y="1120" type="line"/>
      <point x="704" y="455" type="line" smooth="yes"/>
      <point x="704" y="280"/>
      <point x="752" y="213"/>
      <point x="884" y="213" type="curve" smooth="yes"/>
      <point x="1118" y="213" type="line"/>
      <point x="1118" y="-12" type="line"/>
    </contour>
  </outline>
</glyph>
<glyph name="otilde" format="1">
  <advance width="1233"/>
  <unicode hex="00F5"/>
  <note>
	otilde
  </note>
  <outline>
    <contour>
      <point x="740" y="1297"/>
      <point x="721" y="1302"/>
      <point x="701" y="1309" type="curve" smooth="yes"/>
      <point x="670" y="1320"/>
      <point x="653" y="1331"/>
      <point x="618" y="1354" type="curve" smooth="yes"/>
      <point x="551" y="1399" type="line" smooth="yes"/>
      <point x="522" y="1418"/>
      <point x="498" y="1428"/>
      <point x="479" y="1428" type="curve" smooth="yes"/>
      <point x="438" y="1428"/>
      <point x="408" y="1383"/>
      <point x="408" y="1307" type="curve" smooth="yes"/>
      <point x="408" y="1299" type="line"/>
      <point x="268" y="1299" type="line"/>
      <point x="268" y="1332" type="line" smooth="yes"/>
      <point x="268" y="1484"/>
      <point x="346" y="1584"/>
      <point x="465" y="1584" type="curve" smooth="yes"/>
      <point x="514" y="1584"/>
      <point x="551" y="1567"/>
      <point x="575" y="1552" type="curve" smooth="yes"/>
      <point x="587" y="1545"/>
      <point x="600" y="1536"/>
      <point x="614" y="1526" type="curve" smooth="yes"/>
      <point x="676" y="1483" type="line" smooth="yes"/>
      <point x="695" y="1470"/>
      <point x="704" y="1466"/>
      <point x="716" y="1461" type="curve" smooth="yes"/>
      <point x="729" y="1456"/>
      <point x="740" y="1453"/>
      <point x="751" y="1453" type="curve" smooth="yes"/>
      <point x="799" y="1453"/>
      <point x="825" y="1496"/>
      <point x="825" y="1573" type="curve" smooth="yes"/>
      <point x="825" y="1582" type="line"/>
      <point x="965" y="1582" type="line"/>
      <point x="965" y="1579"/>
      <point x="965" y="1577"/>
      <point x="965" y="1574" type="curve" smooth="yes"/>
      <point x="965" y="1571"/>
      <point x="965" y="1568"/>
      <point x="964" y="1565" type="curve" smooth="yes"/>
      <point x="963" y="1562"/>
      <point x="963" y="1559"/>
      <point x="963" y="1557" type="curve" smooth="yes"/>
      <point x="963" y="1554"/>
      <point x="963" y="1552"/>
      <point x="963" y="1551" type="curve" smooth="yes"/>
      <point x="963" y="1473"/>
      <point x="945" y="1411"/>
      <point x="910" y="1366" type="curve" smooth="yes"/>
      <point x="875" y="1322"/>
      <point x="829" y="1297"/>
      <point x="768" y="1297" type="curve" smooth="yes"/>
    </contour>
    <contour>
      <point x="446" y="-29"/>
      <point x="322" y="34"/>
      <point x="238" y="129" type="curve" smooth="yes"/>
      <point x="145" y="234"/>
      <point x="98" y="384"/>
      <point x="98" y="560" type="curve" smooth="yes"/>
      <point x="98" y="739"/>
      <point x="146" y="885"/>
      <point x="238" y="989" type="curve" smooth="yes"/>
      <point x="330" y="1093"/>
      <point x="459" y="1147"/>
      <point x="616" y="1147" type="curve" smooth="yes"/>
      <point x="780" y="1147"/>
      <point x="907" y="1089"/>
      <point x="995" y="990" type="curve" smooth="yes"/>
      <point x="1083" y="891"/>
      <point x="1135" y="748"/>
      <point x="1135" y="559" type="curve" smooth="yes"/>
      <point x="1135" y="380"/>
      <point x="1088" y="235"/>
      <point x="996" y="130" type="curve" smooth="yes"/>
      <point x="908" y="30"/>
      <point x="780" y="-29"/>
      <point x="617" y="-29" type="curve" smooth="yes"/>
    </contour>
    <contour>
      <point x="757" y="209"/>
      <point x="842" y="339"/>
      <point x="842" y="560" type="curve" smooth="yes"/>
      <point x="842" y="669"/>
      <point x="822" y="755"/>
      <point x="782" y="817" type="curve" smooth="yes"/>
      <point x="741" y="881"/>
      <point x="684" y="909"/>
      <point x="616" y="909" type="curve" smooth="yes"/>
      <point x="541" y="909"/>
      <point x="488" y="874"/>
      <point x="451" y="817" type="curve" smooth="yes"/>
      <point x="411" y="755"/>
      <point x="391" y="669"/>
      <point x="391" y="560" type="curve" smooth="yes"/>
      <point x="391" y="339"/>
      <point x="476" y="209"/>
      <point x="616" y="209" type="curve" smooth="yes"/>
    </contour>
  </outline>
</glyph>
<glyph name="oslash" format="1">
  <advance width="1233"/>
  <unicode hex="00F8"/>
  <note>
	oslash
  </note>
  <outline>
    <contour>
      <point x="25" y="2" type="line"/>
      <point x="188" y="199" type="line"/>
      <point x="129" y="295"/>
      <point x="98" y="415"/>
      <point x="98" y="559" type="curve" smooth="yes"/>
      <point x="98" y="739"/>
      <point x="146" y="885"/>
      <point x="238" y="989" type="curve" smooth="yes"/>
      <point x="331" y="1094"/>
      <point x="462" y="1147"/>
      <point x="615" y="1147" type="curve" smooth="yes"/>
      <point x="671" y="1147"/>
      <point x="728" y="1141"/>
      <point x="775" y="1126" type="curve" smooth="yes"/>
      <point x="819" y="1113"/>
      <point x="870" y="1090"/>
      <point x="915" y="1059" type="curve"/>
      <point x="1063" y="1235" type="line"/>
      <point x="1202" y="1114" type="line"/>
      <point x="1042" y="926" type="line"/>
      <point x="1075" y="871"/>
      <point x="1099" y="809"/>
      <point x="1112" y="758" type="curve" smooth="yes"/>
      <point x="1127" y="702"/>
      <point x="1135" y="633"/>
      <point x="1135" y="557" type="curve" smooth="yes"/>
      <point x="1135" y="382"/>
      <point x="1088" y="235"/>
      <point x="996" y="130" type="curve" smooth="yes"/>
      <point x="908" y="30"/>
      <point x="780" y="-29"/>
      <point x="620" y="-29" type="curve" smooth="yes"/>
      <point x="560" y="-29"/>
      <point x="509" y="-21"/>
      <point x="458" y="-6" type="curve" smooth="yes"/>
      <point x="407" y="9"/>
      <point x="364" y="29"/>
      <point x="315" y="61" type="curve"/>
      <point x="164" y="-117" type="line"/>
    </contour>
    <contour>
      <point x="745" y="860" type="line"/>
      <point x="712" y="893"/>
      <point x="669" y="909"/>
      <point x="618" y="909" type="curve" smooth="yes"/>
      <point x="477" y="909"/>
      <point x="391" y="780"/>
      <point x="391" y="559" type="curve" smooth="yes"/>
      <point x="391" y="535"/>
      <point x="392" y="516"/>
      <point x="393" y="499" type="curve"/>
      <point x="394" y="491"/>
      <point x="394" y="484"/>
      <point x="395" y="478" type="curve"/>
      <point x="395" y="472"/>
      <point x="396" y="462"/>
      <point x="399" y="449" type="curve"/>
    </contour>
    <contour>
      <point x="758" y="209"/>
      <point x="807" y="328"/>
      <point x="827" y="415" type="curve" smooth="yes"/>
      <point x="837" y="458"/>
      <point x="842" y="504"/>
      <point x="842" y="553" type="curve" smooth="yes"/>
      <point x="842" y="576"/>
      <point x="841" y="602"/>
      <point x="840" y="617" type="curve" smooth="yes"/>
      <point x="839" y="629"/>
      <point x="835" y="656"/>
      <point x="831" y="675" type="curve"/>
      <point x="483" y="262" type="line"/>
      <point x="524" y="227"/>
      <point x="566" y="209"/>
      <point x="617" y="209" type="curve" smooth="yes"/>
    </contour>
  </outline>
</glyph>
<glyph name="thorn" format="1">
  <advance width="1233"/>
  <unicode hex="00FE"/>
  <note>
	thorn
  </note>
  <outline>
    <contour>
      <point x="150" y="1556" type="line"/>
      <point x="442" y="1556" type="line"/>
      <point x="442" y="952" type="line"/>
      <point x="503" y="1081"/>
      <point x="603" y="1147"/>
      <point x="740" y="1147" type="curve" smooth="yes"/>
      <point x="865" y="1147"/>
      <point x="965" y="1097"/>
      <point x="1037" y="994" type="curve" smooth="yes"/>
      <point x="1109" y="890"/>
      <point x="1143" y="741"/>
      <point x="1143" y="558" type="curve" smooth="yes"/>
      <point x="1143" y="363"/>
      <point x="1104" y="219"/>
      <point x="1036" y="123" type="curve" smooth="yes"/>
      <point x="963" y="19"/>
      <point x="856" y="-29"/>
      <point x="735" y="-29" type="curve" smooth="yes"/>
      <point x="672" y="-29"/>
      <point x="618" y="-17"/>
      <point x="567" y="18" type="curve" smooth="yes"/>
      <point x="524" y="46"/>
      <point x="477" y="94"/>
      <point x="442" y="158" type="curve"/>
      <point x="442" y="-426" type="line"/>
      <point x="150" y="-426" type="line"/>
    </contour>
    <contour>
      <point x="774" y="215"/>
      <point x="850" y="344"/>
      <point x="850" y="561" type="curve" smooth="yes"/>
      <point x="850" y="777"/>
      <point x="774" y="907"/>
      <point x="647" y="907" type="curve" smooth="yes"/>
      <point x="522" y="907"/>
      <point x="442" y="778"/>
      <point x="442" y="561" type="curve" smooth="yes"/>
      <point x="442" y="344"/>
      <point x="522" y="215"/>
      <point x="647" y="215" type="curve" smooth="yes"/>
    </contour>
  </outline>
</glyph>
<glyph name="cacute" format="1">
  <advance width="1233"/>
  <unicode hex="0107"/>
  <note>
	cacute
  </note>
  <outline>
    <contour>
      <point x="854" y="1672" type="line"/>
      <point x="1136" y="1672" type="line"/>
      <point x="768" y="1296" type="line"/>
      <point x="571" y="1296" type="line"/>
    </contour>
    <contour>
      <point x="371" y="-29"/>
      <point x="168" y="192"/>
      <point x="168" y="559" type="curve" smooth="yes"/>
      <point x="168" y="927"/>
      <point x="376" y="1149"/>
      <point x="719" y="1149" type="curve" smooth="yes"/>
      <point x="842" y="1149"/>
      <point x="950" y="1122"/>
      <point x="1061" y="1063" type="curve"/>
      <point x="1061" y="795" type="line"/>
      <point x="1018" y="832"/>
      <point x="968" y="861"/>
      <point x="921" y="880" type="curve" smooth="yes"/>
      <point x="874" y="899"/>
      <point x="818" y="909"/>
      <point x="761" y="909" type="curve" smooth="yes"/>
      <point x="661" y="909"/>
      <point x="591" y="877"/>
      <point x="542" y="818" type="curve" smooth="yes"/>
      <point x="491" y="757"/>
      <point x="465" y="670"/>
      <point x="465" y="559" type="curve" smooth="yes"/>
      <point x="465" y="336"/>
      <point x="570" y="211"/>
      <point x="762" y="211" type="curve" smooth="yes"/>
      <point x="818" y="211"/>
      <point x="871" y="221"/>
      <point x="921" y="240" type="curve" smooth="yes"/>
      <point x="964" y="256"/>
      <point x="1014" y="283"/>
      <point x="1061" y="326" type="curve"/>
      <point x="1061" y="57" type="line"/>
      <point x="1008" y="26"/>
      <point x="958" y="8"/>
      <point x="902" y="-7" type="curve" smooth="yes"/>
      <point x="846" y="-22"/>
      <point x="791" y="-29"/>
      <point x="722" y="-29" type="curve" smooth="yes"/>
    </contour>
  </outline>
</glyph>
<glyph name="ccircumflex" format="1">
  <advance width="1233"/>
  <unicode hex="0109"/>
  <note>
	ccircumflex
  </note>
  <outline>
    <contour>
      <point x="282" y="1297" type="line"/>
      <point x="538" y="1596" type="line"/>
      <point x="779" y="1596" type="line"/>
      <point x="1035" y="1297" type="line"/>
      <point x="857" y="1297" type="line"/>
      <point x="658" y="1444" type="line"/>
      <point x="460" y="1297" type="line"/>
    </contour>
    <contour>
      <point x="1041" y="57" type="line"/>
      <point x="944" y="2"/>
      <point x="826" y="-29"/>
      <point x="702" y="-29" type="curve" smooth="yes"/>
      <point x="473" y="-29"/>
      <point x="302" y="68"/>
      <point x="214" y="245" type="curve" smooth="yes"/>
      <point x="170" y="333"/>
      <point x="148" y="438"/>
      <point x="148" y="559" type="curve" smooth="yes"/>
      <point x="148" y="803"/>
      <point x="238" y="984"/>
      <point x="405" y="1079" type="curve" smooth="yes"/>
      <point x="488" y="1126"/>
      <point x="586" y="1149"/>
      <point x="699" y="1149" type="curve" smooth="yes"/>
      <point x="822" y="1149"/>
      <point x="930" y="1122"/>
      <point x="1041" y="1063" type="curve"/>
      <point x="1041" y="795" type="line"/>
      <point x="954" y="871"/>
      <point x="854" y="909"/>
      <point x="741" y="909" type="curve" smooth="yes"/>
      <point x="550" y="909"/>
      <point x="445" y="783"/>
      <point x="445" y="559" type="curve" smooth="yes"/>
      <point x="445" y="335"/>
      <point x="550" y="211"/>
      <point x="742" y="211" type="curve" smooth="yes"/>
      <point x="854" y="211"/>
      <point x="958" y="250"/>
      <point x="1041" y="326" type="curve"/>
    </contour>
  </outline>
</glyph>
<glyph name="dcaron" format="1">
  <advance width="1233"/>
  <unicode hex="010F"/>
  <note>
	dcaron
  </note>
  <outline>
    <contour>
      <point x="364" y="-29"/>
      <point x="265" y="25"/>
      <point x="196" y="125" type="curve" smooth="yes"/>
      <point x="127" y="225"/>
      <point x="90" y="372"/>
      <point x="90" y="559" type="curve" smooth="yes"/>
      <point x="90" y="748"/>
      <point x="129" y="895"/>
      <point x="199" y="995" type="curve" smooth="yes"/>
      <point x="269" y="1095"/>
      <point x="370" y="1147"/>
      <point x="495" y="1147" type="curve" smooth="yes"/>
      <point x="626" y="1147"/>
      <point x="714" y="1092"/>
      <point x="791" y="961" type="curve"/>
      <point x="791" y="1556" type="line"/>
      <point x="1083" y="1556" type="line"/>
      <point x="1083" y="0" type="line"/>
      <point x="820" y="0" type="line"/>
      <point x="791" y="166" type="line"/>
      <point x="728" y="39"/>
      <point x="635" y="-29"/>
      <point x="491" y="-29" type="curve" smooth="yes"/>
    </contour>
    <contour>
      <point x="1168" y="1555" type="line"/>
      <point x="1456" y="1555" type="line"/>
      <point x="1292" y="1172" type="line"/>
      <point x="1090" y="1172" type="line"/>
    </contour>
    <contour>
      <point x="650" y="211"/>
      <point x="701" y="243"/>
      <point x="737" y="303" type="curve" smooth="yes"/>
      <point x="772" y="363"/>
      <point x="791" y="449"/>
      <point x="791" y="557" type="curve" smooth="yes"/>
      <point x="791" y="665"/>
      <point x="772" y="751"/>
      <point x="737" y="811" type="curve" smooth="yes"/>
      <point x="701" y="871"/>
      <point x="650" y="903"/>
      <point x="586" y="903" type="curve" smooth="yes"/>
      <point x="522" y="903"/>
      <point x="472" y="871"/>
      <point x="437" y="811" type="curve" smooth="yes"/>
      <point x="402" y="751"/>
      <point x="383" y="665"/>
      <point x="383" y="557" type="curve" smooth="yes"/>
      <point x="383" y="449"/>
      <point x="402" y="363"/>
      <point x="437" y="303" type="curve" smooth="yes"/>
      <point x="472" y="243"/>
      <point x="522" y="211"/>
      <point x="586" y="211" type="curve" smooth="yes"/>
    </contour>
  </outline>
</glyph>
<glyph name="dcroat" format="1">
  <advance width="1233"/>
  <unicode hex="0111"/>
  <note>
	dcroat
  </note>
  <outline>
    <contour>
      <point x="368" y="-29"/>
      <point x="268" y="21"/>
      <point x="196" y="124" type="curve" smooth="yes"/>
      <point x="125" y="226"/>
      <point x="90" y="371"/>
      <point x="90" y="560" type="curve" smooth="yes"/>
      <point x="90" y="749"/>
      <point x="126" y="894"/>
      <point x="198" y="995" type="curve" smooth="yes"/>
      <point x="266" y="1091"/>
      <point x="366" y="1147"/>
      <point x="498" y="1147" type="curve" smooth="yes"/>
      <point x="562" y="1147"/>
      <point x="615" y="1134"/>
      <point x="666" y="1101" type="curve" smooth="yes"/>
      <point x="713" y="1070"/>
      <point x="755" y="1023"/>
      <point x="791" y="961" type="curve"/>
      <point x="791" y="1251" type="line"/>
      <point x="485" y="1251" type="line"/>
      <point x="485" y="1440" type="line"/>
      <point x="791" y="1440" type="line"/>
      <point x="791" y="1556" type="line"/>
      <point x="1083" y="1556" type="line"/>
      <point x="1083" y="1440" type="line"/>
      <point x="1229" y="1440" type="line"/>
      <point x="1229" y="1251" type="line"/>
      <point x="1083" y="1251" type="line"/>
      <point x="1083" y="0" type="line"/>
      <point x="820" y="0" type="line"/>
      <point x="791" y="166" type="line"/>
      <point x="760" y="101"/>
      <point x="718" y="52"/>
      <point x="670" y="20" type="curve" smooth="yes"/>
      <point x="621" y="-13"/>
      <point x="561" y="-29"/>
      <point x="492" y="-29" type="curve" smooth="yes"/>
    </contour>
    <contour>
      <point x="711" y="211"/>
      <point x="791" y="340"/>
      <point x="791" y="557" type="curve" smooth="yes"/>
      <point x="791" y="774"/>
      <point x="711" y="903"/>
      <point x="586" y="903" type="curve" smooth="yes"/>
      <point x="459" y="903"/>
      <point x="383" y="773"/>
      <point x="383" y="557" type="curve" smooth="yes"/>
      <point x="383" y="340"/>
      <point x="459" y="211"/>
      <point x="586" y="211" type="curve" smooth="yes"/>
    </contour>
  </outline>
</glyph>
<glyph name="ecaron" format="1">
  <advance width="1233"/>
  <unicode hex="011B"/>
  <note>
	ecaron
  </note>
  <outline>
    <contour>
      <point x="247" y="1678" type="line"/>
      <point x="425" y="1678" type="line"/>
      <point x="623" y="1451" type="line"/>
      <point x="822" y="1678" type="line"/>
      <point x="1000" y="1678" type="line"/>
      <point x="744" y="1302" type="line"/>
      <point x="503" y="1302" type="line"/>
    </contour>
    <contour>
      <point x="476" y="-29"/>
      <point x="330" y="22"/>
      <point x="231" y="121" type="curve" smooth="yes"/>
      <point x="132" y="220"/>
      <point x="82" y="363"/>
      <point x="82" y="550" type="curve" smooth="yes"/>
      <point x="82" y="735"/>
      <point x="132" y="884"/>
      <point x="224" y="987" type="curve" smooth="yes"/>
      <point x="316" y="1090"/>
      <point x="450" y="1147"/>
      <point x="621" y="1147" type="curve" smooth="yes"/>
      <point x="782" y="1147"/>
      <point x="912" y="1095"/>
      <point x="1001" y="999" type="curve" smooth="yes"/>
      <point x="1090" y="903"/>
      <point x="1139" y="763"/>
      <point x="1139" y="584" type="curve" smooth="yes"/>
      <point x="1139" y="465" type="line"/>
      <point x="380" y="465" type="line"/>
      <point x="381" y="290"/>
      <point x="483" y="203"/>
      <point x="688" y="203" type="curve" smooth="yes"/>
      <point x="824" y="203"/>
      <point x="948" y="240"/>
      <point x="1092" y="324" type="curve"/>
      <point x="1092" y="55" type="line"/>
      <point x="959" y="-1"/>
      <point x="814" y="-29"/>
      <point x="669" y="-29" type="curve" smooth="yes"/>
    </contour>
    <contour>
      <point x="844" y="685" type="line"/>
      <point x="841" y="840"/>
      <point x="761" y="920"/>
      <point x="620" y="920" type="curve" smooth="yes"/>
      <point x="476" y="920"/>
      <point x="399" y="837"/>
      <point x="383" y="684" type="curve"/>
    </contour>
  </outline>
</glyph>
<glyph name="gdotaccent" format="1">
  <advance width="1233"/>
  <unicode hex="0121"/>
  <note>
	gdotaccent
  </note>
  <outline>
    <contour>
      <point x="509" y="1349" type="line" smooth="yes"/>
      <point x="489" y="1349"/>
      <point x="479" y="1359"/>
      <point x="479" y="1379" type="curve" smooth="yes"/>
      <point x="479" y="1565" type="line" smooth="yes"/>
      <point x="479" y="1585"/>
      <point x="489" y="1595"/>
      <point x="509" y="1595" type="curve" smooth="yes"/>
      <point x="724" y="1595" type="line" smooth="yes"/>
      <point x="744" y="1595"/>
      <point x="754" y="1585"/>
      <point x="754" y="1565" type="curve" smooth="yes"/>
      <point x="754" y="1379" type="line" smooth="yes"/>
      <point x="754" y="1359"/>
      <point x="744" y="1349"/>
      <point x="724" y="1349" type="curve" smooth="yes"/>
    </contour>
    <contour>
      <point x="455" y="-424"/>
      <point x="340" y="-406"/>
      <point x="215" y="-369" type="curve"/>
      <point x="215" y="-100" type="line"/>
      <point x="326" y="-161"/>
      <point x="445" y="-190"/>
      <point x="554" y="-190" type="curve" smooth="yes"/>
      <point x="726" y="-190"/>
      <point x="803" y="-117"/>
      <point x="803" y="51" type="curve" smooth="yes"/>
      <point x="803" y="172" type="line"/>
      <point x="744" y="61"/>
      <point x="645" y="14"/>
      <point x="520" y="14" type="curve" smooth="yes"/>
      <point x="388" y="14"/>
      <point x="283" y="68"/>
      <point x="211" y="165" type="curve" smooth="yes"/>
      <point x="138" y="261"/>
      <point x="98" y="401"/>
      <point x="98" y="574" type="curve" smooth="yes"/>
      <point x="98" y="750"/>
      <point x="139" y="894"/>
      <point x="212" y="994" type="curve" smooth="yes"/>
      <point x="284" y="1093"/>
      <point x="387" y="1149"/>
      <point x="511" y="1149" type="curve" smooth="yes"/>
      <point x="644" y="1149"/>
      <point x="746" y="1086"/>
      <point x="803" y="977" type="curve"/>
      <point x="832" y="1120" type="line"/>
      <point x="1096" y="1120" type="line"/>
      <point x="1096" y="84" type="line" smooth="yes"/>
      <point x="1096" y="-95"/>
      <point x="1058" y="-222"/>
      <point x="975" y="-304" type="curve" smooth="yes"/>
      <point x="891" y="-386"/>
      <point x="763" y="-424"/>
      <point x="582" y="-424" type="curve" smooth="yes"/>
    </contour>
    <contour>
      <point x="657" y="246"/>
      <point x="710" y="279"/>
      <point x="746" y="337" type="curve" smooth="yes"/>
      <point x="782" y="395"/>
      <point x="803" y="478"/>
      <point x="803" y="578" type="curve" smooth="yes"/>
      <point x="803" y="678"/>
      <point x="782" y="761"/>
      <point x="746" y="819" type="curve" smooth="yes"/>
      <point x="710" y="877"/>
      <point x="657" y="909"/>
      <point x="596" y="909" type="curve" smooth="yes"/>
      <point x="535" y="909"/>
      <point x="483" y="877"/>
      <point x="447" y="819" type="curve" smooth="yes"/>
      <point x="411" y="761"/>
      <point x="391" y="678"/>
      <point x="391" y="577" type="curve" smooth="yes"/>
      <point x="391" y="476"/>
      <point x="411" y="393"/>
      <point x="447" y="336" type="curve" smooth="yes"/>
      <point x="483" y="279"/>
      <point x="535" y="246"/>
      <point x="596" y="246" type="curve" smooth="yes"/>
    </contour>
  </outline>
</glyph>
<glyph name="uni0122" format="1">
  <advance width="1233"/>
  <unicode hex="0122"/>
  <note>
	uni0122
  </note>
  <outline>
    <contour>
      <point x="528" y="-29"/>
      <point x="378" y="41"/>
      <point x="275" y="173" type="curve" smooth="yes"/>
      <point x="172" y="305"/>
      <point x="117" y="499"/>
      <point x="117" y="747" type="curve" smooth="yes"/>
      <point x="117" y="998"/>
      <point x="173" y="1190"/>
      <point x="278" y="1321" type="curve" smooth="yes"/>
      <point x="382" y="1452"/>
      <point x="535" y="1520"/>
      <point x="727" y="1520" type="curve" smooth="yes"/>
      <point x="862" y="1520"/>
      <point x="970" y="1488"/>
      <point x="1077" y="1421" type="curve"/>
      <point x="1077" y="1094" type="line"/>
      <point x="994" y="1201"/>
      <point x="887" y="1255"/>
      <point x="758" y="1255" type="curve" smooth="yes"/>
      <point x="535" y="1255"/>
      <point x="424" y="1086"/>
      <point x="424" y="747" type="curve" smooth="yes"/>
      <point x="424" y="411"/>
      <point x="528" y="236"/>
      <point x="743" y="236" type="curve" smooth="yes"/>
      <point x="796" y="236"/>
      <point x="844" y="247"/>
      <point x="872" y="270" type="curve"/>
      <point x="872" y="555" type="line"/>
      <point x="670" y="555" type="line"/>
      <point x="670" y="803" type="line"/>
      <point x="1130" y="803" type="line"/>
      <point x="1130" y="119" type="line"/>
      <point x="1015" y="20"/>
      <point x="878" y="-29"/>
      <point x="719" y="-29" type="curve" smooth="yes"/>
    </contour>
    <contour>
      <point x="627" y="-187" type="line"/>
      <point x="909" y="-187" type="line"/>
      <point x="732" y="-493" type="line"/>
      <point x="538" y="-493" type="line"/>
    </contour>
  </outline>
</glyph>
<glyph name="Itilde" format="1">
  <advance width="1233"/>
  <unicode hex="0128"/>
  <note>
	Itilde
  </note>
  <outline>
    <contour>
      <point x="268" y="1618" type="line" smooth="yes"/>
      <point x="268" y="1689"/>
      <point x="288" y="1748"/>
      <point x="323" y="1789" type="curve" smooth="yes"/>
      <point x="358" y="1830"/>
      <point x="406" y="1854"/>
      <point x="463" y="1854" type="curve" smooth="yes"/>
      <point x="514" y="1854"/>
      <point x="566" y="1836"/>
      <point x="614" y="1805" type="curve" smooth="yes"/>
      <point x="674" y="1766" type="line" smooth="yes"/>
      <point x="701" y="1749"/>
      <point x="724" y="1737"/>
      <point x="751" y="1737" type="curve" smooth="yes"/>
      <point x="798" y="1737"/>
      <point x="825" y="1778"/>
      <point x="825" y="1854" type="curve"/>
      <point x="965" y="1854" type="line"/>
      <point x="965" y="1853"/>
      <point x="965" y="1851"/>
      <point x="965" y="1848" type="curve" smooth="yes"/>
      <point x="965" y="1845"/>
      <point x="965" y="1842"/>
      <point x="964" y="1839" type="curve" smooth="yes"/>
      <point x="963" y="1836"/>
      <point x="963" y="1833"/>
      <point x="963" y="1831" type="curve" smooth="yes"/>
      <point x="963" y="1829"/>
      <point x="963" y="1827"/>
      <point x="963" y="1826" type="curve" smooth="yes"/>
      <point x="963" y="1754"/>
      <point x="944" y="1694"/>
      <point x="910" y="1653" type="curve" smooth="yes"/>
      <point x="876" y="1612"/>
      <point x="826" y="1588"/>
      <point x="765" y="1588" type="curve" smooth="yes"/>
      <point x="718" y="1588"/>
      <point x="675" y="1601"/>
      <point x="618" y="1637" type="curve" smooth="yes"/>
      <point x="564" y="1671" type="line"/>
      <point x="552" y="1678" type="line" smooth="yes"/>
      <point x="525" y="1693"/>
      <point x="503" y="1704"/>
      <point x="480" y="1704" type="curve" smooth="yes"/>
      <point x="437" y="1704"/>
      <point x="408" y="1662"/>
      <point x="408" y="1594" type="curve" smooth="yes"/>
      <point x="408" y="1588" type="line"/>
      <point x="268" y="1588" type="line"/>
    </contour>
    <contour>
      <point x="172" y="260" type="line"/>
      <point x="469" y="260" type="line"/>
      <point x="469" y="1233" type="line"/>
      <point x="172" y="1233" type="line"/>
      <point x="172" y="1493" type="line"/>
      <point x="1061" y="1493" type="line"/>
      <point x="1061" y="1233" type="line"/>
      <point x="764" y="1233" type="line"/>
      <point x="764" y="260" type="line"/>
      <point x="1061" y="260" type="line"/>
      <point x="1061" y="0" type="line"/>
      <point x="172" y="0" type="line"/>
    </contour>
  </outline>
</glyph>
<glyph name="itilde" format="1">
  <advance width="1233"/>
  <unicode hex="0129"/>
  <note>
	itilde
  </note>
  <outline>
    <contour>
      <point x="693" y="1270"/>
      <point x="674" y="1273"/>
      <point x="651" y="1282" type="curve"/>
      <point x="628" y="1290"/>
      <point x="601" y="1304"/>
      <point x="568" y="1327" type="curve" smooth="yes"/>
      <point x="513" y="1364" type="line"/>
      <point x="501" y="1372" type="line" smooth="yes"/>
      <point x="472" y="1391"/>
      <point x="450" y="1401"/>
      <point x="429" y="1401" type="curve" smooth="yes"/>
      <point x="384" y="1401"/>
      <point x="358" y="1357"/>
      <point x="358" y="1280" type="curve" smooth="yes"/>
      <point x="358" y="1272" type="line"/>
      <point x="218" y="1272" type="line"/>
      <point x="218" y="1455"/>
      <point x="290" y="1556"/>
      <point x="415" y="1556" type="curve" smooth="yes"/>
      <point x="466" y="1556"/>
      <point x="507" y="1539"/>
      <point x="564" y="1499" type="curve" smooth="yes"/>
      <point x="626" y="1456" type="line" smooth="yes"/>
      <point x="653" y="1437"/>
      <point x="677" y="1425"/>
      <point x="701" y="1425" type="curve" smooth="yes"/>
      <point x="748" y="1425"/>
      <point x="775" y="1470"/>
      <point x="775" y="1546" type="curve" smooth="yes"/>
      <point x="775" y="1554" type="line"/>
      <point x="915" y="1554" type="line"/>
      <point x="915" y="1371"/>
      <point x="845" y="1270"/>
      <point x="714" y="1270" type="curve" smooth="yes"/>
    </contour>
    <contour>
      <point x="812" y="-12" type="line" smooth="yes"/>
      <point x="533" y="-12"/>
      <point x="421" y="119"/>
      <point x="421" y="455" type="curve" smooth="yes"/>
      <point x="421" y="895" type="line"/>
      <point x="184" y="895" type="line"/>
      <point x="184" y="1120" type="line"/>
      <point x="714" y="1120" type="line"/>
      <point x="714" y="455" type="line" smooth="yes"/>
      <point x="714" y="280"/>
      <point x="762" y="213"/>
      <point x="894" y="213" type="curve" smooth="yes"/>
      <point x="1128" y="213" type="line"/>
      <point x="1128" y="-12" type="line"/>
    </contour>
  </outline>
</glyph>
<glyph name="imacron" format="1">
  <advance width="1233"/>
  <unicode hex="012B"/>
  <note>
	imacron
  </note>
  <outline>
    <contour>
      <point x="230" y="1536" type="line"/>
      <point x="861" y="1536" type="line"/>
      <point x="861" y="1348" type="line"/>
      <point x="230" y="1348" type="line"/>
    </contour>
    <contour>
      <point x="812" y="-12" type="line" smooth="yes"/>
      <point x="533" y="-12"/>
      <point x="421" y="119"/>
      <point x="421" y="455" type="curve" smooth="yes"/>
      <point x="421" y="895" type="line"/>
      <point x="184" y="895" type="line"/>
      <point x="184" y="1120" type="line"/>
      <point x="714" y="1120" type="line"/>
      <point x="714" y="455" type="line" smooth="yes"/>
      <point x="714" y="280"/>
      <point x="762" y="213"/>
      <point x="894" y="213" type="curve" smooth="yes"/>
      <point x="1128" y="213" type="line"/>
      <point x="1128" y="-12" type="line"/>
    </contour>
  </outline>
</glyph>
<glyph name="Iogonek" format="1">
  <advance width="1233"/>
  <unicode hex="012E"/>
  <note>
	Iogonek
  </note>
  <outline>
    <contour>
      <point x="764" y="1233" type="line"/>
      <point x="764" y="260" type="line"/>
      <point x="1061" y="260" type="line"/>
      <point x="1061" y="0" type="line"/>
      <point x="764" y="0" type="line"/>
      <point x="741" y="-31"/>
      <point x="726" y="-53"/>
      <point x="715" y="-69" type="curve"/>
      <point x="710" y="-77"/>
      <point x="705" y="-84"/>
      <point x="702" y="-90" type="curve" smooth="yes"/>
      <point x="699" y="-96"/>
      <point x="696" y="-101"/>
      <point x="693" y="-106" type="curve"/>
      <point x="680" y="-130"/>
      <point x="674" y="-147"/>
      <point x="674" y="-166" type="curve" smooth="yes"/>
      <point x="674" y="-213"/>
      <point x="709" y="-254"/>
      <point x="792" y="-254" type="curve" smooth="yes"/>
      <point x="833" y="-254"/>
      <point x="887" y="-244"/>
      <point x="940" y="-223" type="curve"/>
      <point x="940" y="-379" type="line"/>
      <point x="868" y="-394"/>
      <point x="804" y="-401"/>
      <point x="753" y="-401" type="curve" smooth="yes"/>
      <point x="597" y="-401"/>
      <point x="512" y="-339"/>
      <point x="512" y="-224" type="curve" smooth="yes"/>
      <point x="512" y="-151"/>
      <point x="547" y="-81"/>
      <point x="623" y="0" type="curve"/>
      <point x="172" y="0" type="line"/>
      <point x="172" y="260" type="line"/>
      <point x="469" y="260" type="line"/>
      <point x="469" y="1233" type="line"/>
      <point x="172" y="1233" type="line"/>
      <point x="172" y="1493" type="line"/>
      <point x="1061" y="1493" type="line"/>
      <point x="1061" y="1233" type="line"/>
    </contour>
  </outline>
</glyph>
<glyph name="dotlessi" format="1">
  <advance width="1233"/>
  <unicode hex="0131"/>
  <note>
	dotlessi
  </note>
  <outline>
    <contour>
      <point x="533" y="-12"/>
      <point x="421" y="119"/>
      <point x="421" y="455" type="curve" smooth="yes"/>
      <point x="421" y="895" type="line"/>
      <point x="184" y="895" type="line"/>
      <point x="184" y="1120" type="line"/>
      <point x="714" y="1120" type="line"/>
      <point x="714" y="455" type="line" smooth="yes"/>
      <point x="714" y="280"/>
      <point x="762" y="213"/>
      <point x="894" y="213" type="curve" smooth="yes"/>
      <point x="1128" y="213" type="line"/>
      <point x="1128" y="-12" type="line"/>
      <point x="812" y="-12" type="line" smooth="yes"/>
    </contour>
  </outline>
</glyph>
<glyph name="IJ" format="1">
  <advance width="1233"/>
  <unicode hex="0132"/>
  <outline>
    <contour>
      <point x="135" y="1493" type="line"/>
      <point x="430" y="1493" type="line"/>
      <point x="430" y="590" type="line"/>
      <point x="135" y="590" type="line"/>
    </contour>
    <contour>
      <point x="135" y="0" type="line"/>
      <point x="135" y="295" type="line"/>
      <point x="509" y="295" type="line"/>
      <point x="672" y="295"/>
      <point x="804" y="427"/>
      <point x="804" y="590" type="curve"/>
      <point x="804" y="1494" type="line"/>
      <point x="1098" y="1494" type="line"/>
      <point x="1099" y="590" type="line"/>
      <point x="1099" y="264"/>
      <point x="835" y="0"/>
      <point x="509" y="0" type="curve"/>
    </contour>
  </outline>
</glyph>
<glyph name="ij" format="1">
  <advance width="1233"/>
  <unicode hex="0133"/>
  <outline>
    <contour>
      <point x="207" y="1253" type="line" smooth="yes"/>
      <point x="187" y="1253"/>
      <point x="177" y="1263"/>
      <point x="177" y="1283" type="curve" smooth="yes"/>
      <point x="177" y="1565" type="line" smooth="yes"/>
      <point x="177" y="1585"/>
      <point x="187" y="1595"/>
      <point x="207" y="1595" type="curve" smooth="yes"/>
      <point x="440" y="1595" type="line" smooth="yes"/>
      <point x="460" y="1595"/>
      <point x="470" y="1585"/>
      <point x="470" y="1565" type="curve" smooth="yes"/>
      <point x="470" y="1283" type="line" smooth="yes"/>
      <point x="470" y="1263"/>
      <point x="460" y="1253"/>
      <point x="440" y="1253" type="curve" smooth="yes"/>
    </contour>
    <contour>
      <point x="568" y="-12" type="line" smooth="yes"/>
      <point x="289" y="-12"/>
      <point x="177" y="119"/>
      <point x="177" y="455" type="curve" smooth="yes"/>
      <point x="177" y="895" type="line"/>
      <point x="10" y="895" type="line"/>
      <point x="10" y="1120" type="line"/>
      <point x="470" y="1120" type="line"/>
      <point x="470" y="455" type="line" smooth="yes"/>
      <point x="470" y="280"/>
      <point x="518" y="213"/>
      <point x="650" y="213" type="curve" smooth="yes"/>
      <point x="724" y="213" type="line"/>
      <point x="724" y="-12" type="line"/>
    </contour>
    <contour>
      <point x="930" y="1253" type="line" smooth="yes"/>
      <point x="910" y="1253"/>
      <point x="900" y="1263"/>
      <point x="900" y="1283" type="curve" smooth="yes"/>
      <point x="900" y="1565" type="line" smooth="yes"/>
      <point x="900" y="1585"/>
      <point x="910" y="1595"/>
      <point x="930" y="1595" type="curve" smooth="yes"/>
      <point x="1163" y="1595" type="line" smooth="yes"/>
      <point x="1183" y="1595"/>
      <point x="1193" y="1585"/>
      <point x="1193" y="1565" type="curve" smooth="yes"/>
      <point x="1193" y="1283" type="line" smooth="yes"/>
      <point x="1193" y="1263"/>
      <point x="1183" y="1253"/>
      <point x="1163" y="1253" type="curve" smooth="yes"/>
    </contour>
    <contour>
      <point x="486" y="-199" type="line"/>
      <point x="720" y="-199" type="line" smooth="yes"/>
      <point x="852" y="-199"/>
      <point x="900" y="-132"/>
      <point x="900" y="43" type="curve" smooth="yes"/>
      <point x="900" y="895" type="line"/>
      <point x="653" y="895" type="line"/>
      <point x="653" y="1120" type="line"/>
      <point x="1193" y="1120" type="line"/>
      <point x="1193" y="43" type="line" smooth="yes"/>
      <point x="1193" y="-125"/>
      <point x="1163" y="-245"/>
      <point x="1103" y="-317" type="curve" smooth="yes"/>
      <point x="1044" y="-386"/>
      <point x="945" y="-424"/>
      <point x="802" y="-424" type="curve" smooth="yes"/>
      <point x="486" y="-424" type="line"/>
    </contour>
  </outline>
</glyph>
<glyph name="jcircumflex" format="1">
  <advance width="1233"/>
  <unicode hex="0135"/>
  <note>
	jcircumflex
  </note>
  <outline>
    <contour>
      <point x="354" y="1297" type="line"/>
      <point x="610" y="1673" type="line"/>
      <point x="851" y="1673" type="line"/>
      <point x="1107" y="1297" type="line"/>
      <point x="929" y="1297" type="line"/>
      <point x="730" y="1522" type="line"/>
      <point x="532" y="1297" type="line"/>
    </contour>
    <contour>
      <point x="170" y="-424" type="line"/>
      <point x="170" y="-199" type="line"/>
      <point x="404" y="-199" type="line" smooth="yes"/>
      <point x="493" y="-199"/>
      <point x="543" y="-168"/>
      <point x="567" y="-99" type="curve"/>
      <point x="578" y="-63"/>
      <point x="584" y="-16"/>
      <point x="584" y="43" type="curve" smooth="yes"/>
      <point x="584" y="895" type="line"/>
      <point x="287" y="895" type="line"/>
      <point x="287" y="1120" type="line"/>
      <point x="877" y="1120" type="line"/>
      <point x="877" y="43" type="line" smooth="yes"/>
      <point x="877" y="-184"/>
      <point x="826" y="-314"/>
      <point x="713" y="-377" type="curve" smooth="yes"/>
      <point x="656" y="-408"/>
      <point x="580" y="-424"/>
      <point x="486" y="-424" type="curve" smooth="yes"/>
    </contour>
  </outline>
</glyph>
<glyph name="lacute" format="1">
  <advance width="1233"/>
  <unicode hex="013A"/>
  <note>
	lacute
  </note>
  <outline>
    <contour>
      <point x="669" y="1900" type="line"/>
      <point x="953" y="1900" type="line"/>
      <point x="667" y="1636" type="line"/>
      <point x="470" y="1636" type="line"/>
    </contour>
    <contour>
      <point x="778" y="-8" type="line" smooth="yes"/>
      <point x="638" y="-8"/>
      <point x="541" y="25"/>
      <point x="478" y="100" type="curve" smooth="yes"/>
      <point x="415" y="175"/>
      <point x="387" y="291"/>
      <point x="387" y="459" type="curve" smooth="yes"/>
      <point x="387" y="1331" type="line"/>
      <point x="90" y="1331" type="line"/>
      <point x="90" y="1556" type="line"/>
      <point x="680" y="1556" type="line"/>
      <point x="680" y="459" type="line" smooth="yes"/>
      <point x="680" y="371"/>
      <point x="692" y="311"/>
      <point x="721" y="272" type="curve" smooth="yes"/>
      <point x="749" y="233"/>
      <point x="795" y="217"/>
      <point x="860" y="217" type="curve" smooth="yes"/>
      <point x="1094" y="217" type="line"/>
      <point x="1094" y="-8" type="line"/>
    </contour>
  </outline>
</glyph>
<glyph name="Ldot" format="1">
  <advance width="1233"/>
  <unicode hex="013F"/>
  <outline>
    <contour>
      <point x="225" y="1493" type="line"/>
      <point x="520" y="1493" type="line"/>
      <point x="520" y="260" type="line"/>
      <point x="1151" y="260" type="line"/>
      <point x="1151" y="0" type="line"/>
      <point x="225" y="0" type="line"/>
    </contour>
    <contour>
      <point x="730" y="445"/>
      <point x="631" y="540"/>
      <point x="631" y="679" type="curve" smooth="yes"/>
      <point x="631" y="818"/>
      <point x="730" y="914"/>
      <point x="856" y="914" type="curve" smooth="yes"/>
      <point x="982" y="914"/>
      <point x="1081" y="818"/>
      <point x="1081" y="679" type="curve" smooth="yes"/>
      <point x="1081" y="540"/>
      <point x="982" y="445"/>
      <point x="856" y="445" type="curve" smooth="yes"/>
    </contour>
  </outline>
</glyph>
<glyph name="ldot" format="1">
  <advance width="1233"/>
  <unicode hex="0140"/>
  <outline>
    <contour>
      <point x="449" y="-8"/>
      <point x="337" y="123"/>
      <point x="337" y="459" type="curve" smooth="yes"/>
      <point x="337" y="1331" type="line"/>
      <point x="40" y="1331" type="line"/>
      <point x="40" y="1556" type="line"/>
      <point x="630" y="1556" type="line"/>
      <point x="630" y="459" type="line" smooth="yes"/>
      <point x="630" y="284"/>
      <point x="678" y="217"/>
      <point x="810" y="217" type="curve" smooth="yes"/>
      <point x="1044" y="217" type="line"/>
      <point x="1044" y="-8" type="line"/>
      <point x="728" y="-8" type="line" smooth="yes"/>
    </contour>
    <contour>
      <point x="832" y="445"/>
      <point x="733" y="540"/>
      <point x="733" y="679" type="curve" smooth="yes"/>
      <point x="733" y="818"/>
      <point x="832" y="914"/>
      <point x="958" y="914" type="curve" smooth="yes"/>
      <point x="1084" y="914"/>
      <point x="1183" y="818"/>
      <point x="1183" y="679" type="curve" smooth="yes"/>
      <point x="1183" y="540"/>
      <point x="1084" y="445"/>
      <point x="958" y="445" type="curve" smooth="yes"/>
    </contour>
  </outline>
</glyph>
<glyph name="Lslash" format="1">
  <advance width="1233"/>
  <unicode hex="0141"/>
  <note>
	Lslash
  </note>
  <outline>
    <contour>
      <point x="225" y="537" type="line"/>
      <point x="74" y="426" type="line"/>
      <point x="-39" y="580" type="line"/>
      <point x="225" y="768" type="line"/>
      <point x="225" y="1493" type="line"/>
      <point x="520" y="1493" type="line"/>
      <point x="520" y="973" type="line"/>
      <point x="795" y="1167" type="line"/>
      <point x="907" y="1014" type="line"/>
      <point x="520" y="741" type="line"/>
      <point x="520" y="260" type="line"/>
      <point x="1151" y="260" type="line"/>
      <point x="1151" y="0" type="line"/>
      <point x="225" y="0" type="line"/>
    </contour>
  </outline>
</glyph>
<glyph name="nacute" format="1">
  <advance width="1233"/>
  <unicode hex="0144"/>
  <note>
	nacute
  </note>
  <outline>
    <contour>
      <point x="750" y="1690" type="line"/>
      <point x="1032" y="1690" type="line"/>
      <point x="664" y="1314" type="line"/>
      <point x="467" y="1314" type="line"/>
    </contour>
    <contour>
      <point x="172" y="1120" type="line"/>
      <point x="434" y="1120" type="line"/>
      <point x="463" y="952" type="line"/>
      <point x="506" y="1081"/>
      <point x="610" y="1147"/>
      <point x="753" y="1147" type="curve" smooth="yes"/>
      <point x="961" y="1147"/>
      <point x="1071" y="1008"/>
      <point x="1071" y="727" type="curve" smooth="yes"/>
      <point x="1071" y="0" type="line"/>
      <point x="780" y="0" type="line"/>
      <point x="780" y="682" type="line" smooth="yes"/>
      <point x="780" y="839"/>
      <point x="737" y="909"/>
      <point x="640" y="909" type="curve" smooth="yes"/>
      <point x="523" y="909"/>
      <point x="463" y="810"/>
      <point x="463" y="641" type="curve" smooth="yes"/>
      <point x="463" y="0" type="line"/>
      <point x="172" y="0" type="line"/>
    </contour>
  </outline>
</glyph>
<glyph name="uni0146" format="1">
  <advance width="1233"/>
  <unicode hex="0146"/>
  <note>
	uni0146
  </note>
  <outline>
    <contour>
      <point x="172" y="1120" type="line"/>
      <point x="434" y="1120" type="line"/>
      <point x="463" y="952" type="line"/>
      <point x="506" y="1081"/>
      <point x="610" y="1147"/>
      <point x="753" y="1147" type="curve" smooth="yes"/>
      <point x="961" y="1147"/>
      <point x="1071" y="1008"/>
      <point x="1071" y="727" type="curve" smooth="yes"/>
      <point x="1071" y="0" type="line"/>
      <point x="780" y="0" type="line"/>
      <point x="780" y="682" type="line" smooth="yes"/>
      <point x="780" y="839"/>
      <point x="737" y="909"/>
      <point x="640" y="909" type="curve" smooth="yes"/>
      <point x="523" y="909"/>
      <point x="463" y="810"/>
      <point x="463" y="641" type="curve" smooth="yes"/>
      <point x="463" y="0" type="line"/>
      <point x="172" y="0" type="line"/>
    </contour>
    <contour>
      <point x="525" y="-158" type="line"/>
      <point x="807" y="-158" type="line"/>
      <point x="630" y="-464" type="line"/>
      <point x="436" y="-464" type="line"/>
    </contour>
  </outline>
</glyph>
<glyph name="Ncaron" format="1">
  <advance width="1233"/>
  <unicode hex="0147"/>
  <note>
	Ncaron
  </note>
  <outline>
    <contour>
      <point x="281" y="1852" type="line"/>
      <point x="459" y="1852" type="line"/>
      <point x="657" y="1690" type="line"/>
      <point x="856" y="1852" type="line"/>
      <point x="1034" y="1852" type="line"/>
      <point x="811" y="1588" type="line"/>
      <point x="502" y="1588" type="line"/>
    </contour>
    <contour>
      <point x="119" y="1493" type="line"/>
      <point x="436" y="1493" type="line"/>
      <point x="852" y="408" type="line"/>
      <point x="852" y="1493" type="line"/>
      <point x="1112" y="1493" type="line"/>
      <point x="1112" y="0" type="line"/>
      <point x="797" y="0" type="line"/>
      <point x="379" y="1085" type="line"/>
      <point x="379" y="0" type="line"/>
      <point x="119" y="0" type="line"/>
    </contour>
  </outline>
</glyph>
<glyph name="napostrophe" format="1">
  <advance width="1233"/>
  <unicode hex="0149"/>
  <outline>
    <contour>
      <point x="48" y="1286" type="line"/>
      <point x="48" y="1556" type="line"/>
      <point x="362" y="1556" type="line"/>
      <point x="362" y="1286" type="line"/>
      <point x="165" y="903" type="line"/>
      <point x="-50" y="903" type="line"/>
    </contour>
    <contour>
      <point x="334" y="1120" type="line"/>
      <point x="596" y="1120" type="line"/>
      <point x="625" y="952" type="line"/>
      <point x="668" y="1076"/>
      <point x="770" y="1147"/>
      <point x="913" y="1147" type="curve" smooth="yes"/>
      <point x="1124" y="1147"/>
      <point x="1233" y="1004"/>
      <point x="1233" y="727" type="curve" smooth="yes"/>
      <point x="1233" y="0" type="line"/>
      <point x="942" y="0" type="line"/>
      <point x="942" y="682" type="line" smooth="yes"/>
      <point x="942" y="764"/>
      <point x="931" y="822"/>
      <point x="908" y="857" type="curve" smooth="yes"/>
      <point x="885" y="892"/>
      <point x="846" y="909"/>
      <point x="798" y="909" type="curve" smooth="yes"/>
      <point x="741" y="909"/>
      <point x="702" y="885"/>
      <point x="671" y="838" type="curve" smooth="yes"/>
      <point x="642" y="793"/>
      <point x="625" y="733"/>
      <point x="625" y="641" type="curve" smooth="yes"/>
      <point x="625" y="0" type="line"/>
      <point x="334" y="0" type="line"/>
    </contour>
  </outline>
</glyph>
<glyph name="eng" format="1">
  <advance width="1233"/>
  <unicode hex="014B"/>
  <note>
	eng
  </note>
  <outline>
    <contour>
      <point x="559" y="-199" type="line"/>
      <point x="598" y="-199" type="line" smooth="yes"/>
      <point x="665" y="-199"/>
      <point x="710" y="-183"/>
      <point x="739" y="-144" type="curve" smooth="yes"/>
      <point x="768" y="-105"/>
      <point x="780" y="-45"/>
      <point x="780" y="43" type="curve" smooth="yes"/>
      <point x="780" y="682" type="line" smooth="yes"/>
      <point x="780" y="839"/>
      <point x="737" y="909"/>
      <point x="640" y="909" type="curve" smooth="yes"/>
      <point x="523" y="909"/>
      <point x="463" y="810"/>
      <point x="463" y="641" type="curve" smooth="yes"/>
      <point x="463" y="0" type="line"/>
      <point x="172" y="0" type="line"/>
      <point x="172" y="1120" type="line"/>
      <point x="434" y="1120" type="line"/>
      <point x="463" y="952" type="line"/>
      <point x="506" y="1081"/>
      <point x="610" y="1147"/>
      <point x="753" y="1147" type="curve" smooth="yes"/>
      <point x="961" y="1147"/>
      <point x="1071" y="1008"/>
      <point x="1071" y="727" type="curve" smooth="yes"/>
      <point x="1071" y="43" type="line" smooth="yes"/>
      <point x="1071" y="-125"/>
      <point x="1044" y="-241"/>
      <point x="981" y="-316" type="curve" smooth="yes"/>
      <point x="917" y="-392"/>
      <point x="820" y="-424"/>
      <point x="680" y="-424" type="curve" smooth="yes"/>
      <point x="559" y="-424" type="line"/>
    </contour>
  </outline>
</glyph>
<glyph name="Ohungarumlaut" format="1">
  <advance width="1233"/>
  <unicode hex="0150"/>
  <note>
	Ohungarumlaut
  </note>
  <outline>
    <contour>
      <point x="463" y="1852" type="line"/>
      <point x="747" y="1852" type="line"/>
      <point x="461" y="1588" type="line"/>
      <point x="264" y="1588" type="line"/>
    </contour>
    <contour>
      <point x="838" y="1852" type="line"/>
      <point x="1122" y="1852" type="line"/>
      <point x="836" y="1588" type="line"/>
      <point x="639" y="1588" type="line"/>
    </contour>
    <contour>
      <point x="270" y="-29"/>
      <point x="92" y="237"/>
      <point x="92" y="746" type="curve" smooth="yes"/>
      <point x="92" y="1255"/>
      <point x="270" y="1520"/>
      <point x="617" y="1520" type="curve" smooth="yes"/>
      <point x="962" y="1520"/>
      <point x="1141" y="1257"/>
      <point x="1141" y="746" type="curve" smooth="yes"/>
      <point x="1141" y="235"/>
      <point x="962" y="-29"/>
      <point x="617" y="-29" type="curve" smooth="yes"/>
    </contour>
    <contour>
      <point x="692" y="236"/>
      <point x="747" y="276"/>
      <point x="782" y="357" type="curve" smooth="yes"/>
      <point x="817" y="436"/>
      <point x="834" y="566"/>
      <point x="834" y="746" type="curve" smooth="yes"/>
      <point x="834" y="925"/>
      <point x="817" y="1055"/>
      <point x="782" y="1134" type="curve" smooth="yes"/>
      <point x="747" y="1215"/>
      <point x="692" y="1255"/>
      <point x="616" y="1255" type="curve" smooth="yes"/>
      <point x="537" y="1255"/>
      <point x="486" y="1214"/>
      <point x="451" y="1134" type="curve" smooth="yes"/>
      <point x="416" y="1055"/>
      <point x="399" y="925"/>
      <point x="399" y="746" type="curve" smooth="yes"/>
      <point x="399" y="566"/>
      <point x="416" y="436"/>
      <point x="451" y="357" type="curve" smooth="yes"/>
      <point x="486" y="276"/>
      <point x="541" y="236"/>
      <point x="616" y="236" type="curve" smooth="yes"/>
    </contour>
  </outline>
</glyph>
<glyph name="OE" format="1">
  <advance width="1233"/>
  <unicode hex="0152"/>
  <note>
	OE
  </note>
  <outline>
    <contour>
      <point x="633" y="0" type="line" smooth="yes"/>
      <point x="417" y="0"/>
      <point x="269" y="52"/>
      <point x="189" y="156" type="curve" smooth="yes"/>
      <point x="106" y="263"/>
      <point x="68" y="456"/>
      <point x="68" y="745" type="curve" smooth="yes"/>
      <point x="68" y="1036"/>
      <point x="108" y="1234"/>
      <point x="189" y="1337" type="curve" smooth="yes"/>
      <point x="272" y="1444"/>
      <point x="422" y="1493"/>
      <point x="633" y="1493" type="curve" smooth="yes"/>
      <point x="1206" y="1493" type="line"/>
      <point x="1206" y="1233" type="line"/>
      <point x="874" y="1233" type="line"/>
      <point x="874" y="922" type="line"/>
      <point x="1176" y="922" type="line"/>
      <point x="1176" y="662" type="line"/>
      <point x="874" y="662" type="line"/>
      <point x="874" y="260" type="line"/>
      <point x="1217" y="260" type="line"/>
      <point x="1217" y="0" type="line"/>
    </contour>
    <contour>
      <point x="621" y="260" type="line"/>
      <point x="621" y="1233" type="line"/>
      <point x="569" y="1233" type="line" smooth="yes"/>
      <point x="485" y="1233"/>
      <point x="428" y="1200"/>
      <point x="400" y="1144" type="curve" smooth="yes"/>
      <point x="385" y="1114"/>
      <point x="373" y="1067"/>
      <point x="366" y="1004" type="curve" smooth="yes"/>
      <point x="358" y="940"/>
      <point x="354" y="854"/>
      <point x="354" y="745" type="curve" smooth="yes"/>
      <point x="354" y="636"/>
      <point x="358" y="551"/>
      <point x="366" y="487" type="curve" smooth="yes"/>
      <point x="374" y="422"/>
      <point x="385" y="376"/>
      <point x="400" y="347" type="curve" smooth="yes"/>
      <point x="431" y="286"/>
      <point x="490" y="260"/>
      <point x="569" y="260" type="curve" smooth="yes"/>
    </contour>
  </outline>
</glyph>
<glyph name="Racute" format="1">
  <advance width="1233"/>
  <unicode hex="0154"/>
  <note>
	Racute
  </note>
  <outline>
    <contour>
      <point x="669" y="1853" type="line"/>
      <point x="953" y="1853" type="line"/>
      <point x="667" y="1589" type="line"/>
      <point x="470" y="1589" type="line"/>
    </contour>
    <contour>
      <point x="133" y="1493" type="line"/>
      <point x="559" y="1493" type="line" smooth="yes"/>
      <point x="747" y="1493"/>
      <point x="881" y="1461"/>
      <point x="969" y="1393" type="curve" smooth="yes"/>
      <point x="1057" y="1325"/>
      <point x="1098" y="1219"/>
      <point x="1098" y="1074" type="curve" smooth="yes"/>
      <point x="1098" y="846"/>
      <point x="998" y="732"/>
      <point x="807" y="705" type="curve"/>
      <point x="836" y="698"/>
      <point x="860" y="688"/>
      <point x="884" y="664" type="curve"/>
      <point x="907" y="639"/>
      <point x="931" y="600"/>
      <point x="963" y="537" type="curve" smooth="yes"/>
      <point x="1233" y="0" type="line"/>
      <point x="909" y="0" type="line"/>
      <point x="729" y="377" type="line"/>
      <point x="708" y="421" type="line" smooth="yes"/>
      <point x="652" y="536"/>
      <point x="597" y="590"/>
      <point x="522" y="590" type="curve" smooth="yes"/>
      <point x="428" y="590" type="line"/>
      <point x="428" y="0" type="line"/>
      <point x="133" y="0" type="line"/>
    </contour>
    <contour>
      <point x="567" y="838" type="line" smooth="yes"/>
      <point x="647" y="838"/>
      <point x="704" y="853"/>
      <point x="741" y="886" type="curve" smooth="yes"/>
      <point x="777" y="918"/>
      <point x="793" y="970"/>
      <point x="793" y="1043" type="curve" smooth="yes"/>
      <point x="793" y="1115"/>
      <point x="777" y="1166"/>
      <point x="741" y="1198" type="curve" smooth="yes"/>
      <point x="705" y="1230"/>
      <point x="648" y="1245"/>
      <point x="567" y="1245" type="curve" smooth="yes"/>
      <point x="428" y="1245" type="line"/>
      <point x="428" y="838" type="line"/>
    </contour>
  </outline>
</glyph>
<glyph name="racute" format="1">
  <advance width="1233"/>
  <unicode hex="0155"/>
  <note>
	racute
  </note>
  <outline>
    <contour>
      <point x="865" y="1680" type="line"/>
      <point x="1147" y="1680" type="line"/>
      <point x="779" y="1304" type="line"/>
      <point x="582" y="1304" type="line"/>
    </contour>
    <contour>
      <point x="291" y="1120" type="line"/>
      <point x="555" y="1120" type="line"/>
      <point x="584" y="946" type="line"/>
      <point x="641" y="1075"/>
      <point x="766" y="1147"/>
      <point x="923" y="1147" type="curve" smooth="yes"/>
      <point x="1006" y="1147"/>
      <point x="1082" y="1127"/>
      <point x="1151" y="1090" type="curve"/>
      <point x="1151" y="811" type="line"/>
      <point x="1087" y="871"/>
      <point x="1001" y="899"/>
      <point x="897" y="899" type="curve" smooth="yes"/>
      <point x="766" y="899"/>
      <point x="678" y="852"/>
      <point x="627" y="772" type="curve" smooth="yes"/>
      <point x="611" y="747"/>
      <point x="601" y="719"/>
      <point x="594" y="680" type="curve" smooth="yes"/>
      <point x="586" y="641"/>
      <point x="584" y="589"/>
      <point x="584" y="516" type="curve" smooth="yes"/>
      <point x="584" y="0" type="line"/>
      <point x="291" y="0" type="line"/>
    </contour>
  </outline>
</glyph>
<glyph name="rcaron" format="1">
  <advance width="1233"/>
  <unicode hex="0159"/>
  <note>
	rcaron
  </note>
  <outline>
    <contour>
      <point x="342" y="1683" type="line"/>
      <point x="520" y="1683" type="line"/>
      <point x="718" y="1456" type="line"/>
      <point x="917" y="1683" type="line"/>
      <point x="1095" y="1683" type="line"/>
      <point x="839" y="1307" type="line"/>
      <point x="598" y="1307" type="line"/>
    </contour>
    <contour>
      <point x="291" y="1120" type="line"/>
      <point x="555" y="1120" type="line"/>
      <point x="584" y="946" type="line"/>
      <point x="641" y="1075"/>
      <point x="766" y="1147"/>
      <point x="923" y="1147" type="curve" smooth="yes"/>
      <point x="1006" y="1147"/>
      <point x="1082" y="1127"/>
      <point x="1151" y="1090" type="curve"/>
      <point x="1151" y="811" type="line"/>
      <point x="1087" y="871"/>
      <point x="1001" y="899"/>
      <point x="897" y="899" type="curve" smooth="yes"/>
      <point x="766" y="899"/>
      <point x="678" y="852"/>
      <point x="627" y="772" type="curve" smooth="yes"/>
      <point x="611" y="747"/>
      <point x="601" y="719"/>
      <point x="594" y="680" type="curve" smooth="yes"/>
      <point x="586" y="641"/>
      <point x="584" y="589"/>
      <point x="584" y="516" type="curve" smooth="yes"/>
      <point x="584" y="0" type="line"/>
      <point x="291" y="0" type="line"/>
    </contour>
  </outline>
</glyph>
<glyph name="Scircumflex" format="1">
  <advance width="1233"/>
  <unicode hex="015C"/>
  <note>
	Scircumflex
  </note>
  <outline>
    <contour>
      <point x="230" y="1588" type="line"/>
      <point x="451" y="1852" type="line"/>
      <point x="760" y="1852" type="line"/>
      <point x="983" y="1588" type="line"/>
      <point x="805" y="1588" type="line"/>
      <point x="606" y="1749" type="line"/>
      <point x="408" y="1588" type="line"/>
    </contour>
    <contour>
      <point x="1110" y="122"/>
      <point x="930" y="-29"/>
      <point x="582" y="-29" type="curve" smooth="yes"/>
      <point x="419" y="-29"/>
      <point x="270" y="6"/>
      <point x="135" y="76" type="curve"/>
      <point x="135" y="381" type="line"/>
      <point x="292" y="270"/>
      <point x="440" y="215"/>
      <point x="580" y="215" type="curve" smooth="yes"/>
      <point x="727" y="215"/>
      <point x="811" y="286"/>
      <point x="811" y="403" type="curve" smooth="yes"/>
      <point x="811" y="494"/>
      <point x="759" y="559"/>
      <point x="655" y="600" type="curve" smooth="yes"/>
      <point x="510" y="655" type="line" smooth="yes"/>
      <point x="310" y="732"/>
      <point x="208" y="804"/>
      <point x="163" y="903" type="curve" smooth="yes"/>
      <point x="140" y="951"/>
      <point x="129" y="1012"/>
      <point x="129" y="1085" type="curve" smooth="yes"/>
      <point x="129" y="1264"/>
      <point x="210" y="1399"/>
      <point x="357" y="1468" type="curve" smooth="yes"/>
      <point x="429" y="1503"/>
      <point x="515" y="1520"/>
      <point x="615" y="1520" type="curve" smooth="yes"/>
      <point x="756" y="1520"/>
      <point x="893" y="1489"/>
      <point x="1026" y="1427" type="curve"/>
      <point x="1026" y="1139" type="line"/>
      <point x="901" y="1228"/>
      <point x="766" y="1276"/>
      <point x="638" y="1276" type="curve" smooth="yes"/>
      <point x="497" y="1276"/>
      <point x="418" y="1216"/>
      <point x="418" y="1111" type="curve" smooth="yes"/>
      <point x="418" y="1042"/>
      <point x="449" y="1005"/>
      <point x="510" y="972" type="curve" smooth="yes"/>
      <point x="537" y="957"/>
      <point x="578" y="939"/>
      <point x="633" y="918" type="curve" smooth="yes"/>
      <point x="760" y="870" type="line" smooth="yes"/>
      <point x="1004" y="778"/>
      <point x="1110" y="642"/>
      <point x="1110" y="415" type="curve" smooth="yes"/>
    </contour>
  </outline>
</glyph>
<glyph name="Scedilla" format="1">
  <advance width="1233"/>
  <unicode hex="015E"/>
  <note>
	Scedilla
  </note>
  <outline>
    <contour>
      <point x="1082" y="623"/>
      <point x="1110" y="530"/>
      <point x="1110" y="415" type="curve" smooth="yes"/>
      <point x="1110" y="268"/>
      <point x="1065" y="157"/>
      <point x="976" y="83" type="curve" smooth="yes"/>
      <point x="912" y="31"/>
      <point x="829" y="-4"/>
      <point x="724" y="-19" type="curve"/>
      <point x="755" y="-55"/>
      <point x="777" y="-88"/>
      <point x="792" y="-115" type="curve" smooth="yes"/>
      <point x="810" y="-149"/>
      <point x="819" y="-184"/>
      <point x="819" y="-221" type="curve" smooth="yes"/>
      <point x="819" y="-282"/>
      <point x="796" y="-327"/>
      <point x="757" y="-356" type="curve" smooth="yes"/>
      <point x="722" y="-383"/>
      <point x="668" y="-401"/>
      <point x="571" y="-401" type="curve" smooth="yes"/>
      <point x="539" y="-401"/>
      <point x="504" y="-399"/>
      <point x="471" y="-395" type="curve" smooth="yes"/>
      <point x="446" y="-392"/>
      <point x="426" y="-388"/>
      <point x="412" y="-385" type="curve" smooth="yes"/>
      <point x="397" y="-382"/>
      <point x="382" y="-378"/>
      <point x="367" y="-375" type="curve"/>
      <point x="367" y="-219" type="line"/>
      <point x="398" y="-230"/>
      <point x="426" y="-238"/>
      <point x="454" y="-245" type="curve" smooth="yes"/>
      <point x="482" y="-251"/>
      <point x="508" y="-254"/>
      <point x="532" y="-254" type="curve" smooth="yes"/>
      <point x="608" y="-254"/>
      <point x="655" y="-221"/>
      <point x="655" y="-170" type="curve" smooth="yes"/>
      <point x="655" y="-133"/>
      <point x="629" y="-85"/>
      <point x="589" y="-29" type="curve"/>
      <point x="582" y="-29" type="line" smooth="yes"/>
      <point x="502" y="-29"/>
      <point x="427" y="-22"/>
      <point x="351" y="-3" type="curve" smooth="yes"/>
      <point x="275" y="15"/>
      <point x="203" y="41"/>
      <point x="135" y="76" type="curve"/>
      <point x="135" y="381" type="line"/>
      <point x="222" y="320"/>
      <point x="292" y="283"/>
      <point x="364" y="256" type="curve" smooth="yes"/>
      <point x="438" y="229"/>
      <point x="510" y="215"/>
      <point x="580" y="215" type="curve" smooth="yes"/>
      <point x="656" y="215"/>
      <point x="711" y="232"/>
      <point x="751" y="265" type="curve" smooth="yes"/>
      <point x="791" y="298"/>
      <point x="811" y="344"/>
      <point x="811" y="403" type="curve" smooth="yes"/>
      <point x="811" y="448"/>
      <point x="798" y="488"/>
      <point x="771" y="521" type="curve" smooth="yes"/>
      <point x="743" y="556"/>
      <point x="703" y="581"/>
      <point x="655" y="600" type="curve" smooth="yes"/>
      <point x="510" y="655" type="line" smooth="yes"/>
      <point x="357" y="714"/>
      <point x="260" y="773"/>
      <point x="208" y="834" type="curve" smooth="yes"/>
      <point x="155" y="895"/>
      <point x="129" y="979"/>
      <point x="129" y="1085" type="curve" smooth="yes"/>
      <point x="129" y="1357"/>
      <point x="315" y="1520"/>
      <point x="615" y="1520" type="curve" smooth="yes"/>
      <point x="687" y="1520"/>
      <point x="759" y="1512"/>
      <point x="822" y="1497" type="curve" smooth="yes"/>
      <point x="885" y="1482"/>
      <point x="957" y="1459"/>
      <point x="1026" y="1427" type="curve"/>
      <point x="1026" y="1139" type="line"/>
      <point x="901" y="1228"/>
      <point x="766" y="1276"/>
      <point x="638" y="1276" type="curve" smooth="yes"/>
      <point x="495" y="1276"/>
      <point x="418" y="1215"/>
      <point x="418" y="1111" type="curve" smooth="yes"/>
      <point x="418" y="1027"/>
      <point x="467" y="995"/>
      <point x="520" y="967" type="curve" smooth="yes"/>
      <point x="546" y="953"/>
      <point x="584" y="937"/>
      <point x="633" y="918" type="curve" smooth="yes"/>
      <point x="760" y="870" type="line" smooth="yes"/>
      <point x="881" y="825"/>
      <point x="969" y="767"/>
      <point x="1025" y="696" type="curve" smooth="yes"/>
    </contour>
  </outline>
</glyph>
<glyph name="scedilla" format="1">
  <advance width="1233"/>
  <unicode hex="015F"/>
  <note>
	scedilla
  </note>
  <outline>
    <contour>
      <point x="1044" y="489"/>
      <point x="1067" y="409"/>
      <point x="1067" y="317" type="curve" smooth="yes"/>
      <point x="1067" y="86"/>
      <point x="918" y="1"/>
      <point x="727" y="-23" type="curve"/>
      <point x="758" y="-58"/>
      <point x="779" y="-90"/>
      <point x="792" y="-115" type="curve" smooth="yes"/>
      <point x="810" y="-149"/>
      <point x="819" y="-184"/>
      <point x="819" y="-221" type="curve" smooth="yes"/>
      <point x="819" y="-282"/>
      <point x="796" y="-327"/>
      <point x="757" y="-356" type="curve" smooth="yes"/>
      <point x="722" y="-383"/>
      <point x="668" y="-401"/>
      <point x="571" y="-401" type="curve" smooth="yes"/>
      <point x="539" y="-401"/>
      <point x="504" y="-399"/>
      <point x="471" y="-395" type="curve" smooth="yes"/>
      <point x="446" y="-392"/>
      <point x="426" y="-388"/>
      <point x="412" y="-385" type="curve" smooth="yes"/>
      <point x="397" y="-382"/>
      <point x="382" y="-378"/>
      <point x="367" y="-375" type="curve"/>
      <point x="367" y="-219" type="line"/>
      <point x="398" y="-230"/>
      <point x="426" y="-238"/>
      <point x="454" y="-245" type="curve" smooth="yes"/>
      <point x="482" y="-251"/>
      <point x="508" y="-254"/>
      <point x="532" y="-254" type="curve" smooth="yes"/>
      <point x="608" y="-254"/>
      <point x="655" y="-221"/>
      <point x="655" y="-170" type="curve" smooth="yes"/>
      <point x="655" y="-151"/>
      <point x="648" y="-128"/>
      <point x="634" y="-101" type="curve" smooth="yes"/>
      <point x="623" y="-81"/>
      <point x="608" y="-56"/>
      <point x="588" y="-29" type="curve"/>
      <point x="528" y="-26"/>
      <point x="464" y="-23"/>
      <point x="405" y="-12" type="curve" smooth="yes"/>
      <point x="337" y="-1"/>
      <point x="263" y="18"/>
      <point x="190" y="41" type="curve"/>
      <point x="190" y="297" type="line"/>
      <point x="255" y="260"/>
      <point x="321" y="232"/>
      <point x="388" y="213" type="curve" smooth="yes"/>
      <point x="456" y="194"/>
      <point x="519" y="184"/>
      <point x="583" y="184" type="curve" smooth="yes"/>
      <point x="655" y="184"/>
      <point x="707" y="195"/>
      <point x="739" y="214" type="curve" smooth="yes"/>
      <point x="778" y="237"/>
      <point x="791" y="269"/>
      <point x="791" y="308" type="curve" smooth="yes"/>
      <point x="791" y="337"/>
      <point x="784" y="362"/>
      <point x="752" y="386" type="curve" smooth="yes"/>
      <point x="720" y="410"/>
      <point x="666" y="431"/>
      <point x="575" y="451" type="curve" smooth="yes"/>
      <point x="494" y="469" type="line" smooth="yes"/>
      <point x="270" y="520"/>
      <point x="172" y="626"/>
      <point x="172" y="803" type="curve" smooth="yes"/>
      <point x="172" y="1022"/>
      <point x="335" y="1147"/>
      <point x="619" y="1147" type="curve" smooth="yes"/>
      <point x="683" y="1147"/>
      <point x="753" y="1141"/>
      <point x="808" y="1132" type="curve" smooth="yes"/>
      <point x="863" y="1123"/>
      <point x="935" y="1105"/>
      <point x="991" y="1085" type="curve"/>
      <point x="991" y="829" type="line"/>
      <point x="936" y="864"/>
      <point x="876" y="892"/>
      <point x="823" y="908" type="curve" smooth="yes"/>
      <point x="770" y="924"/>
      <point x="708" y="934"/>
      <point x="643" y="934" type="curve" smooth="yes"/>
      <point x="583" y="934"/>
      <point x="535" y="926"/>
      <point x="500" y="906" type="curve" smooth="yes"/>
      <point x="465" y="887"/>
      <point x="449" y="857"/>
      <point x="449" y="826" type="curve" smooth="yes"/>
      <point x="449" y="796"/>
      <point x="466" y="770"/>
      <point x="500" y="749" type="curve" smooth="yes"/>
      <point x="534" y="728"/>
      <point x="588" y="708"/>
      <point x="663" y="691" type="curve"/>
      <point x="674" y="688" type="line"/>
      <point x="758" y="668" type="line" smooth="yes"/>
      <point x="863" y="643"/>
      <point x="942" y="603"/>
      <point x="993" y="546" type="curve" smooth="yes"/>
    </contour>
  </outline>
</glyph>
<glyph name="Scaron" format="1">
  <advance width="1233"/>
  <unicode hex="0160"/>
  <note>
	Scaron
  </note>
  <outline>
    <contour>
      <point x="240" y="1852" type="line"/>
      <point x="418" y="1852" type="line"/>
      <point x="616" y="1690" type="line"/>
      <point x="815" y="1852" type="line"/>
      <point x="993" y="1852" type="line"/>
      <point x="770" y="1588" type="line"/>
      <point x="461" y="1588" type="line"/>
    </contour>
    <contour>
      <point x="502" y="-29"/>
      <point x="427" y="-22"/>
      <point x="351" y="-3" type="curve" smooth="yes"/>
      <point x="275" y="15"/>
      <point x="203" y="41"/>
      <point x="135" y="76" type="curve"/>
      <point x="135" y="381" type="line"/>
      <point x="222" y="320"/>
      <point x="292" y="283"/>
      <point x="364" y="256" type="curve" smooth="yes"/>
      <point x="438" y="229"/>
      <point x="510" y="215"/>
      <point x="580" y="215" type="curve" smooth="yes"/>
      <point x="656" y="215"/>
      <point x="711" y="232"/>
      <point x="751" y="265" type="curve" smooth="yes"/>
      <point x="791" y="298"/>
      <point x="811" y="344"/>
      <point x="811" y="403" type="curve" smooth="yes"/>
      <point x="811" y="448"/>
      <point x="798" y="488"/>
      <point x="771" y="521" type="curve" smooth="yes"/>
      <point x="743" y="556"/>
      <point x="703" y="581"/>
      <point x="655" y="600" type="curve" smooth="yes"/>
      <point x="510" y="655" type="line" smooth="yes"/>
      <point x="357" y="714"/>
      <point x="260" y="773"/>
      <point x="208" y="834" type="curve" smooth="yes"/>
      <point x="155" y="895"/>
      <point x="129" y="979"/>
      <point x="129" y="1085" type="curve" smooth="yes"/>
      <point x="129" y="1357"/>
      <point x="315" y="1520"/>
      <point x="615" y="1520" type="curve" smooth="yes"/>
      <point x="687" y="1520"/>
      <point x="759" y="1512"/>
      <point x="822" y="1497" type="curve" smooth="yes"/>
      <point x="885" y="1482"/>
      <point x="957" y="1459"/>
      <point x="1026" y="1427" type="curve"/>
      <point x="1026" y="1139" type="line"/>
      <point x="901" y="1228"/>
      <point x="766" y="1276"/>
      <point x="638" y="1276" type="curve" smooth="yes"/>
      <point x="495" y="1276"/>
      <point x="418" y="1215"/>
      <point x="418" y="1111" type="curve" smooth="yes"/>
      <point x="418" y="1027"/>
      <point x="467" y="995"/>
      <point x="520" y="967" type="curve" smooth="yes"/>
      <point x="546" y="953"/>
      <point x="584" y="937"/>
      <point x="633" y="918" type="curve" smooth="yes"/>
      <point x="760" y="870" type="line" smooth="yes"/>
      <point x="1001" y="779"/>
      <point x="1110" y="644"/>
      <point x="1110" y="415" type="curve" smooth="yes"/>
      <point x="1110" y="120"/>
      <point x="927" y="-29"/>
      <point x="582" y="-29" type="curve" smooth="yes"/>
    </contour>
  </outline>
</glyph>
<glyph name="tbar" format="1">
  <advance width="1233"/>
  <unicode hex="0167"/>
  <note>
	tbar
  </note>
  <outline>
    <contour>
      <point x="659" y="-4"/>
      <point x="551" y="19"/>
      <point x="486" y="77" type="curve" smooth="yes"/>
      <point x="421" y="135"/>
      <point x="397" y="230"/>
      <point x="397" y="375" type="curve" smooth="yes"/>
      <point x="397" y="561" type="line"/>
      <point x="219" y="561" type="line"/>
      <point x="219" y="753" type="line"/>
      <point x="397" y="753" type="line"/>
      <point x="397" y="895" type="line"/>
      <point x="111" y="895" type="line"/>
      <point x="111" y="1120" type="line"/>
      <point x="397" y="1120" type="line"/>
      <point x="397" y="1426" type="line"/>
      <point x="690" y="1556" type="line"/>
      <point x="690" y="1120" type="line"/>
      <point x="1073" y="1120" type="line"/>
      <point x="1073" y="895" type="line"/>
      <point x="690" y="895" type="line"/>
      <point x="690" y="753" type="line"/>
      <point x="874" y="753" type="line"/>
      <point x="874" y="561" type="line"/>
      <point x="690" y="561" type="line"/>
      <point x="690" y="361" type="line" smooth="yes"/>
      <point x="690" y="261"/>
      <point x="735" y="221"/>
      <point x="848" y="221" type="curve" smooth="yes"/>
      <point x="1073" y="221" type="line"/>
      <point x="1073" y="-4" type="line"/>
      <point x="827" y="-4" type="line" smooth="yes"/>
    </contour>
  </outline>
</glyph>
<glyph name="utilde" format="1">
  <advance width="1233"/>
  <unicode hex="0169"/>
  <note>
	utilde
  </note>
  <outline>
    <contour>
      <point x="743" y="1270"/>
      <point x="724" y="1273"/>
      <point x="701" y="1282" type="curve"/>
      <point x="678" y="1290"/>
      <point x="651" y="1304"/>
      <point x="618" y="1327" type="curve" smooth="yes"/>
      <point x="563" y="1364" type="line"/>
      <point x="551" y="1372" type="line" smooth="yes"/>
      <point x="522" y="1391"/>
      <point x="500" y="1401"/>
      <point x="479" y="1401" type="curve" smooth="yes"/>
      <point x="434" y="1401"/>
      <point x="408" y="1357"/>
      <point x="408" y="1280" type="curve" smooth="yes"/>
      <point x="408" y="1272" type="line"/>
      <point x="268" y="1272" type="line"/>
      <point x="268" y="1455"/>
      <point x="340" y="1556"/>
      <point x="465" y="1556" type="curve" smooth="yes"/>
      <point x="516" y="1556"/>
      <point x="557" y="1539"/>
      <point x="614" y="1499" type="curve" smooth="yes"/>
      <point x="676" y="1456" type="line" smooth="yes"/>
      <point x="703" y="1437"/>
      <point x="727" y="1425"/>
      <point x="751" y="1425" type="curve" smooth="yes"/>
      <point x="798" y="1425"/>
      <point x="825" y="1470"/>
      <point x="825" y="1546" type="curve" smooth="yes"/>
      <point x="825" y="1554" type="line"/>
      <point x="965" y="1554" type="line"/>
      <point x="965" y="1371"/>
      <point x="895" y="1270"/>
      <point x="764" y="1270" type="curve" smooth="yes"/>
    </contour>
    <contour>
      <point x="271" y="-29"/>
      <point x="160" y="112"/>
      <point x="160" y="391" type="curve" smooth="yes"/>
      <point x="160" y="1120" type="line"/>
      <point x="453" y="1120" type="line"/>
      <point x="453" y="436" type="line" smooth="yes"/>
      <point x="453" y="280"/>
      <point x="494" y="211"/>
      <point x="593" y="211" type="curve" smooth="yes"/>
      <point x="710" y="211"/>
      <point x="768" y="308"/>
      <point x="768" y="477" type="curve" smooth="yes"/>
      <point x="768" y="1120" type="line"/>
      <point x="1061" y="1120" type="line"/>
      <point x="1061" y="0" type="line"/>
      <point x="797" y="0" type="line"/>
      <point x="768" y="166" type="line"/>
      <point x="727" y="43"/>
      <point x="629" y="-29"/>
      <point x="480" y="-29" type="curve" smooth="yes"/>
    </contour>
  </outline>
</glyph>
<glyph name="umacron" format="1">
  <advance width="1233"/>
  <unicode hex="016B"/>
  <note>
	umacron
  </note>
  <outline>
    <contour>
      <point x="301" y="1508" type="line"/>
      <point x="932" y="1508" type="line"/>
      <point x="932" y="1320" type="line"/>
      <point x="301" y="1320" type="line"/>
    </contour>
    <contour>
      <point x="271" y="-29"/>
      <point x="160" y="112"/>
      <point x="160" y="391" type="curve" smooth="yes"/>
      <point x="160" y="1120" type="line"/>
      <point x="453" y="1120" type="line"/>
      <point x="453" y="436" type="line" smooth="yes"/>
      <point x="453" y="280"/>
      <point x="494" y="211"/>
      <point x="593" y="211" type="curve" smooth="yes"/>
      <point x="710" y="211"/>
      <point x="768" y="308"/>
      <point x="768" y="477" type="curve" smooth="yes"/>
      <point x="768" y="1120" type="line"/>
      <point x="1061" y="1120" type="line"/>
      <point x="1061" y="0" type="line"/>
      <point x="797" y="0" type="line"/>
      <point x="768" y="166" type="line"/>
      <point x="727" y="43"/>
      <point x="629" y="-29"/>
      <point x="480" y="-29" type="curve" smooth="yes"/>
    </contour>
  </outline>
</glyph>
<glyph name="ubreve" format="1">
  <advance width="1233"/>
  <unicode hex="016D"/>
  <note>
	ubreve
  </note>
  <outline>
    <contour>
      <point x="946" y="1596" type="line"/>
      <point x="938" y="1405"/>
      <point x="818" y="1299"/>
      <point x="610" y="1299" type="curve" smooth="yes"/>
      <point x="403" y="1299"/>
      <point x="283" y="1407"/>
      <point x="275" y="1596" type="curve"/>
      <point x="416" y="1596" type="line"/>
      <point x="429" y="1504"/>
      <point x="499" y="1452"/>
      <point x="611" y="1452" type="curve" smooth="yes"/>
      <point x="722" y="1452"/>
      <point x="790" y="1503"/>
      <point x="803" y="1596" type="curve"/>
    </contour>
    <contour>
      <point x="768" y="166" type="line"/>
      <point x="725" y="41"/>
      <point x="624" y="-29"/>
      <point x="481" y="-29" type="curve" smooth="yes"/>
      <point x="270" y="-29"/>
      <point x="160" y="114"/>
      <point x="160" y="391" type="curve" smooth="yes"/>
      <point x="160" y="1120" type="line"/>
      <point x="453" y="1120" type="line"/>
      <point x="453" y="436" type="line" smooth="yes"/>
      <point x="453" y="275"/>
      <point x="495" y="211"/>
      <point x="598" y="211" type="curve" smooth="yes"/>
      <point x="706" y="211"/>
      <point x="768" y="309"/>
      <point x="768" y="477" type="curve" smooth="yes"/>
      <point x="768" y="1120" type="line"/>
      <point x="1061" y="1120" type="line"/>
      <point x="1061" y="0" type="line"/>
      <point x="797" y="0" type="line"/>
    </contour>
  </outline>
</glyph>
<glyph name="Uring" format="1">
  <advance width="1233"/>
  <unicode hex="016E"/>
  <note>
	Uring
  </note>
  <outline>
    <contour>
      <point x="1126" y="1493" type="line"/>
      <point x="1126" y="551" type="line" smooth="yes"/>
      <point x="1126" y="348"/>
      <point x="1088" y="204"/>
      <point x="1005" y="109" type="curve" smooth="yes"/>
      <point x="922" y="14"/>
      <point x="795" y="-29"/>
      <point x="616" y="-29" type="curve" smooth="yes"/>
      <point x="437" y="-29"/>
      <point x="311" y="14"/>
      <point x="228" y="109" type="curve" smooth="yes"/>
      <point x="144" y="204"/>
      <point x="106" y="348"/>
      <point x="106" y="551" type="curve" smooth="yes"/>
      <point x="106" y="1493" type="line"/>
      <point x="365" y="1493" type="line"/>
      <point x="346" y="1532"/>
      <point x="337" y="1573"/>
      <point x="337" y="1616" type="curve" smooth="yes"/>
      <point x="337" y="1695"/>
      <point x="369" y="1766"/>
      <point x="421" y="1818" type="curve" smooth="yes"/>
      <point x="472" y="1869"/>
      <point x="543" y="1901"/>
      <point x="622" y="1901" type="curve" smooth="yes"/>
      <point x="701" y="1901"/>
      <point x="772" y="1869"/>
      <point x="824" y="1818" type="curve" smooth="yes"/>
      <point x="875" y="1766"/>
      <point x="906" y="1695"/>
      <point x="906" y="1616" type="curve" smooth="yes"/>
      <point x="906" y="1573"/>
      <point x="897" y="1532"/>
      <point x="878" y="1493" type="curve"/>
    </contour>
    <contour>
      <point x="585" y="1747"/>
      <point x="552" y="1732"/>
      <point x="529" y="1709" type="curve" smooth="yes"/>
      <point x="505" y="1685"/>
      <point x="490" y="1652"/>
      <point x="490" y="1616" type="curve" smooth="yes"/>
      <point x="490" y="1580"/>
      <point x="505" y="1547"/>
      <point x="529" y="1523" type="curve" smooth="yes"/>
      <point x="552" y="1499"/>
      <point x="585" y="1485"/>
      <point x="621" y="1485" type="curve" smooth="yes"/>
      <point x="657" y="1485"/>
      <point x="690" y="1500"/>
      <point x="714" y="1524" type="curve" smooth="yes"/>
      <point x="738" y="1547"/>
      <point x="753" y="1580"/>
      <point x="753" y="1616" type="curve" smooth="yes"/>
      <point x="753" y="1652"/>
      <point x="738" y="1685"/>
      <point x="714" y="1709" type="curve" smooth="yes"/>
      <point x="690" y="1732"/>
      <point x="657" y="1747"/>
      <point x="621" y="1747" type="curve" smooth="yes"/>
    </contour>
    <contour>
      <point x="752" y="238"/>
      <point x="831" y="328"/>
      <point x="831" y="477" type="curve" smooth="yes"/>
      <point x="831" y="1423" type="line"/>
      <point x="779" y="1366"/>
      <point x="706" y="1331"/>
      <point x="622" y="1331" type="curve" smooth="yes"/>
      <point x="533" y="1331"/>
      <point x="453" y="1372"/>
      <point x="401" y="1436" type="curve"/>
      <point x="401" y="477" type="line" smooth="yes"/>
      <point x="401" y="328"/>
      <point x="480" y="238"/>
      <point x="616" y="238" type="curve" smooth="yes"/>
    </contour>
  </outline>
</glyph>
<glyph name="uring" format="1">
  <advance width="1233"/>
  <unicode hex="016F"/>
  <note>
	uring
  </note>
  <outline>
    <contour>
      <point x="538" y="1249"/>
      <point x="467" y="1281"/>
      <point x="416" y="1333" type="curve" smooth="yes"/>
      <point x="364" y="1384"/>
      <point x="332" y="1455"/>
      <point x="332" y="1534" type="curve" smooth="yes"/>
      <point x="332" y="1613"/>
      <point x="364" y="1684"/>
      <point x="416" y="1736" type="curve" smooth="yes"/>
      <point x="467" y="1787"/>
      <point x="538" y="1819"/>
      <point x="617" y="1819" type="curve" smooth="yes"/>
      <point x="696" y="1819"/>
      <point x="767" y="1787"/>
      <point x="819" y="1736" type="curve" smooth="yes"/>
      <point x="870" y="1684"/>
      <point x="901" y="1613"/>
      <point x="901" y="1534" type="curve" smooth="yes"/>
      <point x="901" y="1455"/>
      <point x="870" y="1384"/>
      <point x="819" y="1333" type="curve" smooth="yes"/>
      <point x="767" y="1281"/>
      <point x="696" y="1249"/>
      <point x="617" y="1249" type="curve" smooth="yes"/>
    </contour>
    <contour>
      <point x="652" y="1403"/>
      <point x="685" y="1418"/>
      <point x="709" y="1442" type="curve" smooth="yes"/>
      <point x="733" y="1465"/>
      <point x="748" y="1498"/>
      <point x="748" y="1534" type="curve" smooth="yes"/>
      <point x="748" y="1570"/>
      <point x="733" y="1603"/>
      <point x="709" y="1627" type="curve" smooth="yes"/>
      <point x="685" y="1650"/>
      <point x="652" y="1665"/>
      <point x="616" y="1665" type="curve" smooth="yes"/>
      <point x="580" y="1665"/>
      <point x="547" y="1650"/>
      <point x="524" y="1627" type="curve" smooth="yes"/>
      <point x="500" y="1603"/>
      <point x="485" y="1570"/>
      <point x="485" y="1534" type="curve" smooth="yes"/>
      <point x="485" y="1498"/>
      <point x="500" y="1465"/>
      <point x="524" y="1441" type="curve" smooth="yes"/>
      <point x="547" y="1417"/>
      <point x="580" y="1403"/>
      <point x="616" y="1403" type="curve" smooth="yes"/>
    </contour>
    <contour>
      <point x="271" y="-29"/>
      <point x="160" y="112"/>
      <point x="160" y="391" type="curve" smooth="yes"/>
      <point x="160" y="1120" type="line"/>
      <point x="453" y="1120" type="line"/>
      <point x="453" y="436" type="line" smooth="yes"/>
      <point x="453" y="280"/>
      <point x="494" y="211"/>
      <point x="593" y="211" type="curve" smooth="yes"/>
      <point x="710" y="211"/>
      <point x="768" y="308"/>
      <point x="768" y="477" type="curve" smooth="yes"/>
      <point x="768" y="1120" type="line"/>
      <point x="1061" y="1120" type="line"/>
      <point x="1061" y="0" type="line"/>
      <point x="797" y="0" type="line"/>
      <point x="768" y="166" type="line"/>
      <point x="727" y="43"/>
      <point x="629" y="-29"/>
      <point x="480" y="-29" type="curve" smooth="yes"/>
    </contour>
  </outline>
</glyph>
<glyph name="uogonek" format="1">
  <advance width="1233"/>
  <unicode hex="0173"/>
  <note>
	uogonek
  </note>
  <outline>
    <contour>
      <point x="1121" y="-254"/>
      <point x="1175" y="-244"/>
      <point x="1228" y="-223" type="curve"/>
      <point x="1228" y="-379" type="line"/>
      <point x="1156" y="-394"/>
      <point x="1092" y="-401"/>
      <point x="1041" y="-401" type="curve" smooth="yes"/>
      <point x="885" y="-401"/>
      <point x="800" y="-339"/>
      <point x="800" y="-224" type="curve" smooth="yes"/>
      <point x="800" y="-151"/>
      <point x="835" y="-81"/>
      <point x="911" y="0" type="curve"/>
      <point x="768" y="0" type="line"/>
      <point x="768" y="166" type="line"/>
      <point x="727" y="43"/>
      <point x="629" y="-29"/>
      <point x="480" y="-29" type="curve" smooth="yes"/>
      <point x="271" y="-29"/>
      <point x="160" y="112"/>
      <point x="160" y="391" type="curve" smooth="yes"/>
      <point x="160" y="1120" type="line"/>
      <point x="453" y="1120" type="line"/>
      <point x="453" y="436" type="line" smooth="yes"/>
      <point x="453" y="280"/>
      <point x="494" y="211"/>
      <point x="593" y="211" type="curve" smooth="yes"/>
      <point x="710" y="211"/>
      <point x="768" y="308"/>
      <point x="768" y="477" type="curve" smooth="yes"/>
      <point x="768" y="1120" type="line"/>
      <point x="1061" y="1120" type="line"/>
      <point x="1061" y="0" type="line"/>
      <point x="1052" y="0" type="line"/>
      <point x="1029" y="-31"/>
      <point x="1014" y="-53"/>
      <point x="1003" y="-69" type="curve"/>
      <point x="998" y="-77"/>
      <point x="993" y="-84"/>
      <point x="990" y="-90" type="curve" smooth="yes"/>
      <point x="987" y="-96"/>
      <point x="984" y="-101"/>
      <point x="981" y="-106" type="curve"/>
      <point x="968" y="-130"/>
      <point x="962" y="-147"/>
      <point x="962" y="-166" type="curve" smooth="yes"/>
      <point x="962" y="-213"/>
      <point x="997" y="-254"/>
      <point x="1080" y="-254" type="curve" smooth="yes"/>
    </contour>
  </outline>
</glyph>
<glyph name="florin" format="1">
  <advance width="1233"/>
  <unicode hex="0192"/>
  <note>
	florin
  </note>
  <outline>
    <contour>
      <point x="203" y="-426"/>
      <point x="161" y="-422"/>
      <point x="125" y="-414" type="curve" smooth="yes"/>
      <point x="89" y="-406"/>
      <point x="49" y="-392"/>
      <point x="12" y="-375" type="curve"/>
      <point x="12" y="-141" type="line"/>
      <point x="41" y="-160"/>
      <point x="68" y="-173"/>
      <point x="95" y="-182" type="curve" smooth="yes"/>
      <point x="121" y="-191"/>
      <point x="148" y="-195"/>
      <point x="175" y="-195" type="curve" smooth="yes"/>
      <point x="300" y="-195"/>
      <point x="368" y="-118"/>
      <point x="391" y="55" type="curve" smooth="yes"/>
      <point x="471" y="666" type="line"/>
      <point x="219" y="666" type="line"/>
      <point x="219" y="885" type="line"/>
      <point x="500" y="885" type="line"/>
      <point x="539" y="1178" type="line" smooth="yes"/>
      <point x="555" y="1299"/>
      <point x="600" y="1394"/>
      <point x="665" y="1458" type="curve" smooth="yes"/>
      <point x="733" y="1523"/>
      <point x="822" y="1556"/>
      <point x="926" y="1556" type="curve" smooth="yes"/>
      <point x="963" y="1556"/>
      <point x="1007" y="1552"/>
      <point x="1042" y="1544" type="curve" smooth="yes"/>
      <point x="1073" y="1537"/>
      <point x="1118" y="1521"/>
      <point x="1153" y="1505" type="curve"/>
      <point x="1153" y="1274" type="line"/>
      <point x="1122" y="1293"/>
      <point x="1094" y="1304"/>
      <point x="1071" y="1312" type="curve" smooth="yes"/>
      <point x="1045" y="1321"/>
      <point x="1019" y="1325"/>
      <point x="992" y="1325" type="curve" smooth="yes"/>
      <point x="868" y="1325"/>
      <point x="827" y="1249"/>
      <point x="804" y="1186" type="curve" smooth="yes"/>
      <point x="792" y="1154"/>
      <point x="783" y="1117"/>
      <point x="778" y="1075" type="curve" smooth="yes"/>
      <point x="754" y="885" type="line"/>
      <point x="1014" y="885" type="line"/>
      <point x="1014" y="666" type="line"/>
      <point x="725" y="666" type="line"/>
      <point x="631" y="-47" type="line" smooth="yes"/>
      <point x="616" y="-160"/>
      <point x="574" y="-259"/>
      <point x="505" y="-327" type="curve" smooth="yes"/>
      <point x="438" y="-393"/>
      <point x="349" y="-426"/>
      <point x="240" y="-426" type="curve" smooth="yes"/>
    </contour>
  </outline>
</glyph>
<glyph name="ohorn" format="1">
  <advance width="1233"/>
  <unicode hex="01A1"/>
  <note>
	ohorn
  </note>
  <outline>
    <contour>
      <point x="1202" y="1167" type="line"/>
      <point x="1217" y="1094"/>
      <point x="1224" y="1031"/>
      <point x="1224" y="979" type="curve" smooth="yes"/>
      <point x="1224" y="823"/>
      <point x="1162" y="739"/>
      <point x="1047" y="739" type="curve" smooth="yes"/>
      <point x="1044" y="739"/>
      <point x="1040" y="739"/>
      <point x="1037" y="739" type="curve" smooth="yes"/>
      <point x="1034" y="739"/>
      <point x="1030" y="739"/>
      <point x="1027" y="740" type="curve"/>
      <point x="1039" y="684"/>
      <point x="1046" y="624"/>
      <point x="1046" y="559" type="curve" smooth="yes"/>
      <point x="1046" y="379"/>
      <point x="996" y="232"/>
      <point x="906" y="130" type="curve" smooth="yes"/>
      <point x="816" y="28"/>
      <point x="686" y="-29"/>
      <point x="527" y="-29" type="curve" smooth="yes"/>
      <point x="368" y="-29"/>
      <point x="240" y="28"/>
      <point x="150" y="130" type="curve" smooth="yes"/>
      <point x="60" y="232"/>
      <point x="9" y="379"/>
      <point x="9" y="559" type="curve" smooth="yes"/>
      <point x="9" y="739"/>
      <point x="60" y="887"/>
      <point x="150" y="989" type="curve" smooth="yes"/>
      <point x="240" y="1091"/>
      <point x="368" y="1147"/>
      <point x="527" y="1147" type="curve" smooth="yes"/>
      <point x="726" y="1147"/>
      <point x="876" y="1060"/>
      <point x="964" y="907" type="curve"/>
      <point x="972" y="904"/>
      <point x="981" y="903"/>
      <point x="990" y="903" type="curve" smooth="yes"/>
      <point x="1038" y="903"/>
      <point x="1077" y="938"/>
      <point x="1077" y="1018" type="curve" smooth="yes"/>
      <point x="1077" y="1058"/>
      <point x="1067" y="1115"/>
      <point x="1046" y="1167" type="curve"/>
    </contour>
    <contour>
      <point x="598" y="209"/>
      <point x="654" y="241"/>
      <point x="693" y="301" type="curve" smooth="yes"/>
      <point x="732" y="361"/>
      <point x="753" y="448"/>
      <point x="753" y="559" type="curve" smooth="yes"/>
      <point x="753" y="668"/>
      <point x="732" y="756"/>
      <point x="693" y="816" type="curve" smooth="yes"/>
      <point x="654" y="876"/>
      <point x="598" y="909"/>
      <point x="527" y="909" type="curve" smooth="yes"/>
      <point x="456" y="909"/>
      <point x="401" y="876"/>
      <point x="362" y="816" type="curve" smooth="yes"/>
      <point x="323" y="756"/>
      <point x="302" y="668"/>
      <point x="302" y="559" type="curve" smooth="yes"/>
      <point x="302" y="448"/>
      <point x="323" y="361"/>
      <point x="362" y="301" type="curve" smooth="yes"/>
      <point x="401" y="241"/>
      <point x="456" y="209"/>
      <point x="527" y="209" type="curve" smooth="yes"/>
    </contour>
  </outline>
</glyph>
<glyph name="Uhorn" format="1">
  <advance width="1233"/>
  <unicode hex="01AF"/>
  <note>
	Uhorn
  </note>
  <outline>
    <contour>
      <point x="1221" y="1482"/>
      <point x="1228" y="1419"/>
      <point x="1228" y="1367" type="curve" smooth="yes"/>
      <point x="1228" y="1211"/>
      <point x="1166" y="1127"/>
      <point x="1051" y="1127" type="curve" smooth="yes"/>
      <point x="1046" y="1127"/>
      <point x="1042" y="1127"/>
      <point x="1038" y="1127" type="curve" smooth="yes"/>
      <point x="1034" y="1127"/>
      <point x="1030" y="1128"/>
      <point x="1025" y="1129" type="curve"/>
      <point x="1025" y="551" type="line" smooth="yes"/>
      <point x="1025" y="348"/>
      <point x="987" y="204"/>
      <point x="904" y="109" type="curve" smooth="yes"/>
      <point x="821" y="14"/>
      <point x="694" y="-29"/>
      <point x="515" y="-29" type="curve" smooth="yes"/>
      <point x="336" y="-29"/>
      <point x="210" y="14"/>
      <point x="127" y="109" type="curve" smooth="yes"/>
      <point x="43" y="204"/>
      <point x="5" y="348"/>
      <point x="5" y="551" type="curve" smooth="yes"/>
      <point x="5" y="1493" type="line"/>
      <point x="300" y="1493" type="line"/>
      <point x="300" y="477" type="line" smooth="yes"/>
      <point x="300" y="328"/>
      <point x="379" y="238"/>
      <point x="515" y="238" type="curve" smooth="yes"/>
      <point x="651" y="238"/>
      <point x="730" y="328"/>
      <point x="730" y="477" type="curve" smooth="yes"/>
      <point x="730" y="1493" type="line"/>
      <point x="1025" y="1493" type="line"/>
      <point x="1025" y="1297" type="line"/>
      <point x="1058" y="1310"/>
      <point x="1081" y="1345"/>
      <point x="1081" y="1406" type="curve" smooth="yes"/>
      <point x="1081" y="1446"/>
      <point x="1071" y="1503"/>
      <point x="1050" y="1555" type="curve"/>
      <point x="1206" y="1555" type="line"/>
    </contour>
  </outline>
</glyph>
